<svg xmlns="http://www.w3.org/2000/svg" width="590.0780948315422" height="1336.2670592632423" xmlns:xlink="http://www.w3.org/1999/xlink" xlink:xlink="http://www.w3.org/1999/xlink"><g class="character no-stroke" transform="translate(261.9491799550997 651.0545703606517) rotate(0 0 0) scale(-1 1)"><g class="part left-upper-arm" transform="translate(73.8776668874666 -325.53105936035087) rotate(59.70471897339905 0 0) scale(1 1)"><g class="offset" transform="translate(0 0) rotate(0 93.41252899169922 5.256565093994141) scale(1 1)"><g id="left-upper-arm" transform="translate(-438.41 -350.25) rotate(-84.34771462128046 438.41 350.25) scale(1 1)" data-centerX="93.41252899169922" data-centerY="5.256565093994141">
        <path d="M434.46,563.69c-3.61-9.12-23.58-62.6-26.58-80.37-3.08-18.18,1-52.95-1.1-61.09s-9.26-30.24-12.7-44.5-3.93-33.11,4.56-47.19,23.44-24.65,39.77-27c12.8-1.82,33,9.69,38.16,16.86,4.79,6.61,8.81,23.36,8.38,36.54s-5.46,40.24-5.45,49.37S493.35,464.53,493,476.7s-2,73.35-5.33,85.48c-1.23,4.49-4.92,20.81-21.16,21.81C440.81,585.57,437.11,570.4,434.46,563.69Z" fill="#E2B08B" stroke="#000" stroke-miterlimit="10" class="color-skin"/>
        <path d="M457.11,439.39c-.18,3.31-.31,6.63-.37,9.95s-.11,6.63-.06,10a169.88,169.88,0,0,0,1.18,19.81c.47,3.27,1.11,6.52,1.82,9.75s1.53,6.45,2.39,9.65c1.72,6.41,3.62,12.77,5.65,19.1-2.39-6.21-4.49-12.52-6.35-18.9a150.06,150.06,0,0,1-4.47-19.47,147.86,147.86,0,0,1-1-19.94A191.35,191.35,0,0,1,457.11,439.39Z" opacity="0.3"/>
      </g></g></g><g class="part shirt-left-upper-arm" transform="translate(73.8776668874666 -325.53105936035087) rotate(59.70471897339905 0 0) scale(1 1)"/><g class="part jacket-left-upper-arm" transform="translate(73.8776668874666 -325.53105936035087) rotate(59.70471897339905 0 0) scale(1 1)"/><g class="part left-forearm" transform="translate(181.89750425930202 -140.6423065002533) rotate(98.69216961192853 0 0) scale(1 1)"><g class="offset" transform="translate(0 0) rotate(0 85.0933895111084 1.6280593872070312) scale(1 1)"><path id="left-forearm" d="M504.89,585.63c3,8.23,18.49,100,21,111,1.31,5.66,5.38,34.66,5.76,38.78s-9.18,15.72-19.77,17.33c-13.61,2.07-26-5.93-27.63-9.24s-5.22-29.38-8.45-42.09-37.65-107.7-39.95-113.16-7.87-12.06-6.75-15.9a17.19,17.19,0,0,1,5.32-8.65s.23-24,24.38-25c27.76-1.23,28.86,23.48,28.86,23.48C495.7,565.55,501.79,577.26,504.89,585.63Z" fill="#E2B08B" stroke="#000" stroke-miterlimit="10" transform="translate(-459.5 -563.34) rotate(-74.7531459059117 459.5 563.34) scale(1 1)" data-centerX="85.0933895111084" data-centerY="1.6280593872070312" class="color-skin"/></g></g><g class="part patch-left-elbow" transform="translate(73.8776668874666 -325.53105936035087) rotate(59.70471897339905 0 0) scale(1 1)"><g class="offset" transform="translate(0 0) rotate(0 206.8119354248047 -1.6890983581542969) scale(1 1)"><ellipse id="patch-left-elbow" cx="460.46" cy="555.89" rx="26.49" ry="24.16" fill="#E2B08B" transform="translate(-438.41 -350.25) rotate(-84.34771462128046 438.41 350.25) scale(1 1)" data-centerX="206.8119354248047" data-centerY="-1.6890983581542969" class="color-skin"/></g></g><g class="part left-hand" transform="translate(154.33058080340115 39.6731552083215) rotate(90.52427255930627 0 0) scale(1 1)"><g class="offset" transform="translate(0 0) rotate(0 64.65671157836914 -4.5628814697265625) scale(1 1)"><g id="left-hand-open-front" transform="translate(-507.47 -739.33) rotate(-74.33134329079769 507.47 739.33) scale(1 1)" data-centerX="64.65671157836914" data-centerY="-4.5628814697265625">
          <path d="M512.11,730.06c6.64-1,11.64,0,15.95,2.49,4.82,2.56,15.89,10.28,19,15.77s7.13,11.95,7.13,11.95,9,8.63,11.11,13.13,5.87,11.75,6.28,12.93,4.52,9.6,4.52,9.6,1.22,3.52-3,5.08-9.64-3.73-11-5.89-6.48-13.51-6.48-13.51l-9.08-7.26S543,771,542.16,772s.86,7.64.86,7.64,3.15,10.77,4.58,14.88S555.1,811,555.1,811l10.18,20.76s5.67,11.17,6.48,13.52,1,6.26-3,8.41-7.45-2.56-7.45-2.56l-7-13.32-9.78-19.59s-8.68-14.69-9.74-14.3,6.94,20,6.94,20l8.48,22.71,6.36,14.89s1.4,7.44-3.36,9.19-8-4.32-8-4.32S539.24,852.79,539,852s-10.8-22.52-10.8-22.52-7.87-21-9.13-21.15,2.14,16.44,2.14,16.44l6.49,22.13s4.4,11,5,12.73,2.13,7.83-2.1,9.39-8.29-1.58-9.31-4.52l-4.9-14.1L509,827.32s-5.88-20.36-7.14-20.56-.56,10-.56,10L504,828.49s2.41,10.38,2.9,13.51,1.51,6.07-2.18,7.43-6.71-1.71-7.32-3.93-3-12.13-3.32-14.68-3.51-15.27-3.51-15.27a61.5,61.5,0,0,0-2.21-9.79c-1.43-4.11-5.32-39.24-5.92-46.43s4-14.85,8.66-19S506.53,730.89,512.11,730.06Z" fill="#E2B08B" stroke="#000" stroke-miterlimit="10" class="color-skin"/>
          <path d="M542.46,783.36a20.74,20.74,0,0,1-6.44,2.52,15.63,15.63,0,0,1-3.49.29,20.12,20.12,0,0,1-3.47-.47,33.56,33.56,0,0,1-6.63-2.15,31,31,0,0,1-6.08-3.45,19.17,19.17,0,0,1-2.59-2.43,28.57,28.57,0,0,1-2-2.87c-1.23-2-2.39-4-3.47-6-2.17-4.06-4.22-8.19-6.11-12.39l3.38,6c1.12,2,2.24,4,3.41,6s2.3,4,3.55,5.88a27.9,27.9,0,0,0,2,2.75A18.23,18.23,0,0,0,517,779.3,34.72,34.72,0,0,0,529.23,785C533.61,786.28,538.34,785.35,542.46,783.36Z" opacity="0.4"/>
          <path d="M542.46,783.36a12.44,12.44,0,0,1-4.77,2.26,40.78,40.78,0,0,1-5.22,1,78.19,78.19,0,0,1-10.59.63,103.87,103.87,0,0,1-10.58-.59,46.28,46.28,0,0,1-10.37-2.07,38.06,38.06,0,0,0,5.2.84c1.74.21,3.49.36,5.24.46,3.5.22,7,.35,10.51.36s7-.09,10.5-.39a42.92,42.92,0,0,0,5.19-.73A13.35,13.35,0,0,0,542.46,783.36Z" opacity="0.4"/>
          <path d="M545.9,797.24a48.41,48.41,0,0,0-6,3.7,40.3,40.3,0,0,1-6.24,3.27,63.63,63.63,0,0,1-6.39,3,28.59,28.59,0,0,1-7,1.24,67.77,67.77,0,0,1-14.09-.4c-1.17-.17-2.32-.38-3.47-.58a34.91,34.91,0,0,1-3.46-.73,36.44,36.44,0,0,1-6.4-3c2.19.84,4.25,2,6.52,2.48,1.13.26,2.27.42,3.44.57s2.31.32,3.47.45a74.39,74.39,0,0,0,13.92.17,28,28,0,0,0,6.8-1.11c2.17-.68,4.15-2,6.36-2.84a40.84,40.84,0,0,0,6.3-3A42.3,42.3,0,0,1,545.9,797.24Z" opacity="0.4"/>
          <g opacity="0.4">
            <line x1="546.82" y1="815" x2="552.13" y2="812.85" fill="#fff"/>
            <path d="M546.82,815a7.86,7.86,0,0,1,2.47-1.54,7.64,7.64,0,0,1,2.84-.61,7.41,7.41,0,0,1-2.47,1.54A7.64,7.64,0,0,1,546.82,815Z"/>
          </g>
          <g opacity="0.4">
            <line x1="556.06" y1="836.08" x2="561.32" y2="832.99" fill="#fff"/>
            <path d="M556.06,836.08a8.68,8.68,0,0,1,2.37-2,8.58,8.58,0,0,1,2.89-1.12,9.52,9.52,0,0,1-5.26,3.09Z"/>
          </g>
          <g opacity="0.4">
            <line x1="530.03" y1="822.45" x2="536.24" y2="820.25" fill="#fff"/>
            <path d="M530,822.45a11.14,11.14,0,0,1,6.21-2.2,11.14,11.14,0,0,1-6.21,2.2Z"/>
          </g>
          <g opacity="0.4">
            <line x1="537.51" y1="844.56" x2="545.48" y2="841.33" fill="#fff"/>
            <path d="M537.51,844.56a17.12,17.12,0,0,1,3.79-2.08,16.79,16.79,0,0,1,4.18-1.15,18.72,18.72,0,0,1-8,3.23Z"/>
          </g>
          <g opacity="0.4">
            <line x1="517.86" y1="849.35" x2="525.03" y2="848.03" fill="#fff"/>
            <path d="M517.86,849.35a12.19,12.19,0,0,1,3.5-1.15A11.81,11.81,0,0,1,525,848a11.83,11.83,0,0,1-3.49,1.15A12.2,12.2,0,0,1,517.86,849.35Z"/>
          </g>
          <g opacity="0.4">
            <line x1="511.14" y1="824.39" x2="518.35" y2="824.01" fill="#fff"/>
            <path d="M511.14,824.39a11.82,11.82,0,0,1,3.58-.69,11.51,11.51,0,0,1,3.63.31,11.82,11.82,0,0,1-3.58.69A12.12,12.12,0,0,1,511.14,824.39Z"/>
          </g>
          <g opacity="0.4">
            <line x1="493.86" y1="822.49" x2="501.12" y2="823.04" fill="#fff"/>
            <path d="M493.86,822.49a12,12,0,0,1,3.67-.22,11.66,11.66,0,0,1,3.59.77,12,12,0,0,1-3.67.22A12.28,12.28,0,0,1,493.86,822.49Z"/>
          </g>
          <g opacity="0.4">
            <line x1="498.2" y1="836.32" x2="503.61" y2="836.04" fill="#fff"/>
            <path d="M498.2,836.32a6.78,6.78,0,0,1,2.67-.64,6.87,6.87,0,0,1,2.74.36,7.58,7.58,0,0,1-5.41.28Z"/>
          </g>
          <g opacity="0.4">
            <line x1="559.08" y1="789.98" x2="565.25" y2="786.84" fill="#fff"/>
            <path d="M559.08,790a10.94,10.94,0,0,1,2.86-2,10.79,10.79,0,0,1,3.31-1.12,10.94,10.94,0,0,1-2.86,2A11.06,11.06,0,0,1,559.08,790Z"/>
          </g>
          <g opacity="0.4">
            <line x1="555.94" y1="781.71" x2="558.3" y2="775.02" fill="#fff"/>
            <path d="M555.94,781.71A12.88,12.88,0,0,1,558.3,775a11.36,11.36,0,0,1-.71,3.51A11.76,11.76,0,0,1,555.94,781.71Z"/>
          </g>
          <g opacity="0.4">
            <line x1="549.55" y1="763.29" x2="541.88" y2="772.13" fill="#fff"/>
            <path d="M549.55,763.29a30.24,30.24,0,0,1-3.46,4.75,30.74,30.74,0,0,1-4.21,4.09,30.15,30.15,0,0,1,3.46-4.74A30.81,30.81,0,0,1,549.55,763.29Z"/>
          </g>
          <path d="M485.09,792.94a32.48,32.48,0,0,0,4.8.9c1.61.21,3.23.36,4.86.47,3.24.23,6.5.4,9.75.49s6.52.16,9.78.16c1.63,0,3.26,0,4.89-.08s3.25-.14,4.89-.24a66.56,66.56,0,0,1-9.76,1.09c-3.28.18-6.55.16-9.83.07s-6.55-.31-9.8-.72A38.66,38.66,0,0,1,485.09,792.94Z" opacity="0.4"/>
        </g></g></g><g class="part patch-left-wrist" transform="translate(181.89750425930202 -140.6423065002533) rotate(98.69216961192853 0 0) scale(1 1)"><g class="offset" transform="translate(0 0) rotate(0 173.12393951416016 -1.4843864440917969) scale(1 1)"><ellipse id="patch-left-wrist" cx="506.46" cy="729.98" rx="23.69" ry="22.33" transform="translate(-459.5 -563.34) rotate(-74.7531459059117 459.5 563.34) scale(1 1)" fill="#E2B08B" data-centerX="173.12393951416016" data-centerY="-1.4843864440917969" class="color-skin"/></g></g><g class="part shirt-left-forearm" transform="translate(181.89750425930202 -140.6423065002533) rotate(98.69216961192853 0 0) scale(1 1)"/><g class="part shirt-patch-left-elbow" transform="translate(73.8776668874666 -325.53105936035087) rotate(59.70471897339905 0 0) scale(1 1)"/><g class="part shirt-left-elbow" transform="translate(73.8776668874666 -325.53105936035087) rotate(59.70471897339905 0 0) scale(1 1)"/><g class="part jacket-left-forearm" transform="translate(181.89750425930202 -140.6423065002533) rotate(98.69216961192853 0 0) scale(1 1)"/><g class="part jacket-patch-left-elbow" transform="translate(73.8776668874666 -325.53105936035087) rotate(59.70471897339905 0 0) scale(1 1)"/><g class="part jacket-left-elbow" transform="translate(73.8776668874666 -325.53105936035087) rotate(59.70471897339905 0 0) scale(1 1)"/><g class="part left-thigh" transform="translate(29.058462055872166 -7.784971608646856) rotate(78.07084697636321 0 0) scale(1 1)"><g class="offset" transform="translate(0 0) rotate(0 113.5448989868164 9.63104248046875) scale(1 1)"><path id="left-thigh" d="M457.12,645.73c2.54,7.7,14.9,40.3,16.57,58.71,1.93,21.35,4.58,74.91,1.93,99.28-2.89,26.69-20.84,131.07-23.34,142.06-.25,1.1-2,23-21,27.36-29.44,6.81-42.75-15.69-42.75-15.69-2.5-18.14-10.79-48.47-16.38-65-5.77-17.09-10.73-79.1-11.55-91.91S353,764.67,347.9,739.67c0,0-49.08-28.66-44.36-89.72,4.94-63.8,73.7-66.42,89.46-65.92C452.7,585.93,457.12,645.73,457.12,645.73Z" fill="#E2B08B" stroke="#000" stroke-miterlimit="10" transform="translate(-385.5 -665.34) rotate(-82.89938560001168 385.5 665.34) scale(1 1)" data-centerX="113.5448989868164" data-centerY="9.63104248046875" class="color-skin"/></g></g><g class="part bottom-left-thigh" transform="translate(29.058462055872166 -7.784971608646856) rotate(78.07084697636321 0 0) scale(1 1)"><g class="offset" transform="translate(0 0) rotate(0 115.70165252685547 9.412895202636719) scale(1 1)"><g id="bottom-left-thigh-pants2" transform="translate(-385.5 -665.34) rotate(-82.89938560001168 385.5 665.34) scale(1 1)" data-centerX="115.70165252685547" data-centerY="9.412895202636719">
            <path d="M461.12,645.73c2.54,7.7,11.9,40.3,13.57,58.71,1.93,21.35,4.58,74.91,1.93,99.28-2.89,26.69-17.84,131.07-20.34,142.06-.25,1.1-3.59,29.24-28,32.36-32.83,4.18-46.75-18.69-46.75-18.69-2.5-18.14-10.79-48.47-16.38-65-5.77-17.09-7.73-81.1-8.55-93.91S348,764.67,342.9,739.67c0,0-44.08-28.66-39.36-89.72,4.94-63.8,73.7-66.42,89.46-65.92C452.7,585.93,461.12,645.73,461.12,645.73Z" fill="#727267" stroke="#000" stroke-miterlimit="10" class="color-bottom"/>
            <path d="M392,970.68c-1.11-2.72-5.82-18.55-7-23.74-1.53-6.87-.74-68.31-.28-105,.15-11.72.27-21,.27-25.1,0-16.83,7.92-96.73,8-97.54l1,.1c-.08.81-8,80.66-8,97.44,0,4.13-.12,13.39-.27,25.11-.46,36.66-1.24,98,.26,104.78,1.23,5.54,5.92,21.15,6.92,23.58Z" fill="#fff" opacity="0.16"/>
            <rect x="398.87" y="716.33" width="3" height="1" transform="translate(-349.54 1051.19) rotate(-84.85)" fill="#fff" opacity="0.16"/>
            <path d="M400.72,966.53,398.58,961l.94-.35c.73,1.92,1.46,3.81,2.13,5.54Zm-4.23-11.13c-.79-2.16-1.46-4-2-5.61l.95-.32c.53,1.56,1.2,3.44,2,5.59ZM392.85,944c-.17-1.25-.32-3.26-.45-6l1,0c.13,2.69.28,4.67.44,5.89Zm-.67-11.92c-.05-1.83-.1-3.82-.14-5.94l1,0c0,2.11.09,4.1.14,5.93Zm-.24-11.89c0-1.91-.05-3.9-.07-5.94h1c0,2,.05,4,.07,5.94Zm-.12-11.89q0-2.91,0-5.94h1q0,3,0,5.94Zm-.06-11.88v-5.94h1v5.95Zm1-11.89h-1v-5.94h1Zm0-11.88h-1v-5.94h1Zm0-11.88h-1l0-6h1Zm.06-11.88h-1l0-5.94h1Zm.06-11.89h-1l0-5.94h1Zm.06-11.89h-1c0-2.18,0-4,0-5.26v-.69h1v.68C393,821.13,393,822.91,393,825.09Zm.22-11.87-1-.05c.09-1.78.2-3.78.33-5.95l1,.06C393.4,809.45,393.29,811.44,393.2,813.22Zm.71-11.87-1-.07q.18-2.85.41-5.93l1,.07Q394.1,798.5,393.91,801.35Zm.84-11.86-1-.08q.22-2.91.45-5.93l1,.07Q395,786.58,394.75,789.49Zm.91-11.86-1-.08.47-5.93,1,.08Zm1-11.86-1-.08.49-5.93,1,.08Zm1-11.85-1-.09.5-5.93,1,.09Zm1-11.86-1-.08.51-5.93,1,.09Zm1-11.85-1-.09.53-5.92,1,.08Z" fill="#fff" opacity="0.16"/>
            <path d="M403.91,974.61c-.18-.44-.57-1.43-1.11-2.79l.93-.37c.54,1.36.93,2.34,1.11,2.78Z" fill="#fff" opacity="0.16"/>
          </g></g></g><g class="part left-lowerleg" transform="translate(89.25703781239721 277.1591132165797) rotate(96.43074019292283 0 0) scale(1 1)"><g class="offset" transform="translate(0 0) rotate(0 144.57771110534668 1.4185600280761719) scale(1 1)"><g id="left-lowerleg" transform="translate(-421.5 -954.34) rotate(-93.08010725945529 421.5 954.34) scale(1 1)" data-centerX="144.57771110534668" data-centerY="1.4185600280761719">
        <path d="M452.7,943.79c5.07,7.91,9.39,23.36,9.39,29.92,0,8.93-8.95,27.44-9.31,34.91-.39,8.1-1.94,20.82-1.94,30.43s-20.76,203.25-21.07,209.85c-.24,5-3.06,22.24-23.77,22.24-17.61,0-26.12-12.62-26.29-22.24-.11-5.82-2.49-92.47-4.6-152.66-1.12-31.67-12.57-45.91-12.57-71.53s8.6-41.11,13.81-48.93c2.94-4.41,7.4-13.08,12.19-18.33,0,0-.56-25.86,28.84-30.79C442,922.52,452.7,943.79,452.7,943.79Z" fill="#E2B08B" stroke="#000" stroke-miterlimit="10" class="color-skin"/>
        <path d="M441.73,956a77.89,77.89,0,0,1,1.35,16.14,104.06,104.06,0,0,1-2.51,16.46s9.4-11.93,9.4-19.52S441.73,956,441.73,956Z" opacity="0.25"/>
      </g></g></g><g class="part patch-left-knee" transform="translate(29.058462055872166 -7.784971608646856) rotate(78.07084697636321 0 0) scale(1 1)"><g class="offset" transform="translate(0 0) rotate(0 269.38048553466797 -0.5944061279296875) scale(1 1)"><path id="patch-left-knee" d="M451.54,941.56c.7,7.05-.83,8.7-1.52,9.28-2.36,1.93-6.26.54-9.52-.45-7.56-2.29-21.76-6.59-32.26-3.12-8.4,2.77-10.34,9.17-14.81,7.79s-6.16-9.22-6.35-13.5c-.58-13,10.43-22.11,12.15-23.53,2.7-2.23,11.29-9.11,23.68-8,13.88,1.2,21.53,11.42,22.66,13C450.34,929.58,451,936,451.54,941.56Z" fill="#E2B08B" transform="translate(-385.5 -665.34) rotate(-82.89938560001168 385.5 665.34) scale(1 1)" data-centerX="269.38048553466797" data-centerY="-0.5944061279296875" class="color-skin"/></g></g><g class="part left-foot" transform="translate(55.739032648617545 574.5384646010375) rotate(96.43074019292283 0 0) scale(1 1)"><g class="offset" transform="translate(0 0) rotate(0 21.200611114501953 -46.12818145751953) scale(1 1)"><path id="left-foot" d="M380,1251.78c-2.13,4-13.06,44.6-13.06,44.6s0,11.91,7.45,15.88,20.21,4,31.92,4,34.77-3,38.3-3c3.2,0,41.5,4,47.88,4s13.84-3,13.84-3,8.51,2,13.83,2,11.7-3,13.83-6,4.26-4.73,2.13-9.7c-2-4.61-5.32-7-11.71-7h-17c-1.06,0-41.5-14.12-50-18.09s-22.76-19.53-27.84-23.66c0,0,.16-22.22-23.6-22.22C380.08,1229.65,380,1251.78,380,1251.78Z" fill="#E2B08B" stroke="#000" stroke-miterlimit="10" transform="translate(-405.42 -1253.17) rotate(-88.8308606720926 405.42 1253.17) scale(1 1)" data-centerX="21.200611114501953" data-centerY="-46.12818145751953" class="color-skin"/></g></g><g class="part patch-left-ankle" transform="translate(89.25703781239721 277.1591132165797) rotate(96.43074019292283 0 0) scale(1 1)"><g class="offset" transform="translate(0 0) rotate(0 293.2973175048828 0.8116683959960938) scale(1 1)"><ellipse id="patch-left-ankle" cx="404.93" cy="1247.17" rx="24.02" ry="23.52" fill="#E2B08B" transform="translate(-421.5 -954.34) rotate(-93.08010725945529 421.5 954.34) scale(1 1)" data-centerX="293.2973175048828" data-centerY="0.8116683959960938" class="color-skin"/></g></g><g class="part sock-left-lowerleg" transform="translate(89.25703781239721 277.1591132165797) rotate(96.43074019292283 0 0) scale(1 1)"/><g class="part sock-left-foot" transform="translate(55.739032648617545 574.5384646010375) rotate(96.43074019292283 0 0) scale(1 1)"/><g class="part sock-patch-left-ankle" transform="translate(89.25703781239721 277.1591132165797) rotate(96.43074019292283 0 0) scale(1 1)"/><g class="part bottom-left-lowerleg" transform="translate(89.25703781239721 277.1591132165797) rotate(96.43074019292283 0 0) scale(1 1)"/><g class="part bottom-boot-left-lowerleg" transform="translate(89.25703781239721 277.1591132165797) rotate(96.43074019292283 0 0) scale(1 1)"><g class="offset" transform="translate(0 0) rotate(0 160.1842155456543 -0.823211669921875) scale(1 1)"><g id="bottom-boot-left-lowerleg-pants2" transform="translate(-421.5 -954.34) rotate(-93.08010725945529 421.5 954.34) scale(1 1)" data-centerX="160.1842155456543" data-centerY="-0.823211669921875">
            <path d="M450.56,937.59c5.84,8.54,15.74,37.78,15.74,47,0,11.68-10.18,40.88-10.18,50.49s-12.24,203.65-13.87,210-29.59,10.61-36.91,10.61-35.6,1.93-34.54-6.61c.72-5.78-.31-86.81-2.42-147-1.12-31.67-7.25-52.5-7.25-78.12s7.78-43.77,13.47-51.25c3.73-4.9,6.74-9.77,11.53-15,0,0,7.27-28.15,31.13-31.8C441.71,922.21,450.56,937.59,450.56,937.59Z" fill="#727267" stroke="#000" stroke-miterlimit="10" class="color-bottom"/>
            <path d="M386.68,1300.42l-1-.06c.09-1.3,8.09-129.69,7.11-148.45-.39-7.44-2-21.27-3.79-35.9-2.73-22.87-5.82-48.79-5.21-59.15.78-13.33,10.56-38.87,14.47-45.58l.87.5c-3.88,6.65-13.57,32-14.34,45.14-.61,10.27,2.48,36.15,5.2,59,1.75,14.65,3.4,28.49,3.8,36C394.78,1170.67,386.76,1299.12,386.68,1300.42Z" fill="#fff" opacity="0.16"/>
            <path d="M406.9,1012.19l-.9-.44c.54-1.14,1-2,1.39-2.69l.87.5C407.89,1010.19,407.43,1011.07,406.9,1012.19Z" fill="#fff" opacity="0.16"/>
            <path d="M394.21,1294.89l-1-.06.36-6,1,.06Zm.72-11.91-1-.06.35-6,1,.06Zm.7-11.91-1-.06.35-6,1,.06Zm.69-11.9-1-.06.34-5.95,1,0Zm.68-11.91-1,0,.33-6,1,0Zm.66-11.9-1-.06.32-6,1,.06Zm.64-11.91-1,0,.31-5.94,1,0Zm.61-11.89-1,0,.3-6,1,0Zm.58-11.91-1-.05c.1-2,.19-4,.28-5.95l1,0C399.68,1195.64,399.59,1197.63,399.49,1199.65Zm.54-11.91-1,0c.09-2,.17-4,.25-6l1,0Q400.16,1184.66,400,1187.74Zm.47-11.92-1,0q.11-3.15.19-6l1,0C400.63,1171.72,400.57,1173.72,400.5,1175.82Zm.33-11.94-1,0c0-1.7,0-3.23,0-4.59v-1.36h1v1.37C400.87,1160.63,400.86,1162.17,400.83,1163.88ZM399.6,1152c-.14-1.77-.32-3.76-.53-5.93l1-.1c.21,2.18.39,4.18.52,6Zm-1.14-11.85c-.21-1.89-.43-3.87-.67-5.92l1-.12.66,5.93Zm-1.36-11.84-.7-5.92,1-.12.7,5.92Zm-1.4-11.83-.71-5.92,1-.12.7,5.92Zm-1.4-11.84q-.35-3-.68-5.93l1-.11c.22,2,.44,3.94.67,5.92ZM393,1092.79c-.22-2-.42-4-.62-5.93l1-.1c.19,1.93.4,3.91.61,5.92Zm-1.19-11.87c-.19-2.06-.36-4.05-.5-5.94l1-.08q.21,2.83.5,5.93Zm-.89-11.9c-.12-2.27-.18-4.28-.18-6h1c0,1.69.06,3.68.18,5.93Zm1.18-11.86-1-.13c.23-1.73.61-3.71,1.11-5.9l1,.23C392.67,1053.51,392.3,1055.47,392.07,1057.16Zm2.56-11.55-1-.27c.51-1.81,1.08-3.73,1.71-5.72l.95.3C395.7,1041.9,395.13,1043.81,394.63,1045.61Zm3.55-11.34-.95-.32c.65-1.91,1.32-3.79,2-5.63l.94.35C399.49,1030.5,398.82,1032.37,398.18,1034.27Zm4.09-11.16-.93-.37c.75-1.92,1.5-3.78,2.24-5.53l.92.39C403.77,1019.34,403,1021.19,402.27,1023.11Z" fill="#fff" opacity="0.16"/>
            <rect x="391.78" y="1301.39" width="3" height="1" transform="translate(-930.65 1613.03) rotate(-86.42)" fill="#fff" opacity="0.16"/>
            <path d="M450.08,1005a77.59,77.59,0,0,1,1.36,16.15,103.5,103.5,0,0,1-2.52,16.45s9.41-11.93,9.41-19.52S450.08,1005,450.08,1005Z" opacity="0.25"/>
          </g></g></g><g class="part bottom-patch-left-knee" transform="translate(29.058462055872166 -7.784971608646856) rotate(78.07084697636321 0 0) scale(1 1)"><g class="offset" transform="translate(0 0) rotate(0 268.41310119628906 1.9779243469238281) scale(1 1)"><path id="bottom-patch-left-knee" d="M453.62,939.75c.3,4.64.67,10.31-2.81,12.63-3.22,2.15-7-.41-16.62-2.48-7.51-1.61-16.06-3.45-24.47-1.38-11.14,2.75-13.16,10.16-19.14,9-6.4-1.2-11-11-10.95-19,.13-15.46,17.6-31.93,37.16-32.28a37.9,37.9,0,0,1,29.63,13.58A33.91,33.91,0,0,1,453.62,939.75Z" fill="#727267" transform="translate(-385.5 -665.34) rotate(-82.89938560001168 385.5 665.34) scale(1 1)" data-centerX="268.41310119628906" data-centerY="1.9779243469238281" class="color-bottom"/></g></g><g class="part bottom-left-knee" transform="translate(29.058462055872166 -7.784971608646856) rotate(78.07084697636321 0 0) scale(1 1)"/><g class="part shoe-left-foot" transform="translate(55.739032648617545 574.5384646010375) rotate(96.43074019292283 0 0) scale(1 1)"><g class="offset" transform="translate(0 0) rotate(0 33.234947204589844 -49.77019500732422) scale(1 1)"><g id="shoe-left-foot4" transform="translate(-405.42 -1253.17) rotate(-88.8308606720926 405.42 1253.17) scale(1 1)" data-centerX="33.234947204589844" data-centerY="-49.77019500732422">
            <path d="M364.59,1273.94s-4,14-4.59,18.63,2.54,23.8,2.54,23.8,23.82,4.67,33.2,5.06,31.36-3.21,31.36-3.21,17.6-1.17,24.87,0,28.14,4.28,41.75,4.34,55-5.34,55-5.34,9.68-31.79-5.45-39.35c-12.75-6.38-47.15-4.43-65.3-9.7-16.28-4.73-26-7.54-31.64-13.05-5.22-5.14-11.57-17.15-41.17-17.95C374.4,1236.33,367.2,1268.78,364.59,1273.94Z" fill="#6f4c35" stroke="#000" stroke-miterlimit="10" class="color-shoe"/>
            <path d="M360.5,1315.06l-.5,13.31s7.17,2.34,8,2.44c0,0,.75-2.79,1.77-2.54,1.34.32,1.57,3.13,1.57,3.13.71.06,10.12,1.08,11.33,1.16,0,0,1.1-2.94,1.91-2.85,1.08.12,2.17,3.37,2.17,3.37.9,0,9,.62,11.18.52,0,0,.37-3.27,1.58-3.41s1.92,3.42,1.92,3.42c2.83,0,9.76-.71,12.88-1.13,0,0,.33-3.39,1.45-3.49,1.34-.12,2.65,3,2.65,3,5.12-.52,10.54-1.56,10.54-1.56v-7.88s18.73-.37,23,1.06,14.9,5.79,19.15,6.26c2.33.26,7,.95,12.67,1.51,0,0,.37-3.12,1.81-2.88s1.62,3.18,1.62,3.18c3.05.23,6.94.45,10.18.48,0,0-.36-3.18,1.69-3.42,1.67-.2,1.79,3.35,1.79,3.35,3.23-.12,5.47-.29,11.69-.93,0,0,.24-3.14,1.8-3.26s2.08,2.87,2.08,2.87c3.41-.37,8.56-.92,11.9-1.3,0,0,.71-2.66,1.92-2.9,1.65-.33,2.16,2.53,2.16,2.53,3.51-.41,7.56-1,10.25-1.31,0,0,.56-2.45,1.55-2.54,1.32-.12,2.19,2.08,2.19,2.08l5.39-.67v-11.61s-43.25,5.9-49.9,5.9c-7.87,0-29,.6-33.27-1.06s-19.52-3-19.52-3l-20.83-.73s-24.67,4.43-32.53,4.21S360.5,1315.06,360.5,1315.06Z" stroke="#000" stroke-miterlimit="10"/>
            <rect x="363.15" y="1317.39" width="0.75" height="2" transform="translate(-997.16 1455.69) rotate(-80.35)" fill="#fff" opacity="0.5"/>
            <path d="M497.48,1324.08c-1.18,0-2.51,0-3.94,0v-.75c1.42,0,2.75,0,3.93,0Zm4-.07,0-.75.75-.06,3.15-.35.08.75-3.14.35Zm-11.84,0-3.94-.11,0-.75,3.94.11Zm-7.88-.24-3.94-.17,0-.75,3.93.17Zm-7.87-.36c-1.61-.09-3-.18-4-.26l.07-.75c1,.08,2.32.17,3.92.26Zm35.45-.2-.08-.74,3.91-.44.09.75ZM393.1,1323c-.48,0-.94,0-1.37,0l0-.75c1.1,0,2.43,0,3.91,0l0,.75C394.77,1323,393.9,1323,393.1,1323Zm6.55-.33-.07-.74c1.26-.11,2.58-.23,3.92-.37l.08.75C402.23,1322.47,400.91,1322.59,399.65,1322.69Zm-11.87-.1c-1.16-.15-2.48-.34-3.9-.55l.11-.74c1.41.21,2.73.39,3.89.54Zm78.19-.12-3.87-.73.14-.74,3.87.73Zm51.16-.18-.08-.75,3.91-.43.09.74Zm-109.63-.4-.09-.75c1.3-.15,2.61-.31,3.9-.48l.1.74Zm-27.52-.43-3.89-.62.12-.74c1.3.21,2.6.42,3.89.61Zm145,0-.08-.75,3.91-.44.08.75Zm-66.74-.42-3.87-.74.14-.73,3.87.73Zm-42.91-.12-.1-.75,3.9-.55.11.74Zm117.48-.34-.09-.75,3.92-.43.08.74Zm-160.58-.32-3.89-.64.12-.74,3.89.64Zm50.91-.49L423,1319c1.77-.27,3.13-.49,3.9-.62l.12.74Zm117.5-.06-.09-.75,3.92-.44.09.75Zm-90.14-.15-1.43-.27h-.18l-2.26-.09,0-.75,2.27.09h0l0,0,1.64.32Zm-7.8-.51-3.93-.1v-.75l3.94.1Zm-11.79-.14v-.75c.79,0,1.63,0,2.51,0h1.43v.75h-1.59Q432,1318.84,430.89,1318.87Z" fill="#fff" opacity="0.5"/>
            <rect x="548.12" y="1317.96" width="2" height="0.75" transform="translate(-142.41 68.8) rotate(-6.35)" fill="#fff" opacity="0.5"/>
            <path d="M537,1280.77s-.08,3.18-3.91,4.63-11.48,3.87-11.48,3.87,11.64.26,15.39-1.47S537,1280.77,537,1280.77Z" fill="#fff" opacity="0.26"/>
            <path d="M412.31,1318.8s7.18-2.09,9.83-3.53,4.09-7.47,5.54-8.43,24.51-4.82,29.35-2.41,3.74,7.59,7.9,10.11,17.4,6.5,17.4,6.5a49.3,49.3,0,0,1-15.05-1c-7.16-1.51-15-3-18.18-3.13-6.62-.36-20.17-.3-24.41.27S412.31,1318.8,412.31,1318.8Z" stroke="#000" stroke-miterlimit="10" opacity="0.26"/>
          </g></g></g><g class="part shoe-left-lowerleg" transform="translate(89.25703781239721 277.1591132165797) rotate(96.43074019292283 0 0) scale(1 1)"><g class="offset" transform="translate(0 0) rotate(0 283.1562728881836 -23.713836669921875) scale(1 1)"><g id="shoe-left-lowerleg4" transform="translate(-421.5 -954.34) rotate(-93.08010725945529 421.5 954.34) scale(1 1)" data-centerX="283.1562728881836" data-centerY="-23.713836669921875">
            <path d="M454.36,1194.4s-18.65-4.24-21.85-1.21-7.69,53,0,65.52,41,23.13,41,23.13,20.89-7.95,21.83-10.7c0,0-28.65-7.07-36.69-14.43-10.12-9.26-9.61-21.82-10-30C448.3,1218.85,454.36,1194.4,454.36,1194.4Z" fill="#6f4c35" stroke="#000" stroke-miterlimit="10" class="color-shoe"/>
            <path d="M366.9,1193.79s2.61,45.67,2.26,53.38-4.57,25-4.57,25,29.63,11.8,58.36,15.17c18.93,2.23,59.88-3.1,62-4.33,0,0-1.81-9.54-4.84-10.84-4.53-1.94-13.41-2.16-24.25-13.43-13-13.54-14-51.28-19.3-59.38-.92-1.41-10.88-9.17-35.38-10.38C379.4,1187.88,366.9,1193.79,366.9,1193.79Z" fill="#6f4c35" stroke="#000" stroke-miterlimit="10" class="color-shoe"/>
            <circle cx="432.78" cy="1209.36" r="2.85"/>
            <path d="M432.78,1212.71a3.35,3.35,0,1,1,3.34-3.35A3.35,3.35,0,0,1,432.78,1212.71Zm0-5.7a2.35,2.35,0,1,0,2.34,2.35A2.35,2.35,0,0,0,432.78,1207Z" fill="#aaa"/>
            <circle cx="451.1" cy="1264.99" r="2.85"/>
            <path d="M451.1,1268.34a3.35,3.35,0,1,1,3.35-3.34A3.35,3.35,0,0,1,451.1,1268.34Zm0-5.69a2.35,2.35,0,1,0,2.35,2.35A2.35,2.35,0,0,0,451.1,1262.65Z" fill="#aaa"/>
            <circle cx="438.47" cy="1236.75" r="2.85"/>
            <path d="M438.47,1240.09a3.35,3.35,0,1,1,3.34-3.34A3.35,3.35,0,0,1,438.47,1240.09Zm0-5.69a2.35,2.35,0,1,0,2.34,2.35A2.35,2.35,0,0,0,438.47,1234.4Z" fill="#aaa"/>
            <circle cx="462.09" cy="1272.14" r="2.85"/>
            <path d="M462.09,1275.49a3.35,3.35,0,1,1,3.34-3.35A3.35,3.35,0,0,1,462.09,1275.49Zm0-5.69a2.35,2.35,0,1,0,2.34,2.34A2.35,2.35,0,0,0,462.09,1269.8Z" fill="#aaa"/>
            <circle cx="443" cy="1251.64" r="2.85"/>
            <path d="M443,1255a3.35,3.35,0,1,1,3.35-3.34A3.35,3.35,0,0,1,443,1255Zm0-5.69a2.35,2.35,0,1,0,2.35,2.35A2.35,2.35,0,0,0,443,1249.29Z" fill="#aaa"/>
            <circle cx="435.38" cy="1222.86" r="2.85"/>
            <path d="M435.38,1226.2a3.35,3.35,0,1,1,3.34-3.34A3.35,3.35,0,0,1,435.38,1226.2Zm0-5.69a2.35,2.35,0,1,0,2.34,2.35A2.35,2.35,0,0,0,435.38,1220.51Z" fill="#aaa"/>
            <path d="M462.09,1273.39a1.25,1.25,0,0,1-.44-2.42c4.52-1.68,11.24-4.94,12-6.92.06-.15,0-.19,0-.22a1.26,1.26,0,0,1,.54-1.68,1.24,1.24,0,0,1,1.68.54A2.62,2.62,0,0,1,476,1265c-1.44,3.73-11.46,7.62-13.46,8.36A1.09,1.09,0,0,1,462.09,1273.39Z" fill="#878787"/>
            <path d="M451.1,1266.25a1.25,1.25,0,0,1-.13-2.5l22.2-2.34a1.25,1.25,0,1,1,.26,2.49l-22.2,2.34Z" fill="#878787"/>
            <path d="M451.1,1266.25a1.19,1.19,0,0,1-.54-.13,1.25,1.25,0,0,1-.58-1.67l5.92-12.28a1.25,1.25,0,0,1,2.25,1.09l-5.92,12.28A1.25,1.25,0,0,1,451.1,1266.25Z" fill="#878787"/>
            <path d="M443,1252.89a1.25,1.25,0,0,1-.05-2.5l12.86-.54a1.24,1.24,0,0,1,1.3,1.2,1.25,1.25,0,0,1-1.2,1.3l-12.86.53Z" fill="#878787"/>
            <path d="M443,1252.89a1.26,1.26,0,0,1-.78-.28,1.25,1.25,0,0,1-.19-1.76l8.1-10a1.25,1.25,0,0,1,1.95,1.58l-8.11,10A1.23,1.23,0,0,1,443,1252.89Z" fill="#878787"/>
            <path d="M451.1,1241.74a1.1,1.1,0,0,1-.35,0L438.11,1238a1.26,1.26,0,0,1-.84-1.56,1.24,1.24,0,0,1,1.55-.84l12.64,3.74a1.25,1.25,0,0,1-.36,2.45Z" fill="#878787"/>
            <path d="M438.47,1238a1.25,1.25,0,0,1-.71-2.29l11.3-7.67a1.25,1.25,0,1,1,1.41,2.06l-11.3,7.68A1.23,1.23,0,0,1,438.47,1238Z" fill="#878787"/>
            <path d="M449.77,1229a1.34,1.34,0,0,1-.4-.07L435,1224a1.25,1.25,0,1,1,.8-2.37l14.39,4.89a1.25,1.25,0,0,1-.4,2.44Z" fill="#878787"/>
            <path d="M435.38,1224.11a1.25,1.25,0,0,1-.37-2.45l15.14-4.61a1.25,1.25,0,1,1,.73,2.39l-15.14,4.61A1.13,1.13,0,0,1,435.38,1224.11Z" fill="#878787"/>
            <path d="M450.52,1218.12a1.19,1.19,0,0,1-.49-.1l-17.74-7.51a1.25,1.25,0,1,1,1-2.3l17.74,7.51a1.24,1.24,0,0,1,.67,1.63A1.25,1.25,0,0,1,450.52,1218.12Z" fill="#878787"/>
            <path d="M452,1211.58h-.06l-19.2-1a1.25,1.25,0,0,1,.13-2.5l19.19,1a1.25,1.25,0,0,1-.06,2.49Z" fill="#878787"/>
            <path d="M440.15,1225.73a3.46,3.46,0,0,1-2.6-1.1c-1.91-2-1.63-6.41-1.38-10.28.07-1.1.14-2.14.14-3,0-5.46,2.17-11,7-11a9,9,0,0,1,9,8.95C452.35,1213.74,445.44,1225.73,440.15,1225.73Zm3.17-22.82c-3.57,0-4.51,5.54-4.51,8.47,0,.91-.07,2-.14,3.14-.19,2.85-.47,7.15.7,8.4a1,1,0,0,0,.78.31c3.24,0,9.7-10,9.7-13.87A6.5,6.5,0,0,0,443.32,1202.91Z" fill="#878787"/>
            <path d="M451.88,1213.57a3,3,0,0,1-2.37-1.25,5,5,0,0,1-1-2.71c-.13-2.33,1.19-4.23,3-4.33s3.34,1.64,3.47,4-1.19,4.22-3,4.33Zm-.17-5.79h0c-.22,0-.71.61-.65,1.68h0a2.41,2.41,0,0,0,.44,1.31c.16.21.31.3.4.29s.71-.62.65-1.69S451.93,1207.78,451.71,1207.78Z" fill="#878787"/>
            <path d="M446.15,1228a1.2,1.2,0,0,1-.45-.09,1.25,1.25,0,0,1-.72-1.61,7.94,7.94,0,0,0,.63-4.58,17.32,17.32,0,0,1-.13-2.48c.1-3.22,4.51-9.3,5-10a1.25,1.25,0,0,1,2,1.48c-1.72,2.34-4.48,6.74-4.53,8.58a13.54,13.54,0,0,0,.12,2.13,10.32,10.32,0,0,1-.78,5.74A1.26,1.26,0,0,1,446.15,1228Z" fill="#878787"/>
            <path d="M431.77,1285.3v-.5c1,0,2,0,3,0v.5C433.76,1285.28,432.76,1285.3,431.77,1285.3Zm-3,0c-1,0-2,0-3-.06l0-.5c1,0,2,0,3,.06Zm9-.11,0-.5,3-.12,0,.5Zm-15-.1-.76,0c-.73,0-1.48-.12-2.24-.2l.05-.5c.76.08,1.5.15,2.23.2l.75,0Zm21-.16,0-.5,3-.18,0,.5Zm6-.38,0-.49,3-.22,0,.5Zm-33-.08c-.95-.14-1.95-.29-3-.47l.09-.49c1,.17,2,.33,3,.46Zm39-.37,0-.5,3-.26,0,.5Zm6-.54,0-.49,3-.29.05.49Zm-50.94-.11c-1-.19-1.95-.4-2.94-.62l.11-.49c1,.22,2,.43,2.93.62Zm56.92-.48-.05-.5,3-.32.06.49Zm6-.66-.05-.5,3-.35.06.5Zm-68.76-.15c-1-.23-1.95-.47-2.93-.72l.12-.48,2.92.72Zm74.74-.57-.07-.5,1.88-.24.08.49Zm-80.58-.92-2.89-.8.14-.48,2.88.8Zm-5.78-1.64-2.88-.86.15-.48,2.87.87Zm-5.75-1.76-2.86-.93.16-.47,2.86.92Zm-5.71-1.88-2.84-1,.16-.47,2.84,1Zm-5.68-2c-1-.36-2-.71-2.83-1l.17-.47,2.83,1Zm-5.65-2.08c-1.8-.68-2.82-1.09-2.82-1.09l.19-.46s1,.41,2.81,1.08Z" fill="#fff" opacity="0.15"/>
            <path d="M368.67,1228.47s.86,6.76,3.63,9.7,3.85,4.14,3.85,4.14-2,7.79-2.8,9.33a17.35,17.35,0,0,1-3.58,4.52,14.76,14.76,0,0,0-2.83,4.09,106.69,106.69,0,0,0,2.06-15C369.11,1240.49,368.67,1228.47,368.67,1228.47Z" stroke="#000" stroke-miterlimit="10" opacity="0.26"/>
          </g></g></g><g class="part hips" transform="rotate(-90)"><g class="offset" transform="translate(0 0) rotate(0 15.164680480957031 -6.405250549316406) scale(1 1)"><g id="hips" transform="translate(-356.5 -673.34) rotate(90.42440541936149 356.5 673.34) scale(1 1)" data-centerX="15.164680480957031" data-centerY="-6.405250549316406">
        <path d="M259.25,596.21c4.11-5.47,21.59-19.68,100.77-15.31S450.51,605,450.51,605s11.29,36.19,4.09,55.87-75,71.68-81.21,73.86-11.31,2.19-16.46,0S248.5,683.83,243.5,667.83c0,0-2.62-34.61,3.73-52C252.89,600.34,257.31,598.79,259.25,596.21Z" fill="#E2B08B" class="color-skin"/>
        <path d="M373.39,734.69c-6.17,2.19-11.31,2.19-16.46,0S248.5,683.83,243.5,667.83c0,0-2.62-34.61,3.73-52,5.66-15.49,10.08-17,12-19.62,4.11-5.47,21.59-19.68,100.77-15.31S450.51,605,450.51,605s11.29,36.19,4.09,55.87" fill="none" stroke="#000" stroke-miterlimit="10"/>
      </g></g></g><g class="part bottom-hips" transform="rotate(-90)"><g class="offset" transform="translate(0 0) rotate(0 14.4803466796875 -4.598182678222656) scale(1 1)"><g id="bottom-hips-pants2" transform="translate(-356.5 -673.34) rotate(90.42440541936149 356.5 673.34) scale(1 1)" data-centerX="14.4803466796875" data-centerY="-4.598182678222656">
            <path d="M256.24,593c4.33-5.81,22.74-20.92,106.13-16.27s95.29,25.57,95.29,25.57,11.89,38.48,4.31,59.4-79,76.19-85.53,78.51-11.91,2.33-17.32,0-114.2-54.06-119.46-71.07c0,0-2.77-36.8,3.93-55.28C249.55,597.37,254.2,595.72,256.24,593Z" fill="#727267" class="color-bottom"/>
            <path d="M376.44,740.19c-6.49,2.33-11.91,2.33-17.32,0s-114.2-54.06-119.46-71.07c0,0-2.77-36.8,3.93-55.28,6-16.47,10.61-18.12,12.65-20.86,4.33-5.81,22.74-20.92,106.13-16.27s95.29,25.57,95.29,25.57,11.89,38.48,4.31,59.4" fill="none" stroke="#000" stroke-miterlimit="10"/>
            <path d="M370.57,739.34l-.93-.36c.09-.24,9-23.73,9-38.88s-4-59.12-4-59.56l1-.09c0,.44,4,44.39,4,59.65S370.66,739.1,370.57,739.34Z" opacity="0.6"/>
            <path d="M376.48,719.5l-.28-1c.16,0,15.71-4.53,18.59-9.44,2.32-4-.34-46.58-2.07-68.57l1-.08c.21,2.61,5,63.94,1.94,69.15S377.13,719.31,376.48,719.5Z" opacity="0.6"/>
            <path d="M277.67,674.91a78,78,0,0,1-27.33-5.18l.39-.92a76.92,76.92,0,0,0,26.94,5.1c10.9,0,20.23-5.46,25.25-8.4,2.23-1.3,3.24-1.88,3.88-1.88v1a16.27,16.27,0,0,0-3.38,1.74C298.33,669.36,288.84,674.91,277.67,674.91Z" opacity="0.6"/>
            <path d="M385.18,653.32a6.67,6.67,0,1,1,6.52-6.66A6.61,6.61,0,0,1,385.18,653.32Zm0-12.33a5.67,5.67,0,1,0,5.52,5.67A5.6,5.6,0,0,0,385.18,641Z" opacity="0.6"/>
          </g></g></g><g class="part right-thigh" transform="translate(-43.77657699584961, -30.32509422302246) rotate(90)"><g class="offset" transform="translate(0 0) rotate(0 144.8478546142578 -3.0666732788085938) scale(1 1)"><path id="right-thigh" d="M354.73,589.06c17.63,11,27.6,35.53,24.27,64.55C373.14,704.67,362.54,729,362.54,729c-1.06,19.21-13.69,98.21-13.69,98.21s-23.44,133.87-28.79,144.12c-5,9.61-7.09,28.33-37.26,28.33-33.42,0-36.09-27.26-38.22-33.67-3.25-9.78-17.19-113.18-18.09-126s-.19-60.6-2-86.19,7.32-73.21,19-86c0,0-2.93-38.77,6-57C267.72,573.66,317.89,566,354.73,589.06Z" fill="#E2B08B" stroke="#000" stroke-miterlimit="10" transform="translate(-312.5 -643.34) rotate(-95.38931175997342 312.5 643.34) scale(1 1)" data-centerX="144.8478546142578" data-centerY="-3.0666732788085938" class="color-skin"/></g></g><g class="part bottom-right-thigh" transform="translate(-43.77657699584961, -30.32509422302246) rotate(90)"><g class="offset" transform="translate(0 0) rotate(0 147.80313873291016 -1.9437637329101562) scale(1 1)"><g id="bottom-right-thigh-pants2" transform="translate(-312.5 -643.34) rotate(-95.38931175997342 312.5 643.34) scale(1 1)" data-centerX="147.80313873291016" data-centerY="-1.9437637329101562">
            <path d="M354.73,589.06c17.63,11,27.6,35.53,24.27,64.55C373.14,704.67,365.54,729,365.54,729c-1.06,19.21-14.22,99.17-14.22,99.17S333.85,965.58,328.5,975.83c-5,9.61-16.53,29.83-46.7,29.83-33.42,0-43.09-33.26-45.22-39.67-3.25-9.78-12.19-113.18-13.09-126s-2.2-63.62-2-86.19c.24-25.64,9.32-75.21,21-88,0,0-2.93-37.77,6-56C266.72,572.66,317.89,566,354.73,589.06Z" fill="#727267" stroke="#000" stroke-miterlimit="10" class="color-bottom"/>
            <path d="M256.71,649.33c-19,19.33-25,76.36,6,97,35.29,23.51,82.37,2.14,95-21C370,702.84,355,672.84,324,650.84,306.45,638.38,270,635.84,256.71,649.33Z" fill="#727267" class="color-bottom"/>
            <path d="M246.49,985.05c-1-6-6.49-51.33-6.49-63.22,0-4.63-.76-22.07-1.73-44.16-1.94-44.53-4.61-105.52-3.26-112.93.8-4.43,2.86-13.22,5.25-23.4,3.54-15.11,7.55-32.22,8.74-40.58.95-6.6.32-14.3-.28-21.75-.67-8.22-1.3-16,.3-21.32l1,.29c-1.55,5.15-.92,12.82-.26,20.95.6,7.5,1.23,15.26.28,22-1.2,8.4-5.22,25.54-8.77,40.67-2.38,10.16-4.44,18.94-5.24,23.35-1.32,7.3,1.34,68.22,3.28,112.71,1,22.09,1.73,39.55,1.73,44.2,0,11.85,5.53,57.1,6.47,63.06Z" fill="#fff" opacity="0.16"/>
            <path d="M254.1,994.27c-.09-.55-.23-1.57-.42-3l1-.13c.19,1.39.33,2.41.41,3Z" fill="#fff" opacity="0.16"/>
            <path d="M252.93,985.34c-.22-1.8-.46-3.8-.72-6l1-.12c.25,2.16.49,4.16.72,6Zm-1.42-11.92q-.33-2.89-.68-6l1-.11c.23,2,.45,4,.68,6Zm-1.34-11.92c-.22-2-.43-4-.64-6l1-.11q.31,3,.65,6Zm-1.26-11.93c-.21-2-.4-4-.59-6l1-.1c.18,1.93.38,3.93.59,6Zm-1.13-12c-.19-2.17-.34-4.19-.47-6l1-.07c.12,1.8.28,3.81.47,6Zm-.77-12c0-.28,0-.53,0-.78,0-1,0-2.75-.12-5.23l1,0c.08,2.49.12,4.21.12,5.26,0,.24,0,.49,0,.76Zm-.34-12c-.07-1.83-.15-3.84-.24-6l1,0c.09,2.16.17,4.17.24,6Zm-.49-12-.26-6,1,0,.26,6Zm-.52-12-.26-6,1,0,.26,6Zm-.52-12-.26-6,1,0,.26,6Zm-.52-12-.26-6,1-.05.26,6Zm-.52-12-.25-6,1,0,.25,6Zm-.5-12-.24-6,1,0,.24,6Zm-.48-12-.23-6,1,0,.23,6Zm-.45-12c-.08-2-.15-4-.22-6l1,0q.11,3,.21,6Zm-.42-12q-.1-3.09-.18-6l1,0q.08,2.91.18,6Zm-.35-12q-.08-3.15-.14-6l1,0q.06,2.86.14,6Zm-.23-12c0-1.59,0-3.07,0-4.43v-1.57h1v1.57c0,1.36,0,2.84,0,4.42Zm1.14-12-1-.06a16.33,16.33,0,0,1,.2-1.83c.2-1.11.49-2.52.84-4.15l1,.21c-.34,1.62-.63,3-.83,4.12Q242.89,768.52,242.81,769.63Zm2.32-11.69-1-.22c.42-1.82.87-3.79,1.35-5.85l1,.23C246,754.16,245.54,756.12,245.13,757.94Zm2.71-11.68-1-.23,1.37-5.84,1,.23Zm2.73-11.69-1-.23c.46-2,.91-3.91,1.35-5.84l1,.22Zm2.67-11.7-1-.22c.45-2,.88-4,1.28-5.86l1,.21C254.12,718.88,253.69,720.85,253.24,722.87Zm2.49-11.75-1-.2c.45-2.28.8-4.26,1.06-5.89l1,.16C256.54,706.83,256.18,708.82,255.73,711.12Zm1.69-11.94-1,0c.05-1,.07-2,.07-3.08s0-1.9-.05-2.87l1,0c0,1,.05,1.94.05,2.9S257.46,698.19,257.42,699.18Zm-1.3-12c-.12-1.76-.26-3.52-.4-5.25l-.06-.72,1-.08.06.72c.14,1.74.29,3.5.41,5.26Zm-.9-12c-.14-2.21-.2-4.1-.2-5.75v-.27h1v.26c0,1.63.06,3.5.19,5.69Z" fill="#fff" opacity="0.16"/>
            <path d="M256.37,663.83l-1-.14a20,20,0,0,1,.64-3l1,.29A19.21,19.21,0,0,0,256.37,663.83Z" fill="#fff" opacity="0.16"/>
          </g></g></g><g class="part right-lowerleg" transform="translate(-43.77657699584961, 289.08685302734375) rotate(90)"><g class="offset" transform="translate(0 0) rotate(0 150.7906093597412 -0.548095703125) scale(1 1)"><g id="right-lowerleg" transform="translate(-282.5 -961.34) rotate(-91.89026371515988 282.5 961.34) scale(1 1)" data-centerX="150.7906093597412" data-centerY="-0.548095703125">
        <path d="M308.16,950.05c13.5,14.57,6.48,15.55,9.84,24.48,1.43,3.84,7.09,23.47,7.81,32,.63,7.45-.15,36.3-3.86,45.91-1.05,2.72-6.49,18.29-9.67,45.9C305,1161.76,300,1261.52,298.77,1266c-.71,2.56-5.84,16.08-25.53,17-19.89.89-25.77-13.42-26.53-15.89-1.92-6.17-6.24-107.6-8.85-168.68-1-23.47-5-36.3-7.11-48-2.59-14.28,3.76-48.3,6.38-57.65,2.47-8.79,5.06-13.09,9.92-20.54a30.28,30.28,0,0,1,8.56-20.95C270.14,936,298.74,939.87,308.16,950.05Z" fill="#E2B08B" stroke="#000" stroke-miterlimit="10" class="color-skin"/>
        <path d="M283.35,1006.71s15.14-15.15,18.24-22.68,2.09-23.75,2.09-23.75S293.29,971,289.1,972.78s-9,4.17-9,4.17,1.86,3.39,3.05,10.62S283.35,1006.71,283.35,1006.71Z" opacity="0.25"/>
      </g></g></g><g class="part patch-right-knee" transform="translate(-43.77657699584961, -30.32509422302246) rotate(90)"><g class="offset" transform="translate(0 0) rotate(0 301.0659942626953 1.1962051391601562) scale(1 1)"><path id="patch-right-knee" d="M316.39,935.64a41.16,41.16,0,0,1,4.48,16.58c0,.25,0,.48,0,.94.29,8.89.43,13.34-1,14.31-2.19,1.52-6.49-4.12-13.7-7.86-12.46-6.46-28.44-4.59-39.1,0-10.91,4.71-13.67,11.16-17.66,9.43-5.57-2.4-5.55-17.26-1.66-27.95a38.54,38.54,0,0,1,12.07-16.86c14.72-11.43,32.4-6.74,33.74-6.36C304.63,921,312.68,928.66,316.39,935.64Z" fill="#E2B08B" transform="translate(-312.5 -643.34) rotate(-95.38931175997342 312.5 643.34) scale(1 1)" data-centerX="301.0659942626953" data-centerY="1.1962051391601562" class="color-skin"/></g></g><g class="part right-foot" transform="translate(-43.77657699584961, 592.2518310546875) rotate(90)"><g class="offset" transform="translate(0 0) rotate(0 22.9102840423584 -3.907073974609375) scale(1 1)"><g id="right-foot" transform="translate(-272.5 -1264.34) rotate(-90.97102193107916 272.5 1264.34) scale(1 1)" data-centerX="22.9102840423584" data-centerY="-3.907073974609375">
        <path d="M246.71,1267.05s-10.64,38.43-12.77,41.63a58,58,0,0,0-4.26,8.54,13.94,13.94,0,0,0-1.06,8.54c1.06,4.27,1.06,5.34,4.25,6.41s8.52,0,8.52,0a9.85,9.85,0,0,0,6.49,2.16c4.15,0,9.47-2.16,9.47-2.16a14.69,14.69,0,0,0,7.44,2.13c4.26,0,9.58-2.13,9.58-2.13s5.15,2.24,9.58,2.13a23,23,0,0,0,8.51-2.13h3.19a42.46,42.46,0,0,0,13.83,2.13c5.14-.07,9.76-.14,12.25-3.36,1.74-2.24,1.86-5.25,1.93-6.81a16.87,16.87,0,0,0-1.07-6.46,43.81,43.81,0,0,0-6.72-12.19l-17-39.5s2.08-26.51-27.6-25.67c-4,.12-11.76.48-17.9,6.52C245.48,1254.56,246.53,1265.47,246.71,1267.05Z" fill="#E2B08B" stroke="#000" stroke-miterlimit="10" class="color-skin"/>
        <path d="M295.65,1332.17a16.44,16.44,0,0,1-2.13-8.54c0-5.34,4.26-10.68,4.26-10.68" fill="none" stroke="#000" stroke-miterlimit="10"/>
        <path d="M290.33,1320.43a7,7,0,0,1,3.19,5.33,38,38,0,0,1-1.06,6.41" fill="none" stroke="#000" stroke-miterlimit="10"/>
        <path d="M275.44,1320.43s-3.2,3.2-3.2,6.4a8.19,8.19,0,0,0,2.13,5.34" fill="none" stroke="#000" stroke-miterlimit="10"/>
        <path d="M241.39,1320.43s-3.2,3.2-3.2,6.4,3.2,5.34,3.2,5.34" fill="none" stroke="#000" stroke-miterlimit="10"/>
        <path d="M257.35,1321s-2.13,4.22-2.13,6.11,2.13,5.1,2.13,5.1" fill="none" stroke="#000" stroke-miterlimit="10"/>
        <path d="M256.81,1291.6c2.62-.39,5.24-.59,7.85-.74s5.22-.2,7.83-.26,5.22-.32,7.83-.35a71.74,71.74,0,0,1,7.88.28,69.31,69.31,0,0,1-7.79,1.34c-2.61.31-5.23.55-7.85.7s-5.25-.07-7.88-.22S259.43,1292,256.81,1291.6Z" opacity="0.4"/>
        <path d="M246.17,1310.82c4.57,0,9.12.11,13.68.21s9.11.27,13.66.5h-.05c4.05-.33,8.1-.69,12.15-1s8.11-.58,12.17-.81q-6.06.72-12.12,1.32c-4,.43-8.09.79-12.13,1.17h0c-4.55-.13-9.1-.38-13.66-.57S250.72,1311.17,246.17,1310.82Z" opacity="0.4"/>
      </g></g></g><g class="part patch-right-ankle" transform="translate(-43.77657699584961, 289.08685302734375) rotate(90)"><g class="offset" transform="translate(0 0) rotate(0 295.53773498535156 0.21167945861816406) scale(1 1)"><ellipse id="patch-right-ankle" cx="272.54" cy="1256.71" rx="26.31" ry="23.52" fill="#E2B08B" transform="translate(-282.5 -961.34) rotate(-91.89026371515988 282.5 961.34) scale(1 1)" data-centerX="295.53773498535156" data-centerY="0.21167945861816406" class="color-skin"/></g></g><g class="part sock-right-lowerleg" transform="translate(-43.77657699584961, 289.08685302734375) rotate(90)"/><g class="part sock-right-foot" transform="translate(-43.77657699584961, 592.2518310546875) rotate(90)"/><g class="part sock-patch-right-ankle" transform="translate(-43.77657699584961, 289.08685302734375) rotate(90)"/><g class="part bottom-right-lowerleg" transform="translate(-43.77657699584961, 289.08685302734375) rotate(90)"/><g class="part bottom-boot-right-lowerleg" transform="translate(-43.77657699584961, 289.08685302734375) rotate(90)"><g class="offset" transform="translate(0 0) rotate(0 140.7979507446289 -1.1649665832519531) scale(1 1)"><g id="bottom-boot-right-lowerleg-pants2" transform="translate(-282.5 -961.34) rotate(-91.89026371515988 282.5 961.34) scale(1 1)" data-centerX="140.7979507446289" data-centerY="-1.1649665832519531">
            <path id="_Path_31" d="M241.4,958.4c-5,5.51-4.41,8.1-7.9,15.43-5,10.51-6,58.51-4,74.5,1.45,11.85,4,26,5,49.5,2.62,61.08,3.87,164.33,5.79,170.5.76,2.47,9.79,4.33,12.21,4.5,6.07.44,14.07.69,19.72.69,4.77,0,14-.44,20.75-1,5.53-.5,13.82-1.74,14.53-4.3,1.23-4.46,14-141.83,15-164.34.78-17.5,3.48-53.13,4-56,2.84-15.63,3.05-34.8,3-42.27,0-9.22-1-24.22-3-28.73-3.87-8.72-11-46.07-41.79-46.2S241.4,958.4,241.4,958.4Z" fill="#727267" stroke="#000" stroke-miterlimit="10" class="color-bottom"/>
            <path d="M240.93,1263.34h-1c0-1.62,1.07-162.72,1.07-181.5,0-10.37-1.51-24.22-2.85-36.43-1.11-10.11-2.15-19.65-2.15-25.57,0-10.58,4-52.52,7.64-62l.94.36c-3.55,9.15-7.58,51.36-7.58,61.61,0,5.86,1,15.38,2.14,25.46,1.34,12.24,2.86,26.12,2.86,36.54C242,1100.62,240.94,1261.71,240.93,1263.34Z" fill="#fff" opacity="0.16"/>
            <rect x="245.94" y="1264.34" width="3" height="1" transform="translate(-1018.83 1504.86) rotate(-89.66)" fill="#fff" opacity="0.16"/>
            <path d="M248,1257.4h-1l0-6h1Zm.07-11.94h-1l0-6h1Zm.08-11.92h-1l0-6h1Zm.08-11.92h-1l0-6h1Zm.07-11.92h-1l0-6h1Zm.08-11.91h-1l0-6h1Zm.07-11.92h-1l0-5.95h1Zm.08-11.9h-1l0-6h1Zm.07-11.92h-1l0-6h1Zm.07-11.91h-1l0-6h1Zm.07-11.91h-1l0-6h1Zm.07-11.92h-1l0-6h1Zm.07-11.92h-1l0-6h1Zm.06-11.93h-1l0-6h1Zm.06-11.93h-1c0-2.48,0-4.41,0-5.69v-.27h1v.28C249,1086.11,249,1088,249,1090.53Zm-1.14-11.91c-.08-1.82-.2-3.82-.35-5.92l1-.07c.15,2.11.27,4.11.35,5.95Zm-.82-11.85c-.17-2-.36-3.93-.56-5.92l1-.1q.28,3,.56,5.93Zm-1.17-11.84c-.21-2-.43-4-.64-5.91l1-.11c.21,1.95.43,3.92.64,5.92Zm-1.29-11.83c-.22-2-.42-4-.61-5.93l1-.1c.19,1.9.4,3.88.62,5.92Zm-1.15-11.87c-.19-2.31-.31-4.26-.37-6l1,0c.06,1.68.18,3.62.36,5.92Zm.67-11.92-1,0c.06-1.7.17-3.72.31-6l1,.07C244.26,1015.62,244.15,1017.62,244.09,1019.31Zm.7-11.87-1-.07c.13-1.91.29-3.9.45-6l1,.08C245.08,1003.55,244.93,1005.54,244.79,1007.44Zm1-11.87-1-.08c.17-2,.35-4,.54-5.94l1,.09C246.1,991.62,245.92,993.61,245.75,995.57Zm1.12-11.85-1-.1c.21-2,.42-4,.64-5.93l1,.11C247.29,979.72,247.07,981.7,246.87,983.72Zm1.33-11.82-1-.13c.27-2.16.54-4.15.8-5.91l1,.15C248.74,967.76,248.47,969.74,248.2,971.9Z" fill="#fff" opacity="0.16"/>
            <path d="M249.91,960.66l-1-.2a27.7,27.7,0,0,1,.75-3l.95.33A25.75,25.75,0,0,0,249.91,960.66Z" fill="#fff" opacity="0.16"/>
            <path d="M282.92,1006.71s15.14-15.15,18.24-22.68,2.09-23.75,2.09-23.75-10.39,10.72-14.58,12.5-9,4.17-9,4.17,1.86,3.39,3.05,10.62S282.92,1006.71,282.92,1006.71Z" opacity="0.25"/>
          </g></g></g><g class="part bottom-patch-right-knee" transform="translate(-43.77657699584961, -30.32509422302246) rotate(90)"><g class="offset" transform="translate(0 0) rotate(0 300.8711700439453 1.0394515991210938) scale(1 1)"><path id="bottom-patch-right-knee" d="M319.71,929.61a35.34,35.34,0,0,1,4.49,7.49c1.29,2.93,2.6,7,3.05,14.12.68,10.52,1.22,19-2.49,20.85-4.46,2.22-8.38-8.51-23.21-13.1-13.07-4.05-26.23-.73-29.23.23-.89.28-1.85.62-1.85.62-15.53,5.47-18.07,11.88-22.44,11.25-6.2-.88-11.27-15.22-8.65-27.57,2.86-13.51,14.14-21,17.18-23,17.72-11.47,37.82-6.17,40.25-5.49C300.63,916.12,311.77,919.4,319.71,929.61Z" fill="#727267" transform="translate(-312.5 -643.34) rotate(-95.38931175997342 312.5 643.34) scale(1 1)" data-centerX="300.8711700439453" data-centerY="1.0394515991210938" class="color-bottom"/></g></g><g class="part bottom-right-knee" transform="translate(-43.77657699584961, -30.32509422302246) rotate(90)"/><g class="part shoe-right-foot" transform="translate(-43.77657699584961, 592.2518310546875) rotate(90)"><g class="offset" transform="translate(0 0) rotate(0 40.80843734741211 -4.2771759033203125) scale(1 1)"><g id="shoe-right-foot4" transform="translate(-272.5 -1264.34) rotate(-90.97102193107916 272.5 1264.34) scale(1 1)" data-centerX="40.80843734741211" data-centerY="-4.2771759033203125">
            <path d="M223.12,1335.31s-2.79-30.83,4.23-38.34c1.53-1.63,5.27-3.63,9.6-7.63,4.17-3.84,6.42-35.35,36.89-35.35,32.13,0,34.18,33.32,41.52,37.41,4.43,2.48,8,4.48,9.78,6.49,8.3,9.61,4.36,37.42,4.36,37.42s-29.2,7.17-52.86,7.17S223.12,1335.31,223.12,1335.31Z" fill="#6f4c35" stroke="#000" stroke-miterlimit="10" class="color-shoe"/>
            <path d="M220.93,1333.17s34.29,6.69,54.51,7.3c18.55.55,55.8-7.18,55.8-7.18l-.81,14.74s-4.91,1.2-12.12,2.69c-.58.12-1.17-4-1.77-3.9-.88.18-1.78,4.62-2.71,4.8-4.88,1-10.43,2-16,2.82-.71.1-1.43-4.09-2.14-4-.55.08-1.1,4.46-1.66,4.53a156.8,156.8,0,0,1-15.92,1.47c-.9,0-1.78-3.61-2.63-3.61s-1.92,3.64-2.91,3.6a136.23,136.23,0,0,1-15.72-1.6c-.53-.08-1.06-4.31-1.59-4.39-1.07-.18-2.13,3.78-3.19,3.59-4.93-.87-9.69-1.89-13.9-2.87-.93-.21-2.11-4.44-3-4.65-1.29-.31-2.22,3.4-3.35,3.11-5.61-1.43-10.23-2.51-10.23-2.51Z" stroke="#000" stroke-miterlimit="10"/>
            <path d="M286.12,1304s16.54-2.76,21.6-4.21,6.67-3.21,6.67-3.21.94,3.17-2.79,6S286.12,1304,286.12,1304Z" fill="#fff" opacity="0.26"/>
            <path d="M272.31,1343.53c-.51,0-1,0-1.56,0l0-.75c.57,0,1.09,0,1.53,0l2.45,0v.75l-2.37,0Zm6.48-.13,0-.75c1.33-.05,2.66-.12,4-.19l.05.75C281.46,1343.28,280.12,1343.35,278.79,1343.4Zm-12.05-.22c-1.24-.12-2.58-.26-4-.43l.09-.75c1.42.17,2.75.32,4,.43Zm20.06-.22-.05-.75c1.33-.09,2.66-.2,4-.31l.06.75Zm8-.67-.08-.75,4-.41.08.75Zm-36,0-4-.54.11-.74,4,.53Zm44-.83-.09-.75c1.35-.16,2.68-.32,4-.49l.09.74C305.44,1341.09,304.11,1341.26,302.76,1341.42Zm-51.95-.28-4-.59.11-.74,4,.59Zm59.9-.76-.11-.74,4-.57.11.74Zm-67.83-.43-4-.63.12-.74,4,.63Zm75.75-.75-.11-.74,3.94-.65.13.74Zm-83.67-.51-4-.65.12-.74,4,.65Zm91.58-.83-.13-.74c1.89-.34,3-.55,3-.55l.14.73S328.45,1337.51,326.54,1337.86Zm-99.49-.48-4-.68.12-.74,4,.68Z" fill="#fff" opacity="0.5"/>
          </g></g></g><g class="part shoe-right-lowerleg" transform="translate(-43.77657699584961, 289.08685302734375) rotate(90)"><g class="offset" transform="translate(0 0) rotate(0 281.074462890625 -1.4893379211425781) scale(1 1)"><g id="shoe-right-lowerleg4" transform="translate(-282.5 -961.34) rotate(-91.89026371515988 282.5 961.34) scale(1 1)" data-centerX="281.074462890625" data-centerY="-1.4893379211425781">
            <path d="M239.79,1199.33s18.71-7.23,35-7.23c16.49,0,31.68,7.23,31.68,7.23S296.91,1265.6,299,1275a30.24,30.24,0,0,0,9,15.25s-27.31-2.38-32.56-2.29-31.16,2.22-31.16,2.22,5.95-7.41,6.55-14.27S239.79,1199.33,239.79,1199.33Z" fill="#6f4c35" stroke="#000" stroke-miterlimit="10" class="color-shoe"/>
            <path d="M253.6,1291.4s14.64,1.56,21.84,1,18.55-2.13,18.55-2.13l-3.66-2.93,7.45-2.25-7.45-1.12,1.6-3.71s-3-2.66-3.73-5.08-3.52-20.54-15.13-18.44-17.12,10.62-16.79,15.43a60.88,60.88,0,0,0,1.22,8.59l-5.72,1.11,10,2.1-13.31,3.37h9.05Z" stroke="#000" stroke-miterlimit="10" opacity="0.26"/>
            <path d="M228.32,1199.33s12.35-5.24,17.85-4,10.37,74.09,9.05,79.69.35,10-3.14,12.32-20.28,2.86-20.28,2.86,5.21-11.41,6.39-15.18-9.14-44-9.87-54.44A177.85,177.85,0,0,1,228.32,1199.33Z" fill="#6f4c35" stroke="#000" stroke-miterlimit="10" class="color-shoe"/>
            <path d="M321.11,1199.33s-12.35-5.24-17.85-4-10.37,74.09-9.05,79.69.08,10,3.57,12.32,19.62,2.86,19.62,2.86-5-11.41-6.16-15.18,9.14-44,9.87-54.44A175.45,175.45,0,0,0,321.11,1199.33Z" fill="#6f4c35" stroke="#000" stroke-miterlimit="10" class="color-shoe"/>
            <ellipse cx="244.16" cy="1209.42" rx="1.42" ry="2.85"/>
            <path d="M244.16,1212.77c-1.09,0-1.92-1.44-1.92-3.35s.83-3.34,1.92-3.34,1.93,1.44,1.93,3.34S245.26,1212.77,244.16,1212.77Zm0-5.69c-.36,0-.92.93-.92,2.34s.56,2.35.92,2.35.93-.94.93-2.35S244.53,1207.08,244.16,1207.08Z" fill="#aaa"/>
            <ellipse cx="305.16" cy="1209.42" rx="1.42" ry="2.85"/>
            <path d="M305.16,1212.77c-1.09,0-1.92-1.44-1.92-3.35s.83-3.34,1.92-3.34,1.93,1.44,1.93,3.34S306.26,1212.77,305.16,1212.77Zm0-5.69c-.36,0-.92.93-.92,2.34s.56,2.35.92,2.35.93-.94.93-2.35S305.53,1207.08,305.16,1207.08Z" fill="#aaa"/>
            <ellipse cx="245.16" cy="1222.42" rx="1.42" ry="2.85"/>
            <path d="M245.16,1225.77c-1.09,0-1.92-1.44-1.92-3.35s.83-3.34,1.92-3.34,1.93,1.44,1.93,3.34S246.26,1225.77,245.16,1225.77Zm0-5.69c-.36,0-.92.93-.92,2.34s.56,2.35.92,2.35.93-.94.93-2.35S245.53,1220.08,245.16,1220.08Z" fill="#aaa"/>
            <ellipse cx="304.16" cy="1222.42" rx="1.42" ry="2.85"/>
            <path d="M304.16,1225.77c-1.09,0-1.92-1.44-1.92-3.35s.83-3.34,1.92-3.34,1.93,1.44,1.93,3.34S305.26,1225.77,304.16,1225.77Zm0-5.69c-.36,0-.92.93-.92,2.34s.56,2.35.92,2.35.93-.94.93-2.35S304.53,1220.08,304.16,1220.08Z" fill="#aaa"/>
            <ellipse cx="246.16" cy="1237.42" rx="1.42" ry="2.85"/>
            <path d="M246.16,1240.77c-1.09,0-1.92-1.44-1.92-3.35s.83-3.34,1.92-3.34,1.93,1.44,1.93,3.34S247.26,1240.77,246.16,1240.77Zm0-5.69c-.36,0-.92.93-.92,2.34s.56,2.35.92,2.35.93-.94.93-2.35S246.53,1235.08,246.16,1235.08Z" fill="#aaa"/>
            <ellipse cx="303.16" cy="1237.42" rx="1.42" ry="2.85"/>
            <path d="M303.16,1240.77c-1.09,0-1.92-1.44-1.92-3.35s.83-3.34,1.92-3.34,1.93,1.44,1.93,3.34S304.26,1240.77,303.16,1240.77Zm0-5.69c-.36,0-.92.93-.92,2.34s.56,2.35.92,2.35.93-.94.93-2.35S303.53,1235.08,303.16,1235.08Z" fill="#aaa"/>
            <ellipse cx="247.16" cy="1250.42" rx="1.42" ry="2.85"/>
            <path d="M247.16,1253.77c-1.09,0-1.92-1.44-1.92-3.35s.83-3.34,1.92-3.34,1.93,1.44,1.93,3.34S248.26,1253.77,247.16,1253.77Zm0-5.69c-.36,0-.92.93-.92,2.34s.56,2.35.92,2.35.93-.94.93-2.35S247.53,1248.08,247.16,1248.08Z" fill="#aaa"/>
            <ellipse cx="302.16" cy="1250.42" rx="1.42" ry="2.85"/>
            <path d="M302.16,1253.77c-1.09,0-1.92-1.44-1.92-3.35s.83-3.34,1.92-3.34,1.93,1.44,1.93,3.34S303.26,1253.77,302.16,1253.77Zm0-5.69c-.36,0-.92.93-.92,2.34s.56,2.35.92,2.35.93-.94.93-2.35S302.53,1248.08,302.16,1248.08Z" fill="#aaa"/>
            <ellipse cx="248.16" cy="1264.42" rx="1.42" ry="2.85"/>
            <path d="M248.16,1267.77c-1.09,0-1.92-1.44-1.92-3.35s.83-3.34,1.92-3.34,1.93,1.44,1.93,3.34S249.26,1267.77,248.16,1267.77Zm0-5.69c-.36,0-.92.93-.92,2.34s.56,2.35.92,2.35.93-.94.93-2.35S248.53,1262.08,248.16,1262.08Z" fill="#aaa"/>
            <ellipse cx="301.16" cy="1264.42" rx="1.42" ry="2.85"/>
            <path d="M301.16,1267.77c-1.09,0-1.92-1.44-1.92-3.35s.83-3.34,1.92-3.34,1.93,1.44,1.93,3.34S302.26,1267.77,301.16,1267.77Zm0-5.69c-.36,0-.92.93-.92,2.34s.56,2.35.92,2.35.93-.94.93-2.35S301.53,1262.08,301.16,1262.08Z" fill="#aaa"/>
            <ellipse cx="248.16" cy="1277.42" rx="1.42" ry="2.85"/>
            <path d="M248.16,1280.77c-1.09,0-1.92-1.44-1.92-3.35s.83-3.34,1.92-3.34,1.93,1.44,1.93,3.34S249.26,1280.77,248.16,1280.77Zm0-5.69c-.36,0-.92.93-.92,2.34s.56,2.35.92,2.35.93-.94.93-2.35S248.53,1275.08,248.16,1275.08Z" fill="#aaa"/>
            <ellipse cx="301.16" cy="1277.42" rx="1.42" ry="2.85"/>
            <path d="M301.16,1280.77c-1.09,0-1.92-1.44-1.92-3.35s.83-3.34,1.92-3.34,1.93,1.44,1.93,3.34S302.26,1280.77,301.16,1280.77Zm0-5.69c-.36,0-.92.93-.92,2.34s.56,2.35.92,2.35.93-.94.93-2.35S301.53,1275.08,301.16,1275.08Z" fill="#aaa"/>
            <path d="M271.18,1279.36c-6.22,0-22.29-.66-23.07-.69a1.25,1.25,0,0,1,.11-2.5c.21,0,21.6.89,24.76.65s27.15-.63,28.16-.65h0a1.25,1.25,0,0,1,0,2.5c-.25,0-24.84.41-28,.64C272.75,1279.34,272.06,1279.36,271.18,1279.36Z" fill="#878787"/>
            <path d="M248.59,1277.75a1.25,1.25,0,0,1-.26-2.47l52.15-11a1.25,1.25,0,0,1,1.48,1,1.24,1.24,0,0,1-1,1.48l-52.16,11Z" fill="#878787"/>
            <path d="M300.74,1264.63a1,1,0,0,1-.29,0l-53.58-12.95a1.25,1.25,0,1,1,.59-2.43l53.58,13a1.25,1.25,0,0,1-.3,2.46Z" fill="#878787"/>
            <path d="M247.59,1251.67a1.25,1.25,0,0,1-.29-2.46l55-13a1.25,1.25,0,0,1,.57,2.43l-55,13A1.33,1.33,0,0,1,247.59,1251.67Z" fill="#878787"/>
            <path d="M303.17,1238.67a1.17,1.17,0,0,1-.32,0l-58-15a1.25,1.25,0,0,1-.9-1.52,1.26,1.26,0,0,1,1.53-.9l58,15a1.25,1.25,0,0,1-.31,2.46Z" fill="#878787"/>
            <path d="M245.16,1223.67a1.25,1.25,0,0,1-.25-2.47l60-12.49a1.25,1.25,0,1,1,.51,2.44l-60,12.5Z" fill="#878787"/>
            <path d="M300.74,1277.75l-.27,0-52.58-11.66a1.25,1.25,0,0,1-.95-1.49,1.27,1.27,0,0,1,1.5-1L301,1275.28a1.25,1.25,0,0,1-.27,2.47Z" fill="#878787"/>
            <path d="M248.16,1265.67a1.25,1.25,0,0,1-.31-2.46l54-14a1.25,1.25,0,0,1,1.52.9,1.23,1.23,0,0,1-.89,1.52l-54,14A1.17,1.17,0,0,1,248.16,1265.67Z" fill="#878787"/>
            <path d="M302.17,1251.67a1.43,1.43,0,0,1-.29,0l-56-13a1.25,1.25,0,0,1,.57-2.43l56,13a1.25,1.25,0,0,1-.28,2.46Z" fill="#878787"/>
            <path d="M246.16,1238.67a1.25,1.25,0,0,1-.31-2.46l58-15a1.25,1.25,0,0,1,1.52.9,1.23,1.23,0,0,1-.89,1.52l-58,15A1.17,1.17,0,0,1,246.16,1238.67Z" fill="#878787"/>
            <path d="M244.28,1210.25a1.25,1.25,0,0,1-.08-2.5c1-.06,24.92-1.6,30.52-1.6s29.51,1.47,30.52,1.53a1.25,1.25,0,0,1,1.17,1.33,1.28,1.28,0,0,1-1.32,1.17c-.25,0-24.84-1.53-30.37-1.53s-30.11,1.58-30.36,1.6Z" fill="#878787"/>
            <path d="M303.74,1223.18l-.26,0-59.57-12.5a1.25,1.25,0,1,1,.51-2.45L304,1220.71a1.25,1.25,0,0,1-.26,2.47Z" fill="#878787"/>
            <path d="M257.5,1229c-6.72,0-6.72-6.52-6.72-12.82,0-6.86,5.64-15.57,12-15.57,6.06,0,11,5.81,11,13S263.77,1229,257.5,1229Zm5.25-25.89c-4.42,0-9.47,7-9.47,13.07,0,7.33.38,10.32,4.22,10.32,4.54,0,13.75-7.12,13.75-12.93S267.44,1203.11,262.75,1203.11Z" fill="#878787"/>
            <path d="M289.16,1226.52c-6,0-13.18-8.67-13.18-16s2.88-10.88,8.8-10.88c6.18,0,11.48,8.81,11.48,16C296.26,1221.25,296.26,1226.52,289.16,1226.52Zm-4.38-24.37c-3.78,0-6.3,1.42-6.3,8.38,0,5.8,6.09,13.49,10.68,13.49,3.87,0,4.6-1.33,4.6-8.34S288.7,1202.15,284.78,1202.15Z" fill="#878787"/>
            <ellipse cx="275.16" cy="1209" rx="6.59" ry="6.07" fill="#878787"/>
            <path d="M278.07,1205.84a7.07,7.07,0,0,1,.08,2.79,5.45,5.45,0,0,1-1.13,2.62,10.45,10.45,0,0,1-2.08,1.91,14.19,14.19,0,0,1-2.41,1.41c.74-.56,1.48-1.12,2.18-1.71a15.14,15.14,0,0,0,1.92-1.92,6.06,6.06,0,0,0,1.15-2.38A11.23,11.23,0,0,0,278.07,1205.84Z" opacity="0.6"/>
            <path d="M270.09,1205.84a23.54,23.54,0,0,0,2,3.7,5,5,0,0,0,.68.76,8.93,8.93,0,0,0,.85.6,12.17,12.17,0,0,1,1.67,1.37l-1.87-1a6,6,0,0,1-.95-.57,4.65,4.65,0,0,1-.78-.82,8.73,8.73,0,0,1-1-1.92A10.28,10.28,0,0,1,270.09,1205.84Z" opacity="0.6"/>
            <path d="M261.1,1237a1.25,1.25,0,0,1-.89-2.12s2.6-2.7,3.11-5.45c.21-1.08-.31-3.17-.82-5.19-.83-3.33-1.69-6.77-.51-9.12,1.9-3.76,8-5.38,8.71-5.55a1.25,1.25,0,1,1,.6,2.42c-1.57.4-5.9,1.93-7.08,4.26-.76,1.52,0,4.63.71,7.38.59,2.39,1.16,4.64.85,6.26-.66,3.5-3.66,6.6-3.78,6.73A1.27,1.27,0,0,1,261.1,1237Z" fill="#878787"/>
            <path d="M294,1232a1.25,1.25,0,0,1-1-.54c-1.84-2.68-5.16-7.24-6.22-8-1.29-1-1.93-3.52-2.82-7.56a35,35,0,0,0-1-4,2.09,2.09,0,0,0-2.25-1.53,1.26,1.26,0,0,1-1.43-1,1.25,1.25,0,0,1,1-1.43,4.6,4.6,0,0,1,5,3.11,34.52,34.52,0,0,1,1.15,4.4c.42,1.94,1.22,5.57,1.89,6.1,1.68,1.28,5.93,7.4,6.76,8.62a1.24,1.24,0,0,1-.32,1.74A1.27,1.27,0,0,1,294,1232Z" fill="#878787"/>
            <path d="M310.07,1287.09l0-.5a11.18,11.18,0,0,0,2.35-.34l.3.13-.22.11.06.25A12.84,12.84,0,0,1,310.07,1287.09Zm-3-.15c-.36,0-.74-.12-1.12-.2s-1.14-.28-1.84-.49l.15-.48c.68.21,1.29.37,1.8.48s.73.15,1.08.2Zm-5.82-1.67c-1.56-.58-2.79-1.1-2.81-1.1l.2-.46s1.23.52,2.79,1.09Z" fill="#fff" opacity="0.15"/>
            <path d="M239.69,1286.75a11.54,11.54,0,0,1-2.45-.36l.06-.24-.16-.2.23,0a11.18,11.18,0,0,0,2.35.34Zm3-.15-.07-.49c.35-.06.71-.12,1.08-.2s1.13-.28,1.8-.49l.15.48c-.69.21-1.31.38-1.84.5C243.47,1286.48,243.1,1286.55,242.73,1286.6Zm5.82-1.67-.18-.47c1.56-.58,2.78-1.09,2.79-1.09l.2.46S250.12,1284.35,248.55,1284.93Z" fill="#fff" opacity="0.15"/>
            <path d="M312.47,1263.38s-2.17,7.89-3,8.76a14.61,14.61,0,0,0-1.74,2.44,11.92,11.92,0,0,1,2.58,1.92,15.88,15.88,0,0,0,2.17,1.86,19.57,19.57,0,0,1-1.2-6.22C311.38,1269.4,312.47,1263.38,312.47,1263.38Z" stroke="#000" stroke-miterlimit="10" opacity="0.26"/>
            <path d="M237,1264.54s2.16,7.89,3,8.76a15.39,15.39,0,0,1,1.74,2.43,12,12,0,0,0-2.59,1.93,16.54,16.54,0,0,1-2.16,1.85,19.37,19.37,0,0,0,1.19-6.21C238.05,1270.56,237,1264.54,237,1264.54Z" stroke="#000" stroke-miterlimit="10" opacity="0.26"/>
          </g></g></g><g class="part bottom-patch-hips" transform="rotate(-90)"/><g class="part skirt-hips" transform="rotate(-90)"/><g class="part hat-back" transform="translate(-39.31883577734646 -464.40272092042215) rotate(-92.16034102897612 0 0) scale(1 1)"/><g class="part back-hair" transform="translate(-42.451417609971955 -547.4445424988407) rotate(-92.16034102897612 0 0) scale(1 1)"/><g class="part torso" transform="translate(4.1637991171010006e-15 -68) rotate(-92.16034102897612 0 0) scale(1 1)"><g class="offset" transform="translate(0 0) rotate(0 194.74452209472656 -21.870193481445312) scale(1 1)"><g id="torso-2" transform="translate(-356.5 -605.34) rotate(90.36493633573066 356.5 605.34) scale(1 1)" data-centerX="194.74452209472656" data-centerY="-21.870193481445312">
        <path d="M388.38,289.37c-5.07-1.68-13.88-5.33-13.88-10.66s5.34-14.86,5.34-24.51c0-4.77-.24-40.24-1.34-47.37-1-6.5-7.79-40.81-49.13-39.09-35.87,1.49-38.94,28.86-37.1,44.88,1.12,9.77,5.4,20.26,5.4,36.25,0,10.66-4.27,26.65-8.54,32s-28.81,11.72-41.61,17-37.35,2.13-47,24.52-4.72,62.68,2.93,75.41c6.4,10.66,34.66,53.21,40,66s9.87,65.15,12,79c1.79,11.64-8.36,64.27-6,68,12.63,20,62.38,43,120,43s74.43-23.34,85-34c0,0-5-43.74-5-64,0-39.44,5.57-93,5.57-93s4.16-7.42,8.43-17,9.07-25,8-41c-.86-12.85-2.16-35.11-5.36-47.9s-7.64-27.1-11.74-33c-4.43-6.37-8.9-13.12-17.9-18.12a91.62,91.62,0,0,0-25.72-10.06A201.73,201.73,0,0,1,388.38,289.37Z" fill="#E2B08B" stroke="#000" stroke-miterlimit="10" class="color-skin"/>
        <path d="M379.15,227.21c0-4.77.45-13.25-.65-20.38-1-6.5-7.79-40.81-49.13-39.09-35.87,1.49-38.94,28.86-37.1,44.88,1.12,9.77,3.64,10.24,4.83,26.18.51,6.92,37.9,21.74,58.9,21.58C381.72,260.19,379.15,236.86,379.15,227.21Z" opacity="0.3"/>
        <path d="M374.5,455.83c-4.44,1.48-9,2.65-13.53,3.69s-9.18,1.85-13.85,2.47a97,97,0,0,1-14.13.74c-2.34,0-4.69-.07-7-.17s-4.69-.28-7-.48a96.84,96.84,0,0,1-14-2.13,18.64,18.64,0,0,1-3.63-1.18,19.43,19.43,0,0,1-3.23-2,30.09,30.09,0,0,1-5.27-5.05,62.37,62.37,0,0,1-7.62-12q-1.59-3.14-2.92-6.39c-.89-2.16-1.71-4.35-2.4-6.58A128.58,128.58,0,0,0,286.51,439a68.08,68.08,0,0,0,8.23,11,28.72,28.72,0,0,0,5,4.32,16.59,16.59,0,0,0,2.8,1.52,21.87,21.87,0,0,0,3.07.76c2.2.43,4.47.72,6.75,1s4.57.46,6.86.63,4.6.28,6.9.39,4.61.21,6.92.27,4.63.1,6.88.1c1.14,0,2.28-.06,3.43-.09l3.44-.2C356,458.07,365.22,456.89,374.5,455.83Z" opacity="0.3"/>
        <path d="M320.5,575.83c5-19.74,10.27-39.41,16.76-58.78.82-2.42,1.67-4.83,2.58-7.23A58.36,58.36,0,0,1,343,502.7a51.37,51.37,0,0,1,9.63-12.29,74.42,74.42,0,0,1,26.54-15.86,87.33,87.33,0,0,1,30.52-4.82,52.34,52.34,0,0,1,7.79.71,35.46,35.46,0,0,1,7.63,2.11,26.06,26.06,0,0,1,6.88,4.08,24.73,24.73,0,0,1,5.16,6.11c2.76,4.59,4,9.76,4.83,14.83s1.09,10.17,1.52,15.25.65,10.18.83,15.27.26,10.19.14,15.28c-.46-10.17-1.24-20.31-2.44-30.41-.6-5-1.09-10.13-2-15.07s-2.25-9.81-4.88-13.92a22.15,22.15,0,0,0-4.77-5.39,23.37,23.37,0,0,0-6.25-3.59,32.88,32.88,0,0,0-7.09-1.85,50.68,50.68,0,0,0-7.4-.57,85.37,85.37,0,0,0-29.47,4.81,72.51,72.51,0,0,0-25.6,15.08A48.94,48.94,0,0,0,345.32,504a58.86,58.86,0,0,0-3.15,6.76c-.95,2.34-1.85,4.71-2.72,7.09-3.45,9.54-6.61,19.21-9.73,28.89S323.57,566.12,320.5,575.83Z" opacity="0.3"/>
        <path d="M398.5,339.83a92.46,92.46,0,0,1,13.14,24.38,90.34,90.34,0,0,1,3.81,13.44c.41,2.3.84,4.61,1,6.94.1,1.17.29,2.32.32,3.5l.15,3.51a138.78,138.78,0,0,1-2.59,27.69c-.84,4.55-2,9-3.24,13.49a110.47,110.47,0,0,1-4.63,13.05q1.85-6.66,3.2-13.4c.93-4.49,1.73-9,2.36-13.53s1.2-9.06,1.46-13.61c.21-2.27.27-4.55.4-6.82,0-1.14,0-2.28.05-3.42s.06-2.28,0-3.4A94.78,94.78,0,0,0,409.43,365,128.18,128.18,0,0,0,398.5,339.83Z" opacity="0.3"/>
        <path d="M421.5,453.83a74.92,74.92,0,0,1,7.89,1.15c2.56.47,5.15,1.08,7.56,1.4s5.12.52,7.72.76l3.91.39c.65.08,1.31.13,2,.2l.49,0h.32s0,0,0,0l0,.05a.22.22,0,0,0,0,.21c0,.05.1.09.08.08A1.57,1.57,0,0,0,451,458l-.48-.15.5-.08a1.61,1.61,0,0,1,.59,0,.31.31,0,0,1,.13.12.26.26,0,0,1,0,.24.21.21,0,0,1-.05.07l-.13.08-.15.06-.25.09-.5.15c-.66.19-1.32.31-2,.45-1.33.22-2.66.41-4,.5a42.62,42.62,0,0,1-8.06-.15,36.76,36.76,0,0,1-7.84-2.11A43.88,43.88,0,0,1,421.5,453.83Z" opacity="0.3"/>
        <path d="M409.5,496.94l-3.61,30.12c-1.17,10-2.26,20.06-2.79,30.08s.07,20.1.56,30.17,1.19,20.17,1.84,30.28c-1.74-10-3-20-4-30.12-.47-5.05-.9-10.1-1.13-15.18s-.42-10.15-.22-15.28a266.32,266.32,0,0,1,3.27-30.29C405.07,516.72,407,506.76,409.5,496.94Z" opacity="0.3"/>
        <path d="M398.5,521.12A63.71,63.71,0,0,1,385.57,525c-2.21.45-4.46.72-6.72.95a62.24,62.24,0,0,1-6.83.18,101,101,0,0,1-26.44-5c4.49.25,8.92.66,13.35,1s8.83.75,13.2.94a101.1,101.1,0,0,0,13.11-.45C389.64,522.25,394,521.7,398.5,521.12Z" opacity="0.3"/>
        <path d="M392.48,569.07a70.24,70.24,0,0,1-13.61,3.85c-2.32.44-4.68.71-7.05,1s-4.77.22-7.15.18-4.74-.3-7.09-.56-4.68-.6-7-1a103.1,103.1,0,0,1-13.71-3.37c4.71.24,9.37.65,14,1,2.33.18,4.64.41,7,.55s4.62.33,6.92.39a111.73,111.73,0,0,0,13.79-.44C383.18,570.19,387.8,569.64,392.48,569.07Z" opacity="0.3"/>
        <path d="M439.76,521.46a26.28,26.28,0,0,1-6.68,3.18,23,23,0,0,1-7.48,1.16,30.88,30.88,0,0,1-14.1-4.34c2.49.09,4.88.39,7.25.66s4.7.59,7,.69a40.33,40.33,0,0,0,6.87-.41Z" opacity="0.3"/>
        <path d="M441.39,568.07a31.39,31.39,0,0,1-12.52,4.78,28.17,28.17,0,0,1-4.58.22,47.2,47.2,0,0,1-8.84-1.25,44.61,44.61,0,0,1-8.45-2.75c3,0,5.9.2,8.8.42s5.77.46,8.6.58a41.58,41.58,0,0,0,4.18,0c1.39-.09,2.8-.26,4.22-.44C435.63,569.18,438.47,568.63,441.39,568.07Z" opacity="0.3"/>
      </g></g></g><g class="part undershirt-torso" transform="translate(4.1637991171010006e-15 -68) rotate(-92.16034102897612 0 0) scale(1 1)"><g class="offset" transform="translate(0 0) rotate(0 139.17259979248047 -21.115447998046875) scale(1 1)"><g id="undershirt-torso3" transform="translate(-356.5 -605.34) rotate(90.36493633573066 356.5 605.34) scale(1 1)" data-centerX="139.17259979248047" data-centerY="-21.115447998046875">
          <path d="M471.5,374.83c2,21,2.67,31.6,2,38-2,19-5.73,23.41-10,33s-8.43,17-8.43,17-5.57,53.54-5.57,93c0,20.26,5,64,5,64-10.57,10.66-27.38,34-85,34s-107.37-23-120-43c-2.36-3.73,7.79-56.36,6-68-2.13-13.85-6.66-66.21-12-79s-33.6-55.34-40-66c-7.65-12.73-12.54-53-2.93-75.41s34.14-19.19,47-24.52,34-12.07,41.61-17c.54-.35,1.46,2.11,7.37,11,4,6,9.88,15.16,15,19,8,6,22,12,28,12,9.66,0,27.5-.64,35-6,7-5,7-10.23,7-15,0-4-7-23.23-7-23.12s8.81,9,13.88,10.66a201.73,201.73,0,0,0,22.4,6.4c9.61,2.13,28.72,2.06,40.72,22.06C451.5,317.83,469.5,353.83,471.5,374.83Z" fill="#ffffff" stroke="#000" stroke-miterlimit="10" class="color-undershirt"/>
          <path d="M280.5,290.83c3.48,6.26,6.94,12.53,10.67,18.63,1.85,3.05,3.72,6.1,5.81,9a57.05,57.05,0,0,0,7.08,7.88,51.18,51.18,0,0,0,8.46,6.27,53.28,53.28,0,0,0,9.59,4.39,76.07,76.07,0,0,0,10.25,2.69,48.1,48.1,0,0,0,10.49.72,148.06,148.06,0,0,0,21.23-1.77,84,84,0,0,0,10.38-2.24,37.63,37.63,0,0,0,4.94-1.77c.39-.18.79-.35,1.16-.56s.76-.4,1.12-.62.71-.48,1.06-.73a9.94,9.94,0,0,0,1-.78,27.51,27.51,0,0,0,3.74-3.66,32.25,32.25,0,0,0,3.12-4.23,30.53,30.53,0,0,0,2.43-4.68,25.29,25.29,0,0,0,1.59-5,22.75,22.75,0,0,0-.45-10.46,47.78,47.78,0,0,0-1.59-5.1,49.7,49.7,0,0,0-2.11-4.93,46.42,46.42,0,0,1,4.21,9.89,23.54,23.54,0,0,1,.91,10.78,25.84,25.84,0,0,1-1.51,5.25,31.76,31.76,0,0,1-2.4,4.9,33.65,33.65,0,0,1-3.12,4.49,29,29,0,0,1-3.83,3.93,12.84,12.84,0,0,1-1.08.87c-.37.28-.73.57-1.13.82s-.8.5-1.21.72-.82.43-1.24.63A41.33,41.33,0,0,1,375,338a86.35,86.35,0,0,1-10.58,2.38,147.63,147.63,0,0,1-21.51,2c-1.81,0-3.62,0-5.43-.12-.91-.06-1.82-.13-2.74-.25-.46-.05-.92-.13-1.38-.21L332,341.5a76.56,76.56,0,0,1-10.48-2.84A50.24,50.24,0,0,1,303,327.41a59,59,0,0,1-7.06-8.26c-2.05-3-3.86-6.08-5.63-9.2C286.87,303.66,283.57,297.3,280.5,290.83Z" opacity="0.5"/>
          <path d="M291.5,288.83a19.8,19.8,0,0,1-3.74,2.93,19.53,19.53,0,0,1-4.26,2.07,19.35,19.35,0,0,1,3.74-2.92A20,20,0,0,1,291.5,288.83Z" opacity="0.5"/>
          <path d="M295.5,295.83a16.65,16.65,0,0,1-3.21,2.91,16.39,16.39,0,0,1-3.79,2.09,16.59,16.59,0,0,1,3.21-2.9A17,17,0,0,1,295.5,295.83Z" opacity="0.5"/>
          <path d="M299.5,301.83a13.13,13.13,0,0,1-6,4,11.92,11.92,0,0,1,2.72-2.41A11.74,11.74,0,0,1,299.5,301.83Z" opacity="0.5"/>
          <path d="M302.5,308.83a6.5,6.5,0,0,1-4,3,5.9,5.9,0,0,1,1.7-1.9A6.14,6.14,0,0,1,302.5,308.83Z" opacity="0.5"/>
          <path d="M309.5,314.83a4.42,4.42,0,0,1-1.15,1.86,4.3,4.3,0,0,1-1.85,1.14,4.79,4.79,0,0,1,3-3Z" opacity="0.5"/>
          <path d="M317,320.78a3.31,3.31,0,0,1-.59,1.77,3.23,3.23,0,0,1-1.41,1.23,3.23,3.23,0,0,1,.58-1.78A3.3,3.3,0,0,1,317,320.78Z" opacity="0.5"/>
          <path d="M289,454.08a29.47,29.47,0,0,0,16.14,10.25,23,23,0,0,0,4.73.55c1.59,0,3.2-.12,4.81-.28,3.23-.35,6.45-.92,9.68-1.46,12.9-2.34,25.92-4.79,39.13-6,3.3-.34,6.61-.55,9.93-.7s6.64-.23,10-.22,6.66.18,10,.38,6.59.44,9.87.75c13.15,1.16,26.24,2.77,39.23,5.07L403,460.53c-6.58-.23-13.12-.62-19.62-.48s-13,.48-19.54,1-13,1.4-19.51,2.24l-9.76,1.35L324.72,466c-3.28.41-6.59.7-9.93.85a31.49,31.49,0,0,1-10.07-1,27.3,27.3,0,0,1-9-4.51A29.42,29.42,0,0,1,289,454.08Z" opacity="0.5"/>
        </g></g></g><g class="part shirt-torso" transform="translate(4.1637991171010006e-15 -68) rotate(-92.16034102897612 0 0) scale(1 1)"/><g class="part jacket-torso" transform="translate(4.1637991171010006e-15 -68) rotate(-92.16034102897612 0 0) scale(1 1)"/><g class="part jewelry-neck" transform="translate(4.1637991171010006e-15 -68) rotate(-92.16034102897612 0 0) scale(1 1)"/><g class="part veil-torso" transform="translate(4.1637991171010006e-15 -68) rotate(-92.16034102897612 0 0) scale(1 1)"/><g class="part earring-left" transform="translate(-39.31883577734646 -464.40272092042215) rotate(-92.16034102897612 0 0) scale(1 1)"/><g class="part piercing-left-ear" transform="translate(-39.31883577734646 -464.40272092042215) rotate(-92.16034102897612 0 0) scale(1 1)"/><g class="part left-ear" transform="translate(-39.31883577734646 -464.40272092042215) rotate(-92.16034102897612 0 0) scale(1 1)"/><g class="part head" transform="translate(-39.31883577734646 -464.40272092042215) rotate(-92.16034102897612 0 0) scale(1 1)"><g class="offset" transform="translate(0 0) rotate(0 64.76579666137695 -4.8784332275390625) scale(1 1)"><path id="head1-1" d="M277.67,213.51c.11-5.19,2-39.19,8-55.29,7.21-19.33,31.67-40.59,43-43.57,29.86-7.82,52.8-3,68,2.63,18.08,6.67,36.17,29.68,40.06,41.55,3.76,11.49,3.37,34.16,3.37,34.16s.56,15.51.56,20.51c0,4.27-2,12-2,12a107.68,107.68,0,0,1,1,17c-.2,9.34-6,31-10,41-3.08,7.7-14.09,27.16-17.15,30.21s-10.12,8.26-18.12,8.09-15.64-2.52-22.88-4.94c-4-1.35-13-7.25-19-8.29-4.24-.73-12.08-3-18-7.25s-28-38.36-31.85-41.63c-2.18-1.84-14.82-8.61-18.67-16S277.56,218.69,277.67,213.51Z" fill="#E2B08B" stroke="#000" stroke-miterlimit="10" transform="translate(-363.3 -281) rotate(89.34406284288659 363.3 281) scale(1 1)" data-centerX="64.76579666137695" data-centerY="-4.8784332275390625" class="color-skin"/></g></g><g class="part freckle" transform="translate(-39.31883577734646 -464.40272092042215) rotate(-92.16034102897612 0 0) scale(1 1)"/><g class="part left-whites" transform="translate(-39.31883577734646 -464.40272092042215) rotate(-92.16034102897612 0 0) scale(1 1)"><g class="offset" transform="translate(4.038628120422367 6.591915358734134) rotate(0 67.31046867370605 52.502872467041016) scale(0.94 0.8553999999999999)"><path id="left-whites" d="M433.3,215c0,7.17-6.55,10.53-15.94,10.53s-17.52-3.16-17.52-10.19c0-5,8.14-12.28,17.53-12.28S433.3,210,433.3,215Z" fill="#fff" transform="translate(-363.3 -281) rotate(89.34406284288659 363.3 281) scale(1 1)" data-centerX="67.31046867370605" data-centerY="52.502872467041016"/></g></g><g class="part left-iris" transform="translate(-39.31883577734646 -464.40272092042215) rotate(-92.16034102897612 0 0) scale(1 1)"><g class="offset" transform="translate(3.2465113067626987 3.0444210433959986) rotate(0 65.77518844604492 50.7403507232666) scale(0.94 0.94)"><g id="left-iris1" transform="translate(-363.3 -281) rotate(89.34406284288659 363.3 281) scale(1 1)" data-centerX="65.77518844604492" data-centerY="50.7403507232666">
              <circle cx="414.79" cy="215.81" r="6" fill="#51262A" stroke="#000" stroke-miterlimit="10" stroke-width="0.75" class="color-iris"/>
              <circle cx="414.79" cy="215.81" r="2.5"/>
              <circle cx="411.79" cy="212.81" r="2.5" fill="#fff"/>
            </g></g></g><g class="part left-eye" transform="translate(-39.31883577734646 -464.40272092042215) rotate(-92.16034102897612 0 0) scale(1 1)"><g class="offset" transform="translate(4.0788689804077185 6.284236307907108) rotate(0 67.98114967346191 50.375078201293945) scale(0.94 0.8553999999999999)"><g id="left-eye8-joy" transform="translate(-363.3 -281) rotate(89.34406284288659 363.3 281) scale(1 1)" data-centerX="67.98114967346191" data-centerY="50.375078201293945">
              <path d="M392.53,216.31c0,10.75,15.29,18.75,26.61,18.75s17.23-12.08,17.23-19.53S431.3,192.14,420,192.14,392.53,206.83,392.53,216.31Zm9.84,2.72a14,14,0,0,1,10-6.71c9.13-1.31,21.68.6,21.68.6a20.25,20.25,0,0,1-12.88,5.63C414.19,219.11,402.37,219,402.37,219Z" fill="#E2B08B" class="color-skin"/>
              <path d="M434.05,212.92s-3.69,4.5-12.88,5.63c-4,.49-19.23.69-19.23.69s1.64-4.64,9.93-6.71C419.87,210.53,434.05,212.92,434.05,212.92Z" fill="none" stroke="#000" stroke-miterlimit="10" stroke-width="0.75"/>
            </g></g></g><g class="part left-brow" transform="translate(-39.31883577734646 -464.40272092042215) rotate(-92.16034102897612 0 0) scale(1 1)"><g class="offset" transform="translate(0 0) rotate(0 81.44120025634766 53.901193618774414) scale(1 1)"><path id="left-brow8-content" d="M437.56,201.71a30.4,30.4,0,0,0-9.71-2.34,43.15,43.15,0,0,0-5-.15,30.56,30.56,0,0,0-4.84.43c-3.18.54-6.11,2-9.26,2.77a97.66,97.66,0,0,1-10,2.29l-.26-.42a18.18,18.18,0,0,1,3.88-3.81,25,25,0,0,1,4.61-2.75,19.18,19.18,0,0,1,5.16-1.58,49.72,49.72,0,0,1,5.44-.48,36.48,36.48,0,0,1,10.63,1.24,37.35,37.35,0,0,1,5,1.76,21.75,21.75,0,0,1,4.56,2.62Z" fill="#191611" transform="translate(-363.3 -281) rotate(89.34406284288659 363.3 281) scale(1 1)" data-centerX="81.44120025634766" data-centerY="53.901193618774414" class="color-brow"/></g></g><g class="part piercing-left-brow" transform="translate(-39.31883577734646 -464.40272092042215) rotate(-92.16034102897612 0 0) scale(1 1)"/><g class="part nose" transform="translate(-39.31883577734646 -464.40272092042215) rotate(-92.16034102897612 0 0) scale(1 1)"><g class="offset" transform="translate(0 0) rotate(0 31.936399459838867 33.350138664245605) scale(1 1)"><g id="nose8" transform="translate(-363.3 -281) rotate(89.34406284288659 363.3 281) scale(1 1)" data-centerX="31.936399459838867" data-centerY="33.350138664245605">
          <path d="M400.7,260.5c5.14-1.12,6-2.92,8.09-3.6,1.39-.46,7.84-.52,7.91-6.4,0-3-4-5-4-5-1.44-1.3-2.18-3.61-5.45-5.87-2.63-1.82-18.31-3.28-22.73,1.42-1.52,1.61-2.82,5.45-2.82,5.45s-4.43,1.9-4.43,5.15c0,9.12,10.14,5.45,11.26,6.07C391.38,259.29,400.14,260.62,400.7,260.5Z" fill="#E2B08B" class="color-skin"/>
          <path d="M400.7,261c-3.08,0-10.89-2.12-12.38-2.83a7.18,7.18,0,0,0-3,0,11.42,11.42,0,0,1-4.4,0c-1.43-.43-4.7-1.94-4.11-6.61A6.43,6.43,0,0,1,381.6,246l.2,1a5.34,5.34,0,0,0-4,4.72c-.45,3.59,1.6,5,3.41,5.53a10.72,10.72,0,0,0,4,0,7.06,7.06,0,0,1,3.59.06c1.4.66,9.05,2.73,11.95,2.73a14,14,0,0,0,6.63-2.84,4.73,4.73,0,0,1,2.86-1,7.14,7.14,0,0,0,3.22-1l.27-.2c1.11-.79,2.8-2,2.52-4.34-.33-2.85-3.69-4.6-3.73-4.61l.46-.9c.15.09,3.87,2,4.27,5.39.34,2.94-1.71,4.4-2.94,5.27l-.27.19a7.9,7.9,0,0,1-3.65,1.21,4.07,4.07,0,0,0-2.27.73C407,259,402.85,261,400.7,261Z" opacity="0.6"/>
        </g></g></g><g class="part piercing-nose" transform="translate(-39.31883577734646 -464.40272092042215) rotate(-92.16034102897612 0 0) scale(1 1)"/><g class="part mouth" transform="translate(-39.31883577734646 -464.40272092042215) rotate(-92.16034102897612 0 0) scale(1 1)"><g class="offset" transform="translate(-2.3707514286041262 -1.0898329651355687) rotate(0 -8.41502857208252 27.998194217681885) scale(0.95 1.0924999999999998)"><g id="mouth11-open" transform="translate(-363.3 -281) rotate(89.34406284288659 363.3 281) scale(1 1)" data-centerX="-8.41502857208252" data-centerY="27.998194217681885">
            <path d="M383.2,298s8,2,13,2a22.28,22.28,0,0,0,9-2s-5,5-9,5S383.2,298,383.2,298Z" opacity="0.25"/>
            <path d="M370.2,283.73s11,11.63,26,11.63,17-12.67,17-12.67-3-.5-16-.5S370.2,283.73,370.2,283.73Z" fill="#f99393"/>
            <path d="M376.2,287.25c1,1.26,7,8.11,20,8.11,12,0,6-5.59,4-6.85s-8-2.53-14-2.53C379.2,286,375.2,286,376.2,287.25Z" fill="#ff5c5c"/>
            <path d="M376.07,282.85l20.63,0c4.87,0,14.42-.16,14.42-.16l-.49,1.42s-8.77,3.8-13.65,3.8c-4.41,0-20.47-3.8-20.47-3.8Z" fill="#fff" stroke="#000" stroke-miterlimit="10" stroke-width="0.5"/>
            <path d="M368.7,284s15-3.74,18.5-4.37a40.06,40.06,0,0,0,8.5-3.16l3,2.53,3-2.53a14.61,14.61,0,0,0,4.5,3.16,64.42,64.42,0,0,1,7.5,3.1s-7.5.43-9,1.06a51.31,51.31,0,0,1-6,1.53s-5.5-.63-8-1.27S368.7,284,368.7,284Z" fill="#C1867A" class="color-lips"/>
          </g></g></g><g class="part piercing-mouth" transform="translate(-39.31883577734646 -464.40272092042215) rotate(-92.16034102897612 0 0) scale(1 1)"/><g class="part right-whites" transform="translate(-39.31883577734646 -464.40272092042215) rotate(-92.16034102897612 0 0) scale(1 1)"><g class="offset" transform="translate(4.018026123046878 0.7184984783172605) rotate(0 66.96710205078125 -1.9467601776123047) scale(0.94 0.8553999999999999)"><path id="right-whites" d="M381.37,215.79c0,5.1-8.62,9.24-19.25,9.24s-19.25-4.14-19.25-9.24S351.49,203,362.12,203,381.37,210.68,381.37,215.79Z" fill="#fff" transform="translate(-363.3 -281) rotate(89.34406284288659 363.3 281) scale(1 1)" data-centerX="66.96710205078125" data-centerY="-1.9467601776123047"/></g></g><g class="part right-iris" transform="translate(-39.31883577734646 -464.40272092042215) rotate(-92.16034102897612 0 0) scale(1 1)"><g class="offset" transform="translate(3.1969436264038125 1.9727864646911621) rotate(0 64.94906044006348 -0.45355892181396484) scale(0.94 0.94)"><g id="right-iris1" transform="translate(-363.3 -281) rotate(89.34406284288659 363.3 281) scale(1 1)" data-centerX="64.94906044006348" data-centerY="-0.45355892181396484">
              <circle cx="363.59" cy="216.05" r="5.75" fill="#51262A" stroke="#000" stroke-miterlimit="10" stroke-width="0.75" class="color-iris"/>
              <circle cx="363.57" cy="216.07" r="2.75"/>
              <circle cx="361.31" cy="213.5" r="2.75" fill="#fff"/>
            </g></g></g><g class="part right-eye" transform="translate(-39.31883577734646 -464.40272092042215) rotate(-92.16034102897612 0 0) scale(1 1)"><g class="offset" transform="translate(3.9431362152099645 0.42701014404296855) rotate(0 65.71893692016602 -3.96258544921875) scale(0.94 0.8553999999999999)"><g id="right-eye8-joy" transform="translate(-363.3 -281) rotate(89.34406284288659 363.3 281) scale(1 1)" data-centerX="65.71893692016602" data-centerY="-3.96258544921875">
              <path d="M361.62,193.8c-11.32,0-34.31,12.62-34.31,20.08s22.51,22.8,33.83,22.8,31.73-9.41,31.73-20.15C392.87,207.05,372.94,193.8,361.62,193.8Zm-2.05,24.75a20.3,20.3,0,0,1-12.89-5.63s12.56-1.91,21.69-.6a14,14,0,0,1,10,6.71S366.54,219.11,359.57,218.55Z" fill="#E2B08B" class="color-skin"/>
              <path d="M346.68,212.92s3.7,4.5,12.88,5.63c4.05.49,19.24.69,19.24.69s-1.64-4.64-9.93-6.71C360.87,210.53,346.68,212.92,346.68,212.92Z" fill="none" stroke="#000" stroke-miterlimit="10" stroke-width="0.75"/>
            </g></g></g><g class="part right-brow" transform="translate(-39.31883577734646 -464.40272092042215) rotate(-92.16034102897612 0 0) scale(1 1)"><g class="offset" transform="translate(0 0) rotate(0 80.77804565429688 -4.025016784667969) scale(1 1)"><path id="right-brow8-content" d="M340.56,201.29a21.75,21.75,0,0,1,4.56-2.62,37.35,37.35,0,0,1,5-1.76,36.48,36.48,0,0,1,10.63-1.24,49.72,49.72,0,0,1,5.44.48,19.18,19.18,0,0,1,5.16,1.58,25,25,0,0,1,4.61,2.75,18.18,18.18,0,0,1,3.88,3.81l-.26.42a97.66,97.66,0,0,1-10-2.29c-3.15-.78-6.08-2.23-9.26-2.77a30.56,30.56,0,0,0-4.84-.43,43.15,43.15,0,0,0-4.95.15,30.4,30.4,0,0,0-9.71,2.34Z" fill="#191611" transform="translate(-363.3 -281) rotate(89.34406284288659 363.3 281) scale(1 1)" data-centerX="80.77804565429688" data-centerY="-4.025016784667969" class="color-brow"/></g></g><g class="part piercing-right-brow" transform="translate(-39.31883577734646 -464.40272092042215) rotate(-92.16034102897612 0 0) scale(1 1)"><g class="offset" transform="translate(0 0) rotate(0 86.93134689331055 -11.62461519241333) scale(1 1)"><g id="piercing-right-brow-right" transform="translate(-363.3 -281) rotate(89.34406284288659 363.3 281) scale(1 1)" data-centerX="86.93134689331055" data-centerY="-11.62461519241333">
            <path d="M354.48,197.64c-2.21.75-4.12,0-4.61-2.23a4.76,4.76,0,0,1,3.13-5.34c.45-.16,1.17-.13,1,0-1.92,1.16-3.38,2.83-2.93,4.87s2.33,2.56,4.39,1.85C355.78,196.65,355.17,197.4,354.48,197.64Z" fill="#3b5a80" stroke="#000" stroke-miterlimit="10" stroke-width="0.2" class="color-piercing-brow"/>
            <ellipse cx="351.45" cy="196.94" rx="0.25" ry="0.99" transform="translate(-24.1 342.76) rotate(-50.49)" fill="#fff" opacity="0.72"/>
          </g></g></g><g class="part wrinkle-forehead" transform="translate(-39.31883577734646 -464.40272092042215) rotate(-92.16034102897612 0 0) scale(1 1)"><g class="offset" transform="translate(0 0) rotate(0 108.69360733032227 28.157527923583984) scale(1 1)"><g id="wrinkle-forehead2-content" transform="translate(-363.3 -281) rotate(89.34406284288659 363.3 281) scale(1 1)" data-centerX="108.69360733032227" data-centerY="28.157527923583984">
              <path id="_Path_" d="M359.7,175.5c5.52-.73,11.1,0,16.57.78A117,117,0,0,0,392.68,178c5.5,0,11-.7,16.53-1s11.2-.3,16.49,1.46c-5.38-1.39-11-1.18-16.44-.74s-11,1.17-16.58,1.22-11.09-1-16.54-1.89c-2.72-.48-5.44-.94-8.18-1.24A47.47,47.47,0,0,0,359.7,175.5Z" opacity="0.25"/>
              <path id="_Path_2" d="M373.76,166.33l4,.46c1.34.16,2.67.31,4,.43,2.67.25,5.35.49,8,.57a59.39,59.39,0,0,0,8-.22c1.33-.11,2.66-.28,4-.49s2.64-.45,4-.75a36.58,36.58,0,0,1-7.86,2,43.31,43.31,0,0,1-8.13.45,68.24,68.24,0,0,1-8.08-.81A73.9,73.9,0,0,1,373.76,166.33Z" opacity="0.25"/>
            </g></g></g><g class="part wrinkle-eyes" transform="translate(-39.31883577734646 -464.40272092042215) rotate(-92.16034102897612 0 0) scale(1 1)"/><g class="part wrinkle-mouth" transform="translate(-39.31883577734646 -464.40272092042215) rotate(-92.16034102897612 0 0) scale(1 1)"><g class="offset" transform="translate(0 0) rotate(0 7.339792251586914 28.76630926132202) scale(1 1)"><g id="wrinkle-mouth1-open" transform="translate(-363.3 -281) rotate(89.34406284288659 363.3 281) scale(1 1)" data-centerX="7.339792251586914" data-centerY="28.76630926132202">
              <path d="M376.7,251.5a5.82,5.82,0,0,1-.21,3,19.21,19.21,0,0,1-1.11,2.84,53,53,0,0,1-3,5.31l-3.26,5.13c-.54.85-1.09,1.7-1.57,2.57s-.91,1.79-1.32,2.7a54.78,54.78,0,0,0-2.15,5.63,14.69,14.69,0,0,0-1,5.8c.37,4,1.05,8,1.61,12-.49-2-.95-3.94-1.33-5.93a60.33,60.33,0,0,1-.95-6,9.36,9.36,0,0,1,.19-3.12,30.19,30.19,0,0,1,.79-3,50.3,50.3,0,0,1,2.23-5.68c1.64-3.77,4.21-7,6.38-10.37,1.11-1.69,2.18-3.4,3.12-5.18a20,20,0,0,0,1.21-2.77A5.87,5.87,0,0,0,376.7,251.5Z" opacity="0.4"/>
              <path d="M417.7,254.5a33.31,33.31,0,0,0,.9,5.06c.41,1.67.83,3.33,1.29,5s1,3.27,1.4,5a23.18,23.18,0,0,1,.65,5.18,31.05,31.05,0,0,1-.41,5.19c-.13.85-.29,1.7-.4,2.53-.05.43-.07.81-.09,1.26a8,8,0,0,1-.23,1.33,31.27,31.27,0,0,1-1.8,4.88c-.7,1.58-1.48,3.11-2.31,4.62a84.91,84.91,0,0,0,3.46-9.65,6.56,6.56,0,0,0,.18-1.21c0-.41,0-.88.09-1.31.1-.87.25-1.72.37-2.56a33.36,33.36,0,0,0,.43-5.07,21.89,21.89,0,0,0-.57-5l-1.26-5c-.4-1.68-.79-3.35-1.1-5.05A28.4,28.4,0,0,1,417.7,254.5Z" opacity="0.4"/>
            </g></g></g><g class="part chin" transform="translate(-39.31883577734646 -464.40272092042215) rotate(-92.16034102897612 0 0) scale(1 1)"><g class="offset" transform="translate(0 0) rotate(0 -32.94263172149658 35.77189826965332) scale(1 1)"><path id="chin1" d="M398.57,309.13a10.27,10.27,0,0,1,1,2.57,7.83,7.83,0,0,1,.25,2.83,9.28,9.28,0,0,1-.84,2.69,11.19,11.19,0,0,1-1.45,2.35c.22-.9.49-1.76.73-2.62a18.8,18.8,0,0,0,.57-2.54,14,14,0,0,0,0-2.58Z" opacity="0.4" transform="translate(-363.3 -281) rotate(89.34406284288659 363.3 281) scale(1 1)" data-centerX="-32.94263172149658" data-centerY="35.77189826965332"/></g></g><g class="part mustache" transform="translate(-39.31883577734646 -464.40272092042215) rotate(-92.16034102897612 0 0) scale(1 1)"/><g class="part beard-front" transform="translate(-39.31883577734646 -464.40272092042215) rotate(-92.16034102897612 0 0) scale(1 1)"/><g class="part beard-side" transform="translate(-39.31883577734646 -464.40272092042215) rotate(-92.16034102897612 0 0) scale(1 1)"/><g class="part right-ear" transform="translate(-39.31883577734646 -464.40272092042215) rotate(-92.16034102897612 0 0) scale(1 1)"><g class="offset" transform="translate(0 0) rotate(0 52.64911079406738 -75.6774959564209) scale(1 1)"><g id="right-ear4" transform="translate(-363.3 -281) rotate(89.34406284288659 363.3 281) scale(1 1)" data-centerX="52.64911079406738" data-centerY="-75.6774959564209">
          <path d="M304.38,216.51s-5.92-7-9.46-10-13-6-20.1-3-5.91,14-4.73,18a71.58,71.58,0,0,0,5.91,14,61.42,61.42,0,0,0,10.64,13c2.37,2,5.91,5,11.82,4s7.1-5,8.28-8,0-9,0-9" fill="#E2B08B" stroke="#000" stroke-miterlimit="10" class="color-skin"/>
          <path d="M295.42,244.51h-1c0-.25,0-6.16,1.25-8.25a18.62,18.62,0,0,1,3.48-4v-4.78c0-3-1.24-8.81-4.55-11.61-3.79-3.21-9.46-6.83-15-5.89a4,4,0,0,0-2.95,1.81c-1.31,2.17-.21,5.5-.2,5.53l-1,.32c0-.15-1.25-3.79.29-6.36a5,5,0,0,1,3.65-2.29c5.88-1,11.82,2.77,15.77,6.11,3.6,3.05,4.91,9.08,4.91,12.38v5.24l-.18.15a19.35,19.35,0,0,0-3.44,3.87C295.62,238.31,295.42,242.88,295.42,244.51Z" opacity="0.6"/>
          <path d="M295.64,237.7a6.82,6.82,0,0,1,1.25-6.5c1.71-2.16,2.33-2.48,2.82-2.31a.66.66,0,0,1,.44.62h-1a.37.37,0,0,0,.14.28.38.38,0,0,0,.26.06s-.47.19-1.87,2a5.84,5.84,0,0,0-1.11,5.51Z" opacity="0.6"/>
          <path d="M283.8,225.66s-1.25-4.46,3.83-6.61c4.92-2.08,10.86,1.88,11.11,2l-.56.83c-.05,0-5.74-3.82-10.16-2-4.24,1.8-3.3,5.26-3.26,5.4Z" opacity="0.6"/>
        </g></g></g><g class="part earring-right" transform="translate(-39.31883577734646 -464.40272092042215) rotate(-92.16034102897612 0 0) scale(1 1)"/><g class="part piercing-right-ear" transform="translate(-39.31883577734646 -464.40272092042215) rotate(-92.16034102897612 0 0) scale(1 1)"><g class="offset" transform="translate(0 0) rotate(0 48.088327407836914 -60.694461822509766) scale(1 1)"><g id="piercing-right-ear-tragus" transform="translate(-363.3 -281) rotate(89.34406284288659 363.3 281) scale(1 1)" data-centerX="48.088327407836914" data-centerY="-60.694461822509766">
            <circle cx="303.16" cy="232.22" r="1.46" fill="#393939" stroke="#000" stroke-miterlimit="10" stroke-width="0.22" class="color-piercing-ear"/>
            <ellipse cx="302.82" cy="232.21" rx="0.87" ry="0.39" transform="translate(43.89 512.52) rotate(-84.75)" fill="#fff" opacity="0.72"/>
          </g></g></g><g class="part glasses-front" transform="translate(-39.31883577734646 -464.40272092042215) rotate(-92.16034102897612 0 0) scale(1 1)"><g class="offset" transform="translate(0 0) rotate(0 63.32217788696289 4.778648376464844) scale(1 1)"><g id="glasses-front1-blackout" transform="translate(-363.3 -281) rotate(89.34406284288659 363.3 281) scale(1 1)" data-centerX="63.32217788696289" data-centerY="4.778648376464844">
          <path d="M336,206.29c.94-1,49.66-2,50.6,0s.93,16,0,17-13.12,7-23.43,7-26.23-6-27.17-7S335.1,207.29,336,206.29Z" fill="#222222" class="color-lens"/>
          <path d="M398.89,206.27c.74-1,39.16-2,39.89,0s.74,15.68,0,16.66-10.34,6.86-18.46,6.86-20.69-5.88-21.43-6.86S398.15,207.25,398.89,206.27Z" fill="#222222" class="color-lens"/>
          <polygon points="351.34 205.79 359.79 205.19 348.06 227.73 340.34 225.23 351.34 205.79" fill="#fff" opacity="0.5"/>
          <polygon points="412.28 205.79 416.34 205.79 407.4 226.79 403.34 225.92 412.28 205.79" fill="#fff" opacity="0.5"/>
          <polygon points="366.34 204.79 371.34 204.79 360.34 228.79 354.34 229.79 366.34 204.79" fill="#fff" opacity="0.5"/>
          <path d="M363.21,231.29c-10.54,0-26.71-6-27.9-7.31s-1.28-17,0-18.37h0c1.67-1.79,44.33-1.7,50-.8,1.19.19,1.93.42,2.23,1.06.81,1.72,1.32,16.51-.17,18.11C386,225.39,373.61,231.29,363.21,231.29Zm-26.38-8.64c1.57,1.08,16.62,6.64,26.38,6.64,9.57,0,21.22-5.49,22.64-6.64.68-1.73.63-13.4,0-15.7-4.13-1.45-44.65-.61-49,.16C336.18,209.39,336.19,220.91,336.83,222.65Zm0,.08Zm49,0ZM386,207Zm-49.13-.16" fill="#181818" class="color-glasses"/>
          <path d="M420.32,230.79c-8,0-21.1-5.76-22.23-7.26-1-1.33-1-16.53,0-17.86h0c1.45-1.92,34.63-1.61,39-1,1.46.21,2.37.48,2.65,1.24.63,1.67,1,16.06-.14,17.61S428.6,230.79,420.32,230.79Zm-20.59-8.42c1.27,1,12.94,6.42,20.59,6.42s16.46-5.28,17.63-6.42c.54-1.68.51-13.12,0-15.49-1.37-.46-7.78-.86-19.26-.71a189.42,189.42,0,0,0-19,.89C399.22,209.39,399.24,220.73,399.73,222.37Zm0,.07Zm-.39-15.31Zm.39-.37Z" fill="#181818" class="color-glasses"/>
          <path d="M333.34,205.79c-2,0-8,3-8,3v6h6c2,0,4-2,4-2l1-7Z" fill="#181818" class="color-glasses"/>
          <polygon points="325.34 208.79 325.34 214.79 304.27 216.53 301.27 212.53 297.27 208.53 325.34 208.79" fill="#181818" class="color-glasses"/>
          <path d="M393.34,215.79c4,0,5,1.67,5,1.67l1,3.33a8.76,8.76,0,0,0-6-2,13.83,13.83,0,0,0-7,2l1-4A14.52,14.52,0,0,1,393.34,215.79Z" fill="#181818" class="color-glasses"/>
        </g></g></g><g class="part glasses-side" transform="translate(-39.31883577734646 -464.40272092042215) rotate(-92.16034102897612 0 0) scale(1 1)"/><g class="part hair" transform="translate(-39.31883577734646 -464.40272092042215) rotate(-92.16034102897612 0 0) scale(1 1)"><g class="offset" transform="translate(0 0) rotate(0 113.94458770751953 -14.938209533691406) scale(1 1)"><g id="hair28" transform="translate(-363.3 -281) rotate(89.34406284288659 363.3 281) scale(1 1)" data-centerX="113.94458770751953" data-centerY="-14.938209533691406">
          <path d="M430.2,134.24c-2.67-4.6-28.26-43.71-75.3-35.51-32,5.59-80.71,31.23-81.7,39.8a53.69,53.69,0,0,0,0,14.14s-6.41,12.84-6.7,18c-.5,8.64,11.17,31.3,11.17,31.3s12.47-.46,17.91,1.25,8.45,7.15,11.62,14.13c2.05,4.52,5.15,17.85,5.5,18.83a178,178,0,0,0,4.65-29.69c.51-8.29-6.81-57.14-7.37-60.24-.28-1.52,14.12-1.22,31.22-.58,17.6.66,38.5,4.67,48.75,4.4,15.49-.42,24.67-5.1,32.11-3.86,5.34.89,10.79,4.79,10.79,4.79S432.87,138.84,430.2,134.24Z" fill="#000002" stroke="#000" stroke-miterlimit="10" class="color-hair"/>
          <path d="M279.6,131.17s37.27-11.93,49.15-12.79,44,6,56.45,5.15,28.69-4.92,28.74-8c0,0-18.57-17.88-44.85-17.88-15.86,0-36.61,7.17-53.89,13.93C297.3,118.52,279.6,131.17,279.6,131.17Z" fill="#fff" opacity="0.14"/>
          <path d="M275,156.1s-6.14,9.24-5.84,11.48,13.42-6.77,19.5-8.05,9-3.43,9-3.43H275Z" fill="#fff" opacity="0.14"/>
        </g></g></g><g class="part bang" transform="translate(-39.31883577734646 -464.40272092042215) rotate(-92.16034102897612 0 0) scale(1 1)"/><g class="part mask" transform="translate(-39.31883577734646 -464.40272092042215) rotate(-92.16034102897612 0 0) scale(1 1)"/><g class="part veil-head" transform="translate(-39.31883577734646 -464.40272092042215) rotate(-92.16034102897612 0 0) scale(1 1)"/><g class="part hat-front" transform="translate(-39.31883577734646 -464.40272092042215) rotate(-92.16034102897612 0 0) scale(1 1)"/><g class="part right-upper-arm" transform="translate(-129.9607397220737 -320.0519909282437) rotate(-237.40452817209928 0 0) scale(1 1)"><g class="offset" transform="translate(0 0) rotate(0 87.329833984375 -9.287330627441406) scale(1 1)"><g id="right-upper-arm" transform="translate(-234.5 -349.34) rotate(-101.74563342528795 234.5 349.34) scale(1 1)" data-centerX="87.329833984375" data-centerY="-9.287330627441406">
        <path d="M162.25,551c-3.34-8.12,3.37-74.13,4.25-86.15s18.06-58,19-67,2.14-35,3-48,5.93-30.43,12-37c6.59-7.13,35.6-19.4,50-17,12,2,29.31,7.39,37.46,21.22s-7.13,56.67-12.46,70.78-16.8,27.94-20,36-8.05,59.78-11,76c-4,22-10.12,30.53-15,41-3.1,6.67-8,12-11,21,0,0-4.74,16.06-27.82,16.07C163.54,577.91,162.25,551,162.25,551Z" fill="#E2B08B" stroke="#000" stroke-miterlimit="10" class="color-skin"/>
        <path d="M222,440.69c-1.23,3.09-2.42,6.19-3.54,9.31s-2.23,6.25-3.25,9.4A171.12,171.12,0,0,0,210,478.55c-.6,3.24-1,6.53-1.4,9.82s-.62,6.6-.84,9.91c-.42,6.62-.66,13.25-.77,19.89-.27-6.64-.23-13.29.05-19.93a149.13,149.13,0,0,1,2-19.87,147.81,147.81,0,0,1,5.41-19.23A192,192,0,0,1,222,440.69Z" opacity="0.3"/>
      </g></g></g><g class="part shirt-right-upper-arm" transform="translate(-129.9607397220737 -320.0519909282437) rotate(-237.40452817209928 0 0) scale(1 1)"/><g class="part jacket-right-upper-arm" transform="translate(-129.9607397220737 -320.0519909282437) rotate(-237.40452817209928 0 0) scale(1 1)"/><g class="part right-forearm" transform="translate(-241.10626608990742 -146.2283102388244) rotate(-290.7593804030999 0 0) scale(0.9999999999999999 1)"><g class="offset" transform="translate(0 0) rotate(0 84.93861961364746 4.622592926025391) scale(1 1)"><path id="right-forearm" d="M239.13,590.09c1.37,15.74.46,93.39,2.28,103.87s7.17,28.31,6.84,32.06-4.22,12.52-21.17,17.19c-12.82,3.53-29.2-2-30-8.45-.4-3.32-7.89-38.67-9-50.79S163.94,584.3,162.5,578.83s-5.64-19-4.29-22.3c1.48-3.63,2.83-4.2,4-5.55,0,0,3.74-26.93,31.71-23.51,27.71,3.39,26.54,28.36,26.54,28.36C228.29,561.08,238.39,581.62,239.13,590.09Z" fill="#E2B08B" stroke="#000" stroke-miterlimit="10" transform="translate(-192.5 -551.34) rotate(-79.72285941858757 192.5 551.34) scale(1 1)" data-centerX="84.93861961364746" data-centerY="4.622592926025391" class="color-skin"/></g></g><g class="part patch-right-elbow" transform="translate(-129.9607397220737 -320.0519909282437) rotate(-237.40452817209928 0 0) scale(1 1)"><g class="offset" transform="translate(0 0) rotate(0 200.7394256591797 1.4054832458496094) scale(1 1)"><circle id="patch-right-elbow" cx="192.26" cy="545.59" r="29.24" fill="#E2B08B" transform="translate(-234.5 -349.34) rotate(-101.74563342528795 234.5 349.34) scale(1 1)" data-centerX="200.7394256591797" data-centerY="1.4054832458496094" class="color-skin"/></g></g><g class="part right-hand" transform="translate(-175.54559805677857 26.730640980966115) rotate(-290.7593804030999 0 0) scale(0.9999999999999999 1)"><g class="offset" transform="translate(0 0) rotate(0 64.95271682739258 1.4223709106445312) scale(1 1)"><g id="right-hand-open-back" transform="translate(-225.5 -733.34) rotate(-71.2940878122893 225.5 733.34) scale(1 1)" data-centerX="64.95271682739258" data-centerY="1.4223709106445312">
          <path d="M230.44,721.74c6.37-.55,13.53.35,18.41,3.92,4.57,3.34,13.54,11.42,16.48,17.26s6.82,12.76,6.82,12.76,8.79,9.48,10.82,14.25,5.53,12.47,5.91,13.7,4.24,10.16,4.24,10.16,1.12,3.7-3.24,5-9.68-4.51-11-6.82-6.1-14.31-6.1-14.31l-9-8.08s-3.48-3.67-4.39-2.73.59,7.89.59,7.89,2.8,11.27,4.1,15.59,7,17.4,7,17.4l9.6,22s5.35,11.85,6.09,14.32.77,6.49-3.41,8.41-7.48-3.15-7.48-3.15l-6.64-14.15-9.22-20.78s-8.29-15.68-9.38-15.35,6.32,21,6.32,21l7.79,23.9,5.91,15.71s1.14,7.73-3.76,9.19-8-5-8-5-5.49-14.31-5.73-15.1-10.16-23.86-10.16-23.86-7.23-22-8.5-22.34,1.55,17,1.55,17l5.78,23.15s4.08,11.56,4.64,13.41,1.86,8.18-2.5,9.48-8.38-2.2-9.31-5.29l-4.46-14.8-6.69-24.22s-5.23-21.3-6.5-21.59-.94,10.18-.94,10.18l2.34,12.26s2.07,10.81,2.45,14.06,1.32,6.33-2.5,7.47-6.76-2.23-7.31-4.55-2.62-12.66-2.82-15.29-3-15.91-3-15.91a64.65,64.65,0,0,0-1.88-10.19c-1.3-4.32-6.29-36.32-6.63-43.74s7-19.25,11.87-23.22S224.08,722.3,230.44,721.74Z" fill="#E2B08B" stroke="#000" stroke-miterlimit="10" class="color-skin"/>
          <path d="M252.13,786.36a18.83,18.83,0,0,0,2,6,19.79,19.79,0,0,0,2.5,3.5s-4.5-1.5-5-3S252.13,786.36,252.13,786.36Z" opacity="0.22"/>
          <path d="M238.13,793.36a18.83,18.83,0,0,0,2,6,19.79,19.79,0,0,0,2.5,3.5s-4.5-1.5-5-3S238.13,793.36,238.13,793.36Z" opacity="0.22"/>
          <path d="M222.13,795.36a18.83,18.83,0,0,0,2,6,19.79,19.79,0,0,0,2.5,3.5s-4.5-1.5-5-3S222.13,795.36,222.13,795.36Z" opacity="0.22"/>
          <path d="M207.13,793.36a11.43,11.43,0,0,0,2,4.42,16.07,16.07,0,0,0,2.5,2.58s-4.5-1.11-5-2.21S207.13,793.36,207.13,793.36Z" opacity="0.22"/>
          <path d="M281.63,839.86l-6,3,2,5s2,3,5,2,2-5,2-5Z" fill="#fff" stroke="#000" stroke-miterlimit="10" stroke-width="0.25"/>
          <path d="M284.63,787.86s1,4,3,5,5,0,5,0l-2-5-1.37-3.32Z" fill="#fff" stroke="#000" stroke-miterlimit="10" stroke-width="0.25"/>
          <path d="M266.2,857.05l-6.3,2.3,1.42,5.2s1.65,3.2,4.74,2.55,2.55-4.74,2.55-4.74Z" fill="#fff" stroke="#000" stroke-miterlimit="10" stroke-width="0.25"/>
          <path d="M242.2,854.05l-6.3,2.3,1.42,5.2s1.65,3.2,4.74,2.55,2.55-4.74,2.55-4.74Z" fill="#fff" stroke="#000" stroke-miterlimit="10" stroke-width="0.25"/>
          <path d="M216.7,833.08l-4.9,2.11,1,4.56s1.23,2.81,3.64,2.19,2-4.21,2-4.21Z" fill="#fff" stroke="#000" stroke-miterlimit="10" stroke-width="0.25"/>
        </g></g></g><g class="part patch-right-wrist" transform="translate(-241.10626608990742 -146.2283102388244) rotate(-290.7593804030999 0 0) scale(0.9999999999999999 1)"><g class="offset" transform="translate(0 0) rotate(0 172.64070892333984 2.2366485595703125) scale(1 1)"><ellipse id="patch-right-wrist" cx="221.1" cy="721.61" rx="25.1" ry="22.12" transform="translate(-192.5 -551.34) rotate(-79.72285941858757 192.5 551.34) scale(1 1)" fill="#E2B08B" data-centerX="172.64070892333984" data-centerY="2.2366485595703125" class="color-skin"/></g></g><g class="part shirt-right-forearm" transform="translate(-241.10626608990742 -146.2283102388244) rotate(-290.7593804030999 0 0) scale(0.9999999999999999 1)"/><g class="part shirt-patch-right-elbow" transform="translate(-129.9607397220737 -320.0519909282437) rotate(-237.40452817209928 0 0) scale(1 1)"/><g class="part shirt-right-elbow" transform="translate(-129.9607397220737 -320.0519909282437) rotate(-237.40452817209928 0 0) scale(1 1)"/><g class="part jacket-right-forearm" transform="translate(-241.10626608990742 -146.2283102388244) rotate(-290.7593804030999 0 0) scale(0.9999999999999999 1)"/><g class="part jacket-patch-right-elbow" transform="translate(-129.9607397220737 -320.0519909282437) rotate(-237.40452817209928 0 0) scale(1 1)"/><g class="part jacket-right-elbow" transform="translate(-129.9607397220737 -320.0519909282437) rotate(-237.40452817209928 0 0) scale(1 1)"/></g></svg>