<svg xmlns="http://www.w3.org/2000/svg" width="558.8943560167468" height="1282.3573968108226" xmlns:xlink="http://www.w3.org/1999/xlink" xlink:xlink="http://www.w3.org/1999/xlink"><g class="character no-stroke" transform="translate(222.9461536679371 656.2465253538219) rotate(0 0 0) scale(1 1)"><g class="part left-upper-arm" transform="translate(-88.82958221435547, -335.28692626953125) rotate(19.90413284301758) scale(0.9999999999999999,0.9999999999999999)"><g class="offset" transform="translate(0 0) rotate(0 91.341552734375 -6.346710205078125) scale(1 1)"><g id="left-upper-arm-3" transform="translate(-228.4 -347.34) rotate(-101.50686842838667 228.4 347.34) scale(1 1)" data-centerX="91.341552734375" data-centerY="-6.346710205078125">
        <path d="M152.83,552.38c-3.33-8.12,3.38-74.13,4.26-86.15s18.06-58,19-67,2.14-35,3-48,5.93-30.43,12-37c6.59-7.14,35.59-19.4,50-17,12,2,29.3,7.39,37.45,21.22s-7.13,56.67-12.45,70.78-16.8,27.93-20,36-8.05,59.77-11,76c-4,22-10.13,30.53-15,41-3.11,6.67-8,12-11,21,0,0-4.74,16.06-27.83,16.07C154.12,579.3,152.83,552.38,152.83,552.38Z" fill="#E2B08B" stroke="#000" stroke-miterlimit="10" class="color-skin"/>
        <path d="M212.59,442.09c-2.05,6.35-4.09,12.65-6,19s-3.73,12.7-5,19.06c-.61,3.21-1,6.47-1.46,9.73-.18,1.64-.38,3.27-.52,4.92s-.34,3.29-.48,4.94c-.58,6.59-1,13.21-1.52,19.85a170.68,170.68,0,0,1-.71-20,128.49,128.49,0,0,1,1.79-20,123,123,0,0,1,5.61-19.31A130.47,130.47,0,0,1,212.59,442.09Z" opacity="0.3"/>
      </g></g></g><g class="part shirt-left-upper-arm" transform="translate(-88.82958221435547, -335.28692626953125) rotate(19.90413284301758) scale(0.9999999999999999,0.9999999999999999)"/><g class="part jacket-left-upper-arm" transform="translate(-88.82958221435547, -335.28692626953125) rotate(19.90413284301758) scale(0.9999999999999999,0.9999999999999999)"><g class="offset" transform="translate(0 0) rotate(0 91.26022720336914 -6.6720123291015625) scale(1 1)"><path id="jacket-left-upper-arm2" d="M152.83,552.38c-3.33-8.12.38-74.13,1.26-86.15s18.06-58,19-67,1.14-35,2-48,8.93-32.43,15-39c6.59-7.14,36.59-17.4,51-15,12,2,30.3,7.39,38.45,21.22s-6.13,56.67-11.45,70.78-13.8,27.93-17,36-4.38,53.67-12,76c-5.08,14.88-6.54,27.6-14,41A120.53,120.53,0,0,1,211,562.35c-1.54,2.14-12.49,16.81-29.74,16.95a28,28,0,0,1-16.95-4.93C153.89,566.89,153,554.33,152.83,552.38Z" fill="#2C2A2F" stroke="#000" stroke-miterlimit="10" transform="translate(-228.4 -347.34) rotate(-101.50686842838667 228.4 347.34) scale(1 1)" data-centerX="91.26022720336914" data-centerY="-6.6720123291015625" class="color-jacket"/></g></g><g class="part left-forearm" transform="translate(109.13512719890656 -263.6085559792349) rotate(-67.7270856457713 0 0) scale(1 1)"><g class="offset" transform="translate(0 0) rotate(0 84.39208602905273 -0.465789794921875) scale(1 1)"><path id="left-forearm" d="M238.56,590.84c1.37,15.74.46,93.38,2.28,103.86S248,723,247.68,726.76s-4.23,12.53-21.17,17.19c-12.83,3.54-29.21-2-30-8.45-.4-3.32-7.9-38.66-9-50.79S163.37,585,161.93,579.58s-5.65-19-4.3-22.3c1.49-3.64,2.84-4.21,4-5.56,0,0,3.75-26.92,31.72-23.5,27.71,3.38,26.54,28.36,26.54,28.36C227.72,561.82,237.82,582.36,238.56,590.84Z" fill="#E2B08B" stroke="#000" stroke-miterlimit="10" transform="translate(-186.4 -553.65) rotate(-79.29738955970787 186.4 553.65) scale(1 1)" data-centerX="84.39208602905273" data-centerY="-0.465789794921875" class="color-skin"/></g></g><g class="part patch-left-elbow" transform="translate(-88.82958221435547, -335.28692626953125) rotate(19.90413284301758) scale(0.9999999999999999,0.9999999999999999)"><g class="offset" transform="translate(0 0) rotate(0 202.392822265625 2.781492233276367) scale(1 1)"><ellipse id="patch-left-elbow" cx="185.3" cy="545.11" rx="29.19" ry="25.54" fill="#E2B08B" transform="translate(-228.4 -347.34) rotate(-101.50686842838667 228.4 347.34) scale(1 1)" data-centerX="202.392822265625" data-centerY="2.781492233276367" class="color-skin"/></g></g><g class="part left-hand" transform="translate(177.15839170607768 -429.69000252215085) rotate(-59.612305635139364 0 0) scale(0.9999999999999999 0.9999999999999999)"><g class="offset" transform="translate(0 0) rotate(0 43.29758262634277 -0.04267120361328125) scale(1 1)"><g id="left-hand-fist-front-3" transform="translate(-219.73 -730) rotate(-71.2940878122893 219.73 730) scale(1 1)" data-centerX="43.29758262634277" data-centerY="-0.04267120361328125">
          <path d="M265.38,794.83s3,8-4,12S248.49,802,248.49,802s3.89,8.81-4.11,10.81-12-10-12-7,2,9-7,10-11-9-11-9,3,8-5,8-9-7-10-12c-.79-3.92-1-10-2-15-.89-4.42-2.51-23.46-2.85-30.88s7-19.25,11.87-23.22,15.42-8.46,21.79-9,13.53.35,18.41,3.92c4.57,3.34,7,10.9,8.78,17.2,2,7,3,18,3,18s1.17,11.11,2,14C262.38,784.83,265.38,794.83,265.38,794.83Z" fill="#E2B08B" stroke="#000" stroke-miterlimit="10" class="color-skin"/>
          <path d="M257.08,780.11a12.31,12.31,0,0,1-4.77,2.27,41.86,41.86,0,0,1-5.22,1,78,78,0,0,1-10.58.62,100.93,100.93,0,0,1-10.58-.59,46.37,46.37,0,0,1-10.38-2.07,38.33,38.33,0,0,0,5.2.85c1.74.2,3.49.35,5.24.46,3.51.21,7,.35,10.52.35s7-.08,10.5-.38a43.2,43.2,0,0,0,5.19-.73A13.39,13.39,0,0,0,257.08,780.11Z" opacity="0.4"/>
          <path d="M260.52,794a50,50,0,0,0-5.95,3.7,40.4,40.4,0,0,1-6.25,3.27,60.26,60.26,0,0,1-6.38,3,28.69,28.69,0,0,1-7,1.25,69.25,69.25,0,0,1-14.1-.4c-1.16-.18-2.32-.38-3.47-.59a32.27,32.27,0,0,1-3.46-.73,36.34,36.34,0,0,1-6.39-3c2.18.84,4.24,2,6.52,2.48,1.12.26,2.27.43,3.43.58s2.32.32,3.47.45a74.5,74.5,0,0,0,13.93.16,27.54,27.54,0,0,0,6.79-1.11c2.17-.67,4.16-2,6.36-2.84a38.67,38.67,0,0,0,6.3-3A42.3,42.3,0,0,1,260.52,794Z" opacity="0.4"/>
          <path d="M199.71,789.7a31.43,31.43,0,0,0,4.8.89c1.61.21,3.24.36,4.86.48,3.25.22,6.5.39,9.76.49s6.51.15,9.77.16c1.63,0,3.26,0,4.89-.08s3.26-.14,4.89-.25a66.57,66.57,0,0,1-9.76,1.1c-3.27.17-6.55.16-9.82.07s-6.55-.32-9.81-.73A38.3,38.3,0,0,1,199.71,789.7Z" opacity="0.4"/>
          <path d="M223.76,762.33l-8-4,4,5s-1.5,2.5-3,3-6.5.5-9,1-8,5-8,5,5.5-2.5,7-2,0,3,0,3l-4,3h4l9.18,3s20.32-2.55,22.82-3,7.5-6.5,11-6a38.15,38.15,0,0,1,8.12,2.56l-.12-10.56-9-4s-14.5,1.5-17,2a14.45,14.45,0,0,1-5,0Z" opacity="0.4"/>
          <path d="M208.93,815.48c5.36-.19,6.21-2.8,6.21-2.8l1.28-12.11s-.89-10.89-.61-11.76-.19-4.88-.19-4.88-.52-2.77-4.23-3.3-4.85,1.32-5.42,3.06l-.85,2.62c-.56,1.74-3.15,12.46-3.15,12.46l.32,12.63S203.56,815.67,208.93,815.48Z" fill="#E2B08B" stroke="#000" stroke-miterlimit="10" class="color-skin"/>
          <path d="M225.88,817.12c6-1.54,6.35-4.79,6.35-4.79l-1.33-14.4s-3.5-12.44-3.38-13.52-1.33-5.63-1.33-5.63-1.22-3.1-5.52-2.8-5.16,2.73-5.4,4.89l-.36,3.25c-.23,2.17-.7,15.27-.7,15.27L217.47,814S219.88,818.65,225.88,817.12Z" fill="#E2B08B" stroke="#000" stroke-miterlimit="10" class="color-skin"/>
          <path d="M244,813.75c5.86-2.29,5.86-5.72,5.86-5.72L247,793.18s-4.88-12.57-4.88-13.72-1.95-5.71-1.95-5.71-1.57-3.1-5.86-2.29-4.88,3.43-4.88,5.72v3.43c0,2.28,1,16,1,16l4.89,14.85S238.16,816,244,813.75Z" fill="#E2B08B" stroke="#000" stroke-miterlimit="10" class="color-skin"/>
          <path d="M231.38,778.83s.64-.08,4.07-.79a28,28,0,0,1,4.43-.71l-1.5-3.5a8.47,8.47,0,0,0-4,0c-2.5.5-3,1-3,1Z" fill="#fff" stroke="#000" stroke-miterlimit="10" stroke-width="0.25"/>
          <path d="M216.57,783.32s.61,0,3.91-.36a23.1,23.1,0,0,1,4.23-.23l-1-3.83a7.06,7.06,0,0,0-3.73-.46c-2.4.23-2.93.7-2.93.7Z" fill="#fff" stroke="#000" stroke-miterlimit="10" stroke-width="0.25"/>
          <path d="M206.63,786.69s.54.09,3.5.28a18.19,18.19,0,0,1,3.75.46l0-4a5.53,5.53,0,0,0-3.16-1.07c-2.15-.16-2.72.22-2.72.22Z" fill="#fff" stroke="#000" stroke-miterlimit="10" stroke-width="0.25"/>
          <path d="M230.88,782.6a28.82,28.82,0,0,1,4.59-1.77h5.35l3.06,9.73h-6.12c-2.29,0-6.12,1.77-6.12,1.77Z" opacity="0.4"/>
          <path d="M216.35,785.91a29.28,29.28,0,0,1,4.75-1.26l5.32.59,2,10-6.08-.66c-2.28-.25-6.28,1.09-6.28,1.09Z" opacity="0.4"/>
          <path d="M206.2,788.32a18.74,18.74,0,0,1,3.53-.37l3.59,1.18-.47,8.3-4.1-1.35c-1.53-.51-4.55,0-4.55,0Z" opacity="0.4"/>
          <path d="M262.47,806.77c5.52-3.15,5-6.37,5-6.37l-4-14.43s-8.33-10.31-8.71-11.33-3.72-4.4-3.72-4.4-2.5-2.22-6.31,0S241.23,775,242,777l1.12,3.05c.75,2,4.35,11.93,4.35,11.93l5.95,14.1S257,809.91,262.47,806.77Z" fill="#E2B08B" stroke="#000" stroke-miterlimit="10" class="color-skin"/>
          <path d="M244.42,777.8s.58-.29,3.61-2.12a30.3,30.3,0,0,1,4-2.18l-2.56-2.59a9.24,9.24,0,0,0-3.81,1.39c-2.22,1.32-2.53,1.94-2.53,1.94Z" fill="#fff" stroke="#000" stroke-miterlimit="10" stroke-width="0.25"/>
          <path d="M245.17,781.33a29.94,29.94,0,0,1,3.79-3.17l5.09-1.87,6,7.75-6.1,1c-2.28.38-5.85,2.7-5.85,2.7Z" opacity="0.4"/>
          <path d="M220.38,760.83s5,8,12,9c8,1.14,20-2,20-2l5,7s-6,5-7,9-2.52,7.74-1.76,10.87a4.16,4.16,0,0,0,5.76,3.13c2-1,16-14,17-18s2-17,1-19-13.19-19.09-13.19-19.09L248.41,730" fill="#E2B08B" stroke="#000" stroke-miterlimit="10" class="color-skin"/>
          <path d="M258.82,791.42s-3.27,2.37-3.63,3.84,0,2,0,2l3.18-3.34,2.3-2.18Z" fill="#fff" stroke="#000" stroke-miterlimit="10" stroke-width="0.25"/>
          <g opacity="0.4">
            <line x1="256.41" y1="775.44" x2="263.17" y2="776.89" fill="#fff"/>
            <path d="M256.41,775.44a10.9,10.9,0,0,1,3.48.24,10.58,10.58,0,0,1,3.28,1.21,12.26,12.26,0,0,1-6.76-1.45Z"/>
          </g>
          <g opacity="0.4">
            <line x1="254.36" y1="771.17" x2="261.13" y2="769.06" fill="#fff"/>
            <path d="M254.36,771.17a12.9,12.9,0,0,1,6.77-2.11,12.9,12.9,0,0,1-6.77,2.11Z"/>
          </g>
          <g opacity="0.4">
            <line x1="260.18" y1="759.05" x2="252.5" y2="767.89" fill="#fff"/>
            <path d="M260.18,759.05a31.38,31.38,0,0,1-3.46,4.75,30.26,30.26,0,0,1-4.22,4.09,34.31,34.31,0,0,1,7.68-8.84Z"/>
          </g>
        </g></g></g><g class="part patch-left-wrist" transform="translate(109.13512719890656 -263.6085559792349) rotate(-67.7270856457713 0 0) scale(1 1)"><g class="offset" transform="translate(0 0) rotate(0 171.4094696044922 -2.195497512817383) scale(1 1)"><ellipse id="patch-left-wrist" cx="220.39" cy="721.67" rx="24.95" ry="22.12" transform="translate(-186.4 -553.65) rotate(-79.29738955970787 186.4 553.65) scale(1 1)" fill="#E2B08B" data-centerX="171.4094696044922" data-centerY="-2.195497512817383" class="color-skin"/></g></g><g class="part shirt-left-forearm" transform="translate(109.13512719890656 -263.6085559792349) rotate(-67.7270856457713 0 0) scale(1 1)"/><g class="part shirt-patch-left-elbow" transform="translate(-88.82958221435547, -335.28692626953125) rotate(19.90413284301758) scale(0.9999999999999999,0.9999999999999999)"/><g class="part shirt-left-elbow" transform="translate(-88.82958221435547, -335.28692626953125) rotate(19.90413284301758) scale(0.9999999999999999,0.9999999999999999)"/><g class="part jacket-left-forearm" transform="translate(109.13512719890656 -263.6085559792349) rotate(-67.7270856457713 0 0) scale(1 1)"><g class="offset" transform="translate(0 0) rotate(0 84.87198448181152 -0.27398681640625) scale(1 1)"><g id="jacket-left-forearm2-3" transform="translate(-186.4 -553.65) rotate(-79.29738955970787 186.4 553.65) scale(1 1)" data-centerX="84.87198448181152" data-centerY="-0.27398681640625">
            <path id="_Path_2" d="M240.56,590.84c1.37,15.74.46,93.38,2.28,103.86s8,26.7,7.64,30.44-7,14.15-24,18.81c-12.83,3.54-33.9,2.85-34.69-3.62-.4-3.32-7.2-43.49-8.31-55.62S160.37,585,158.93,579.58s-5.65-18-4.3-21.3c1.49-3.64,3.84-5.21,5-6.56,0,0,5.75-26.92,33.72-23.5,27.71,3.38,27.54,28.36,27.54,28.36C228.72,561.82,239.82,582.36,240.56,590.84Z" fill="#2C2A2F" stroke="#000" stroke-miterlimit="10" class="color-jacket"/>
            <ellipse cx="233.62" cy="703.48" rx="4.34" ry="4" transform="translate(-495.35 837.94) rotate(-82.08)" stroke="#000" stroke-miterlimit="10"/>
            <ellipse cx="238.22" cy="719.83" rx="4.34" ry="4" transform="translate(-507.57 856.6) rotate(-82.08)" stroke="#000" stroke-miterlimit="10"/>
          </g></g></g><g class="part jacket-patch-left-elbow" transform="translate(-88.82958221435547, -335.28692626953125) rotate(19.90413284301758) scale(0.9999999999999999,0.9999999999999999)"><g class="offset" transform="translate(0 0) rotate(0 198.27950286865234 2.5779380798339844) scale(1 1)"><ellipse id="jacket-patch-left-elbow" cx="186.32" cy="541.12" rx="32.12" ry="31.73" transform="translate(-228.4 -347.34) rotate(-101.50686842838667 228.4 347.34) scale(1 1)" fill="#2C2A2F" data-centerX="198.27950286865234" data-centerY="2.5779380798339844" class="color-jacket"/></g></g><g class="part jacket-left-elbow" transform="translate(-88.82958221435547, -335.28692626953125) rotate(19.90413284301758) scale(0.9999999999999999,0.9999999999999999)"/><g class="part left-thigh" transform="translate(-38.0734748840332, -18.572526931762695) rotate(93.00000000000004) scale(0.9999999999999999,0.9999999999999999)"><g class="offset" transform="translate(0 0) rotate(0 133.9468231201172 -6.7063751220703125) scale(1 1)"><path id="left-thigh" d="M333,589.2c32,10.33,44,45.87,41,74.21-5.37,49.86-13.54,72.43-13.54,72.43-1,18.76-17.1,99.35-17.1,99.35s-19.08,121.48-24,131.49c-4.59,9.39-8.5,27.66-36.12,27.66-30.61,0-33.06-26.61-35-32.87-3-9.56-13-110.52-13.82-123s-1.36-32.63-1.08-59.07a229.83,229.83,0,0,1,7.58-56S215.4,659.57,242,619.19C263.74,586.1,294.84,576.91,333,589.2Z" fill="#E2B08B" stroke="#000" stroke-miterlimit="10" transform="translate(-303.19 -655.05) rotate(-93.30282752645938 303.19 655.05) scale(1 1)" data-centerX="133.9468231201172" data-centerY="-6.7063751220703125" class="color-skin"/></g></g><g class="part bottom-left-thigh" transform="translate(-38.0734748840332, -18.572526931762695) rotate(93.00000000000004) scale(0.9999999999999999,0.9999999999999999)"><g class="offset" transform="translate(0 0) rotate(0 133.4061508178711 -7.399131774902344) scale(1 1)"><g id="bottom-left-thigh-pants2-3" transform="translate(-303.19 -655.05) rotate(-93.30282752645938 303.19 655.05) scale(1 1)" data-centerX="133.4061508178711" data-centerY="-7.399131774902344">
            <path id="_Path_26" d="M335.53,589.2c33.89,10.33,46.61,45.87,43.38,74.21-5.68,49.86-14.33,72.43-14.33,72.43-1,18.76-18.1,99.35-18.1,99.35S325.17,956.67,320,966.68c0,0-5.88,26.66-35.12,26.66-32.4,0-36.34-27.16-36.34-27.16-3.15-9.55-16.47-115.23-17.34-127.72s-1.44-32.63-1.15-59.07a218.71,218.71,0,0,1,8-56s-27-63.81,1.16-104.19C262.28,586.1,295.19,576.91,335.53,589.2Z" fill="#595f5e" stroke="#000" stroke-miterlimit="10" class="color-bottom"/>
            <path d="M252.39,649.33c-19,19.33-25,76.36,6,97,35.29,23.51,82.36,2.14,95-21,12.29-22.49-2.71-52.49-33.71-74.49C302.12,638.38,265.68,635.84,252.39,649.33Z" fill="#595f5e" class="color-bottom"/>
            <path d="M302.71,988.65c-.4-2.51.73-13.88,2.05-27,1.68-16.89,3.59-36,2.94-42.6-1-9.88,5.83-45.86,11.32-74.77,3-15.62,5.52-29.11,5.76-33.12,1.35-21.75,0-77-1-91-1-15.51-1.21-61.44,1.91-71.87l1,.29c-2.93,9.78-3.05,54-1.87,71.52.94,14,2.32,69.33,1,91.11-.25,4.07-2.69,16.94-5.78,33.24-5.18,27.33-12.28,64.75-11.31,74.49.66,6.67-1.25,25.86-2.94,42.8-1.25,12.55-2.43,24.4-2.06,26.78Z" fill="#fff" opacity="0.16"/>
            <path d="M309.31,983a13.1,13.1,0,0,1,.08-3.12l1,.1a13.44,13.44,0,0,0-.09,2.86Z" fill="#fff" opacity="0.16"/>
            <path d="M311.25,974.11l-1-.17c.31-1.79.66-3.77,1.05-5.88l1,.18C311.91,970.35,311.55,972.32,311.25,974.11Zm2.13-11.75-1-.18c.35-1.91.71-3.87,1.06-5.87l1,.17C314.09,958.48,313.73,960.45,313.38,962.36Zm2.06-11.77-1-.16c.33-2,.63-3.95.91-5.89l1,.14C316.07,946.63,315.76,948.61,315.44,950.59Zm1.66-11.85-1-.11c.23-2.14.4-4.13.51-5.92l1,.06C317.51,934.57,317.34,936.58,317.1,938.74Zm-.41-12c0-.9-.11-1.73-.21-2.47a18.46,18.46,0,0,1-.13-2.44c0-.34,0-.7,0-1.08l1,0c0,.37,0,.72,0,1a18.31,18.31,0,0,0,.12,2.31c.1.77.18,1.63.22,2.56Zm1.1-11.89-1-.1c.18-1.77.42-3.77.71-6l1,.13C318.2,911.15,318,913.14,317.79,914.9Zm1.54-11.84-1-.15q.44-2.85.93-5.91l1,.16C319.92,899.19,319.62,901.17,319.33,903.06Zm1.91-11.8-1-.17c.33-1.92.68-3.89,1-5.89l1,.17Q321.73,888.37,321.24,891.26Zm2.09-11.77-1-.18c.36-1.95.73-3.91,1.09-5.88l1,.18C324.05,875.58,323.68,877.55,323.33,879.49Zm2.2-11.75-1-.19q.57-2.94,1.13-5.87l1,.19Q326.09,864.8,325.53,867.74ZM327.8,856l-1-.19c.39-2,.77-3.94,1.16-5.86l1,.19Zm2.32-11.73-1-.19,1.17-5.87,1,.2Zm2.35-11.73-1-.19,1.16-5.87,1,.2Zm2.32-11.74-1-.19c.51-2.63.87-4.56,1.09-5.88l1,.17C335.65,816.23,335.3,818.16,334.79,820.8Zm1.82-11.86-1-.09c.16-1.85.29-3.85.38-5.93l1,0C336.91,805.06,336.78,807.07,336.61,808.94Zm.52-12h-1v-.88q0-2.51-.06-5.07l1,0q.06,2.58.06,5.1Zm-1.27-11.92q-.14-3-.32-5.95l1-.06q.2,3,.33,6Zm-.74-11.89c-.16-2-.32-4-.49-5.95l1-.09q.27,3,.49,6Zm-1-11.89c-.19-2-.38-4-.58-5.94l1-.1c.19,2,.39,4,.57,6Zm-1.16-11.88c-.2-2-.4-4-.58-5.94l1-.1q.29,2.92.58,5.94Zm-1.14-11.89q-.27-3.06-.49-6l1-.07c.14,1.92.31,3.9.49,5.94Zm-.87-11.93c0-.84-.08-1.66-.11-2.46q-.06-1.71-.12-3.51l1,0c0,1.19.08,2.36.12,3.5,0,.8.07,1.62.11,2.45Zm-.41-11.94q-.08-2.92-.13-6l1,0q.06,3,.13,6Zm-.22-11.94c0-2,0-4-.05-6h1c0,2,0,4,.05,6Zm.94-11.94h-1q0-3,0-6h1Q331.24,686.75,331.23,689.76Zm.15-11.93-1,0c.05-2,.11-4,.18-6l1,0C331.49,673.79,331.43,675.79,331.38,677.83Zm.47-11.91-1-.06c.13-2.17.28-4.18.45-6l1,.09C332.14,661.77,332,663.76,331.85,665.92Z" fill="#fff" opacity="0.16"/>
            <path d="M333,654.41l-1-.17a26.19,26.19,0,0,1,.67-3l1,.29A26.11,26.11,0,0,0,333,654.41Z" fill="#fff" opacity="0.16"/>
          </g></g></g><g class="part left-lowerleg" transform="translate(-54.23392105102539, 289.7872009277344) rotate(115.00000000000003)"><g class="offset" transform="translate(0 0) rotate(0 133.41929626464844 -1.2048683166503906) scale(1 1)"><g id="left-lowerleg-3" transform="translate(-285.4 -963.32) rotate(-91.2323748203638 285.4 963.32) scale(1 1)" data-centerX="133.41929626464844" data-centerY="-1.2048683166503906">
        <path d="M305.47,938a35.2,35.2,0,0,1,13,24.69c1.32,3.7,8.5,23.7,9.16,32,.57,7.2-.14,35.11-3.54,44.4-1,2.63-5.94,17.7-8.85,44.41-6.68,61.32-11.25,157.82-12.38,162.14-.64,2.48-5.35,15.55-23.38,16.4-18.22.87-23.6-13-24.3-15.37-1.75-6-5.71-104.09-8.11-163.17-.92-22.71-4.56-35.11-6.51-46.47-2.37-13.82.44-39.34,2.84-48.38,2.26-8.5,5.27-15.89,7.8-25,0,0,.69-12.19,9.13-21.51C273.64,927.38,295.35,929.65,305.47,938Z" fill="#E2B08B" stroke="#000" stroke-miterlimit="10" class="color-skin"/>
        <path d="M298.38,994.57s.18-18.43,2.94-24.8,3.95-16.9,3.95-16.9S294.86,959.22,293.5,972C292.85,978.21,298.38,994.57,298.38,994.57Z" opacity="0.25"/>
        <path d="M271.15,993.72s-.14-18.42-2.31-24.79-3.1-16.91-3.1-16.91,8.17,6.35,9.23,19.16C275.48,977.36,271.15,993.72,271.15,993.72Z" opacity="0.25"/>
      </g></g></g><g class="part patch-left-knee" transform="translate(-38.0734748840332, -18.572526931762695) rotate(93.00000000000004) scale(0.9999999999999999,0.9999999999999999)"><g class="offset" transform="translate(0 0) rotate(0 280.32118225097656 2.522563934326172) scale(1 1)"><path id="patch-left-knee" d="M318.74,937.9c1.19,9.68-.36,21.54-3.81,22.1-2,.33-2.68-3.32-7-7-6.71-5.74-15.35-5.85-22.15-5.93-6.64-.08-15.09-.19-22.29,5.17-5.28,3.93-6.79,8.5-9.29,7.93-3.62-.83-4.06-11.25-4.15-13.42-.34-8.52-.83-20.81,8.3-29.57,8.72-8.36,20.48-8,27.08-7.81,5.86.18,18.79.56,26.85,10.09C317.18,925.23,318,931.73,318.74,937.9Z" fill="#E2B08B" transform="translate(-303.19 -655.05) rotate(-93.30282752645938 303.19 655.05) scale(1 1)" data-centerX="280.32118225097656" data-centerY="2.522563934326172" class="color-skin"/></g></g><g class="part left-foot" transform="translate(-172.13365173339844, 542.6239624023438) rotate(94.00000000000003) scale(1,1)"><g class="offset" transform="translate(0 0) rotate(0 25.01365089416504 -4.769195556640625) scale(1 1)"><g id="left-foot3" transform="translate(-279.4 -1242.23) rotate(-90.97102193107916 279.4 1242.23) scale(1 1)" data-centerX="25.01365089416504" data-centerY="-4.769195556640625">
        <path d="M255.78,1246.52s-9.75,36.8-11.7,39.87a56,56,0,0,0-3.89,8.17,13.94,13.94,0,0,0-1,8.18c1,4.09,1,5.11,3.9,6.13s7.8,0,7.8,0,10.32,4.84,26.82,4.84a119.65,119.65,0,0,0,29.64-3.76,42.48,42.48,0,0,0,8.91,1c4.87,0,8.69-1,10.64-3.07s1.95-6.13,1-11.24-6.82-9.2-8.77-13.29-15.59-37.82-15.59-37.82,1.91-25.38-25.28-24.58C252.94,1221.67,255.78,1246.52,255.78,1246.52Z" fill="#E2B08B" stroke="#000" stroke-miterlimit="10" class="color-skin"/>
        <path d="M255.39,1302.3c-3.13,1.84-9.18,2.5-9.18,2.5l-7-2.06c1,4.09,1,5.11,3.9,6.13s7.8,0,7.8,0,10.32,4.84,26.82,4.84a119.65,119.65,0,0,0,29.64-3.76,42.48,42.48,0,0,0,8.91,1c4.87,0,8.69-1,10.64-3.07s-1.46-2.82-5.89-5.55c-1.36-.84-9.9,1.44-13.19-1.67-2.06-2-18.52-7.46-28.58-7.46C268.8,1293.17,258.38,1300.54,255.39,1302.3Z" opacity="0.4"/>
        <path d="M266.79,1285.61a1,1,0,0,0,.48-.51c.12-.2.22-.42.32-.63.19-.45.37-.89.53-1.34.34-.9.62-1.82.92-2.72a52.93,52.93,0,0,0,1.42-5.5,29.59,29.59,0,0,0,.26-5.54c0-1.9-.15-3.83-.17-5.83a21.05,21.05,0,0,1,1.8,5.67,16.82,16.82,0,0,1,0,6.09,20.1,20.1,0,0,1-.83,2.9,24.61,24.61,0,0,1-1.16,2.75,20.94,20.94,0,0,1-1.48,2.6,11.7,11.7,0,0,1-.91,1.19C267.68,1285.09,267.32,1285.56,266.79,1285.61Z" opacity="0.4"/>
        <path d="M289.24,1283c-.4-.15-.59-.58-.81-.9s-.39-.71-.57-1.06a19,19,0,0,1-.88-2.22,22.8,22.8,0,0,1-1.07-4.67,18.37,18.37,0,0,1,.16-4.81,18.58,18.58,0,0,1,1.29-4.59c.21,1.6.27,3.15.32,4.69s.08,3.06.2,4.51.37,3,.56,4.52l.31,2.3.17,1.15c0,.19.06.38.1.57S289.09,1282.92,289.24,1283Z" opacity="0.4"/>
      </g></g></g><g class="part patch-left-ankle" transform="translate(-54.23392105102539, 289.7872009277344) rotate(115.00000000000003)"><g class="offset" transform="translate(0 0) rotate(0 274.07701110839844 0.6354732513427734) scale(1 1)"><ellipse id="patch-left-ankle" cx="278.87" cy="1237.32" rx="23.43" ry="23.87" fill="#E2B08B" transform="translate(-285.4 -963.32) rotate(-91.2323748203638 285.4 963.32) scale(1 1)" data-centerX="274.07701110839844" data-centerY="0.6354732513427734" class="color-skin"/></g></g><g class="part sock-left-lowerleg" transform="translate(-54.23392105102539, 289.7872009277344) rotate(115.00000000000003)"/><g class="part sock-left-foot" transform="translate(-172.13365173339844, 542.6239624023438) rotate(94.00000000000003) scale(1,1)"/><g class="part sock-patch-left-ankle" transform="translate(-54.23392105102539, 289.7872009277344) rotate(115.00000000000003)"/><g class="part bottom-left-lowerleg" transform="translate(-54.23392105102539, 289.7872009277344) rotate(115.00000000000003)"><g class="offset" transform="translate(0 0) rotate(0 130.34315872192383 -1.2705726623535156) scale(1 1)"><g id="bottom-left-lowerleg-pants2-3" transform="translate(-285.4 -963.32) rotate(-91.2323748203638 285.4 963.32) scale(1 1)" data-centerX="130.34315872192383" data-centerY="-1.2705726623535156">
            <path id="_Path_27" d="M250.5,964a41.1,41.1,0,0,0-8.16,13.88c-4.88,13.16-6,47.9-4.25,63.45,1.29,11.52,4.58,19.31,5.48,42.14,2.32,59.39-.81,154.45.89,160.45.68,2.4,14.51,6.15,16.42,7.24,4.69,2.68,12.07,2.16,17.09,2.16a62.67,62.67,0,0,0,17.61-2.69c3.85-1.3,22.88-7.13,23.51-9.63,1.09-4.33,0-127.81.89-149.7.69-17,3.4-28.72,5.33-38.46,3-15.1,6.74-57.07,4.35-66.11-2.68-10.15-8.61-18.77-10.38-23.15,0,0-3.59-29.62-32.58-29.62C251.53,934,250.5,964,250.5,964Z" fill="#595f5e" stroke="#000" stroke-miterlimit="10" class="color-bottom"/>
            <path d="M313.28,1244.22c0-1.43-.95-143.6-.95-162.39,0-10.44,2.8-26.81,5.26-41.26,2-11.89,4-23.11,4-29,0-10.82-4.55-36.88-8-45.71l.93-.36c3.73,9.6,8.05,36.06,8.05,46.07,0,5.93-1.92,17.2-4,29.13-2.46,14.41-5.25,30.74-5.25,41.09,0,18.78.94,161,.95,162.39Z" fill="#fff" opacity="0.16"/>
            <rect x="303.9" y="1245.02" width="3" height="1" transform="translate(-940.72 1548.49) rotate(-89.89)" fill="#fff" opacity="0.16"/>
            <path d="M305.92,1238h-1l0-6.08h1Zm0-12.14h-1l0-6.07h1Zm0-12.14h-1v-6.07h1Zm0-12.13h-1l0-6.07h1Zm0-12.13h-1v-6.06h1Zm0-12.12h-1l0-6.06h1Zm0-12.13h-1v-6.08h1Zm0-12.14h-1l0-6.07h1Zm0-12.13h-1l0-6.06h1Zm0-12.12h-1v-6.06h1Zm0-12.13h-1v-6.06h1Zm0-12.14h-1v-6.07h1Zm0-12.14h-1v-6.08h1Zm.12-12.11-1,0c.08-1.83.21-3.81.38-6.06l1,.07C306.64,1076.48,306.52,1078.46,306.44,1080.28Zm.9-12.07-1-.09c.19-2,.4-4,.62-6l1,.11C307.73,1064.24,307.53,1066.25,307.34,1068.21Zm1.3-12-1-.12.72-6,1,.12Q309,1053.18,308.64,1056.18Zm1.46-12-1-.13.75-6,1,.12Zm1.47-12-1-.12c.25-2.09.48-4.11.69-6l1,.11C312.06,1028,311.83,1030,311.57,1032.12Zm1.31-12.07-1-.09c.22-2.41.36-4.38.42-6l1,0C313.23,1015.64,313.1,1017.62,312.88,1020.05Zm-.74-12.11c-.14-1.73-.33-3.75-.59-6l1-.11c.26,2.28.46,4.31.59,6.05Zm-1.34-12c-.26-1.94-.55-4-.85-6l1-.15c.31,2,.6,4.06.86,6Zm-1.78-12c-.33-2-.66-4-1-6l1-.17c.34,2,.68,4,1,6ZM306.94,972c-.4-2.12-.8-4.12-1.18-5.94l1-.2c.38,1.82.78,3.82,1.18,6Z" fill="#fff" opacity="0.16"/>
            <path d="M304.52,960.66c-.3-1.18-.57-2.14-.82-2.84l.95-.33c.25.73.53,1.71.84,2.92Z" fill="#fff" opacity="0.16"/>
            <path d="M300.3,1002.78s.2-21.76,3.3-29.29,4.41-20,4.41-20a32.19,32.19,0,0,0-13.16,22.64C294.12,983.45,300.3,1002.78,300.3,1002.78Z" opacity="0.25"/>
            <path d="M269.84,1001.78s-.16-21.76-2.59-29.29-3.46-20-3.46-20,9.14,7.51,10.32,22.64C274.69,982.45,269.84,1001.78,269.84,1001.78Z" opacity="0.25"/>
          </g></g></g><g class="part bottom-boot-left-lowerleg" transform="translate(-54.23392105102539, 289.7872009277344) rotate(115.00000000000003)"/><g class="part bottom-patch-left-knee" transform="translate(-38.0734748840332, -18.572526931762695) rotate(93.00000000000004) scale(0.9999999999999999,0.9999999999999999)"><g class="offset" transform="translate(0 0) rotate(0 280.2854919433594 2.528858184814453) scale(1 1)"><path id="bottom-patch-left-knee" d="M319.44,938c1.16,9.59,0,22.08-3.89,22.87-2.53.51-3.42-4.57-9.9-8.87s-13.65-4.46-19.87-4.55c-6-.09-12.89-.19-19.66,3.7-7.68,4.41-9.49,10.64-12.57,9.84-3.72-1-4.12-10.86-4.24-13.87-.34-8.81-.85-21.52,8.47-30.58,8.9-8.65,20.9-8.28,27.63-8.08,6,.19,19.18.59,27.41,10.43C317.85,924.91,318.66,931.63,319.44,938Z" fill="#595f5e" transform="translate(-303.19 -655.05) rotate(-93.30282752645938 303.19 655.05) scale(1 1)" data-centerX="280.2854919433594" data-centerY="2.528858184814453" class="color-bottom"/></g></g><g class="part bottom-left-knee" transform="translate(-38.0734748840332, -18.572526931762695) rotate(93.00000000000004) scale(0.9999999999999999,0.9999999999999999)"/><g class="part shoe-left-foot" transform="translate(-172.13365173339844, 542.6239624023438) rotate(94.00000000000003) scale(1,1)"><g class="offset" transform="translate(0 0) rotate(0 32.272231101989746 -7.814418792724609) scale(1 1)"><g id="shoe-left-foot3-3" transform="translate(-279.4 -1242.23) rotate(-90.97102193107916 279.4 1242.23) scale(1 1)" data-centerX="32.272231101989746" data-centerY="-7.814418792724609">
            <path d="M337.73,1302.05l-.14,7.77s-4.82,1.31-6.49,4.41c-1.37,2.53-17.85-1.51-17.85-1.51v-7s8.65-1.4,14.56-2.57A54.87,54.87,0,0,1,337.73,1302.05Z" stroke="#000" stroke-miterlimit="10"/>
            <path d="M327.7,1274.58c3.4,3.36,10.18,9.23,10.71,13.15a31.13,31.13,0,0,1-2.18,15.71,14.2,14.2,0,0,0-5.81,2.31c-3.33,2.1-27.12,2.55-27.12,2.55l-13.89-1.41s-6.15-15.1-1.22-26.4,16.6-15.71,16.6-15.71,8.91.29,13.63,2.53S324.31,1271.21,327.7,1274.58Z" fill="#6f4c35" stroke="#000" stroke-miterlimit="10" class="color-shoe"/>
            <path d="M315.41,1259.92s-16-7.55-18.38-6.45-3.85,16.45-3.1,22.49a32.9,32.9,0,0,0,3.1,10.42s20,1.55,24.73,2.65,9.18,18.59,9.18,18.59,3.34-19.34,1-24.83S315.41,1259.92,315.41,1259.92Z" fill="#6f4c35" stroke="#000" stroke-miterlimit="10" class="color-shoe"/>
            <path d="M281.41,1306.89c17.59,0,49.53.73,49.53.73s.36-12,0-18.59c-.49-9-8.53-15.8-13.07-26.12-3.9-8.84-5.17-18-7.51-24.59-1.66-4.66-19.53-10-31.26-10-12.91,0-24.12,2.2-27.64,8.78-2.62,4.9-1.63,15-7.49,24.82s-8.79,18-8.79,23.44,1.23,22.93,1.23,22.93S260.29,1306.89,281.41,1306.89Z" fill="#6f4c35" stroke="#000" stroke-miterlimit="10" class="color-shoe"/>
            <path d="M320.65,1306.89s-12.52-6.84-16.13-10.58S291,1276.37,280.87,1270s-17.8-4.1-17.8-4.1v-7.17l1.66-3.34s-10-14.27-11.4-13.7-2.78,14.23-4.17,17.27-7.59,13.33-9.5,18.9-.55,29.07-.55,29.07,26.46,2.39,34.81,2.93S320.65,1306.89,320.65,1306.89Z" opacity="0.25"/>
            <path d="M280.14,1320.94c20.53,0,51.72-5.56,51.72-5.56l.47-7.68s-33.55-1.88-47.23-1.88c-15.06,0-50.4,1.88-50.4,1.88l1.24,7.68A179.58,179.58,0,0,0,280.14,1320.94Z" stroke="#000" stroke-miterlimit="10"/>
            <path d="M238.11,1313.41a10.91,10.91,0,0,1-1.32-2.42,4.62,4.62,0,0,1-.32-1.39,1.51,1.51,0,0,1,.6-1.4,3.64,3.64,0,0,1,1.43-.38c.46-.07.92-.12,1.37-.16.92-.1,1.83-.17,2.75-.25,3.66-.27,7.32-.41,11-.53s7.33-.17,11-.16,7.33,0,11,.17c-3.66.26-7.32.43-11,.59s-7.32.28-11,.4l-11,.31c-.91,0-1.83.06-2.74.11-.45,0-.91,0-1.36.09a3.36,3.36,0,0,0-1.22.23,1.06,1.06,0,0,0-.48,1,4.22,4.22,0,0,0,.19,1.3A14.09,14.09,0,0,0,238.11,1313.41Z" fill="#fff" opacity="0.8"/>
            <path d="M275.9,1228.36s-2.37,29.25-3.2,31.56-4.07,12.11-4.62,20.15,1.33,25.68,1.33,25.68" fill="none" stroke="#000" stroke-miterlimit="10"/>
          </g></g></g><g class="part shoe-left-lowerleg" transform="translate(-54.23392105102539, 289.7872009277344) rotate(115.00000000000003)"/><g class="part hips" transform="rotate(-90)"><g class="offset" transform="translate(0 0) rotate(0 14.914375305175781 4.430244445800781) scale(1 1)"><g id="hips-2" transform="translate(-341.4 -673.34) rotate(90.42440541936149 341.4 673.34) scale(1 1)" data-centerX="14.914375305175781" data-centerY="4.430244445800781">
        <path d="M253.66,597.36c4.12-5.47,21.6-19.68,100.78-15.31s90.49,24.06,90.49,24.06S456.22,642.3,449,662s-63.45,68.11-69.62,70.29-33.67,4.43-42.78,2.59c-7.71-1.56-45.22-12.1-66.71-31.87s-34.62-68.62-28.26-86C247.31,601.49,251.72,599.94,253.66,597.36Z" fill="#E2B08B" class="color-skin"/>
        <path d="M241.7,644.44c-2.11-11.29-2.29-21.33,0-27.46,5.66-15.49,10.07-17,12-19.62,4.12-5.47,21.6-19.68,100.78-15.31s90.49,24.06,90.49,24.06S456.22,642.3,449,662s-63.45,68.11-69.62,70.29-33.67,4.43-42.78,2.59c-1.93-.39-5.72-1.34-10.65-2.86" fill="none" stroke="#000" stroke-miterlimit="10"/>
      </g></g></g><g class="part bottom-hips" transform="rotate(-90)"><g class="offset" transform="translate(0 0) rotate(0 14.914375305175781 4.430244445800781) scale(1 1)"><g id="bottom-hips-pants2-3" transform="translate(-341.4 -673.34) rotate(90.42440541936149 341.4 673.34) scale(1 1)" data-centerX="14.914375305175781" data-centerY="4.430244445800781">
            <path d="M253.66,597.36c4.12-5.47,21.6-19.68,100.78-15.31s90.49,24.06,90.49,24.06S456.22,642.3,449,662s-63.45,68.11-69.62,70.29-33.67,4.43-42.78,2.59c-7.71-1.56-45.22-12.1-66.71-31.87s-34.62-68.62-28.26-86C247.31,601.49,251.72,599.94,253.66,597.36Z" fill="#595f5e" class="color-bottom"/>
            <path d="M241.7,644.44c-2.11-11.29-2.29-21.33,0-27.46,5.66-15.49,10.07-17,12-19.62,4.12-5.47,21.6-19.68,100.78-15.31s90.49,24.06,90.49,24.06S456.22,642.3,449,662s-63.45,68.11-69.62,70.29-33.67,4.43-42.78,2.59c-1.93-.39-5.72-1.34-10.65-2.86" fill="none" stroke="#000" stroke-miterlimit="10"/>
          </g></g></g><g class="part right-thigh" transform="translate(37.998958587646484, 0.2814737558364868) rotate(58.00000000000001)"><g class="offset" transform="translate(0 0) rotate(0 118.23540496826172 7.153770446777344) scale(1 1)"><path id="right-thigh" d="M455.43,660.56c2.54,7.55,14.9,39.52,16.57,57.58,1.93,20.94,4.58,73.46,1.93,97.37-2.9,26.18-20.84,128.54-23.34,139.32-.25,1.08-2,22.51-21,26.83-29.44,6.68-42.76-15.38-42.76-15.38-2.49-17.8-10.79-47.54-16.37-63.77-5.77-16.77-10.74-77.57-11.56-90.14s-7.57-35.16-12.7-59.68c0,0-49.09-28.11-44.36-88,4.93-62.56,73.7-65.14,89.46-64.65C451,601.92,455.43,660.56,455.43,660.56Z" fill="#E2B08B" stroke="#000" stroke-miterlimit="10" transform="translate(-379.4 -673.34) rotate(-82.23690661794124 379.4 673.34) scale(1 1)" data-centerX="118.23540496826172" data-centerY="7.153770446777344" class="color-skin"/></g></g><g class="part bottom-right-thigh" transform="translate(37.998958587646484, 0.2814737558364868) rotate(58.00000000000001)"><g class="offset" transform="translate(0 0) rotate(0 118.67475891113281 7.8093109130859375) scale(1 1)"><g id="bottom-right-thigh-pants2-3" transform="translate(-379.4 -673.34) rotate(-82.23690661794124 379.4 673.34) scale(1 1)" data-centerX="118.67475891113281" data-centerY="7.8093109130859375">
            <path id="_Path_29" d="M458,658.83c2.66,7.68,15.61,40.18,17.35,58.54,2,21.29,4.8,74.69,2,99C474.38,843,455.59,947.06,453,958c-.26,1.1-2.07,22.89-22,27.28-30.83,6.79-43.26-13-43.26-13-11.72-21.57-14.94-49.19-19.66-67.45-4.52-17.51-10.24-78.87-11.1-91.64S349,779.43,343.65,754.5c0,0-51.41-30.58-46.46-91.46,5.17-63.61,77.19-66.23,93.69-65.73C453.41,599.21,458,658.83,458,658.83Z" fill="#595f5e" stroke="#000" stroke-miterlimit="10" class="color-bottom"/>
            <path d="M387.66,970.68c-.5-1.22,1.35-5,6-14.1,4.26-8.3,9.57-18.62,8.92-21.52-2-9-5.44-101.73-5.44-118.07,0-4.5-1.67-13.74-3.61-24.43-3.47-19.14-7.78-43-6.32-58.3.1-1-2.31-7.84-5.1-15.7-5.8-16.31-14.57-41-15.66-54.39-1.41-17.27-4.65-59.7-4.68-60.12l1-.08c0,.43,3.27,42.85,4.67,60.12,1.09,13.29,9.83,37.87,15.61,54.14,3.47,9.76,5.28,14.91,5.16,16.13-1.45,15.2,2.85,38.94,6.31,58,1.94,10.74,3.62,20,3.62,24.61,0,16.32,3.42,108.85,5.42,117.86.72,3.24-4.23,12.87-9,22.19-2.82,5.47-6.32,12.28-6,13.26Z" fill="#fff" opacity="0.16"/>
            <rect x="368.87" y="600.01" width="1" height="3" transform="translate(-36.52 24.01) rotate(-3.55)" fill="#fff" opacity="0.16"/>
            <path d="M402.35,966.47l-1-.3c.53-1.73,1.15-3.65,1.8-5.68l.95.31C403.49,962.82,402.88,964.74,402.35,966.47ZM406,955.14l-1-.31c.61-1.89,1.23-3.79,1.81-5.66l1,.3C407.2,951.34,406.59,953.25,406,955.14Zm3.54-11.37-1-.28c.67-2.3,1.16-4.17,1.51-5.73l1,.22C410.68,939.56,410.18,941.45,409.51,943.77Zm.9-11.7c-.2-1.28-.44-3.28-.69-6l1-.09c.26,2.65.49,4.63.69,5.9Zm-1.2-11.9c-.15-1.84-.3-3.83-.46-5.95l1-.07c.16,2.11.3,4.1.45,5.94Zm-.87-11.9c-.13-1.91-.26-3.9-.39-5.94l1-.07q.19,3.07.39,6Zm-.75-11.89q-.18-2.93-.36-5.94l1-.06q.18,3,.35,5.94Zm-.7-11.89c-.11-2-.22-4-.32-6l1,0q.15,3,.32,5.94Zm-.64-11.9-.3-6,1,0c.09,2,.2,4,.3,5.95Zm-.6-11.9c-.09-2-.19-4-.28-6l1,0q.13,2.92.28,5.94Zm-.55-11.9c-.09-2-.17-4-.25-5.95l1,0c.08,1.92.16,3.91.25,6Zm-.49-11.9q-.12-3.18-.21-6l1,0q.09,2.77.21,6ZM404.23,825c-.05-2-.08-3.69-.08-5,0-.3,0-.63,0-1l1,0c0,.36,0,.7,0,1,0,1.28,0,3,.08,5Zm-.71-11.82c-.23-1.64-.53-3.56-.92-5.86l1-.17c.39,2.32.69,4.25.92,5.89Zm-1.92-11.72q-.48-2.71-1-5.64l0-.22,1-.17,0,.22c.34,1.94.68,3.83,1,5.63Zm-2.09-11.71q-.5-2.88-1-5.87l1-.17c.34,2,.68,4,1,5.86Zm-2-11.74q-.48-2.93-.92-5.88l1-.15c.29,2,.6,3.93.91,5.87Zm-1.75-11.78c-.27-2-.51-4-.74-5.91l1-.12c.22,2,.46,3.92.73,5.9Zm-1.35-11.84c-.18-2.05-.33-4.05-.44-6l1,0c.11,1.88.26,3.87.44,5.91Zm-.66-11.91c0-.55,0-1.1,0-1.64,0-1.52,0-3,.1-4.33l1,0c-.06,1.34-.09,2.78-.09,4.29,0,.53,0,1.08,0,1.62Zm-.42-11.64c-.41-1.26-1-2.94-2-5.6l.94-.34c1,2.67,1.57,4.35,2,5.63Zm-4-11.18c-.65-1.75-1.34-3.63-2.05-5.59l.94-.34c.71,2,1.4,3.83,2,5.58Zm-4.07-11.2c-.64-1.82-1.3-3.7-1.95-5.62l.94-.32c.66,1.91,1.31,3.79,2,5.61Zm-3.84-11.27c-.62-1.87-1.22-3.77-1.81-5.67l1-.3c.58,1.9,1.19,3.79,1.8,5.66Zm-3.51-11.39c-.57-2-1.1-3.92-1.57-5.75l1-.25c.47,1.82,1,3.74,1.56,5.73Zm-3-11.55c-.45-2-.84-4-1.16-5.86l1-.17c.32,1.83.71,3.79,1.16,5.82Zm-2-11.79c-.13-1.44-.29-3.48-.48-5.95l1-.07c.18,2.46.34,4.5.47,5.93Zm-.91-11.89c-.13-1.87-.27-3.86-.41-5.94l1-.06c.14,2.07.28,4.06.41,5.93Zm-.81-11.87-.39-5.94,1-.07.39,5.94Zm-.78-11.88-.38-5.94,1-.06.38,5.93Zm-.76-11.88-.37-5.94,1-.06.37,5.94Z" fill="#fff" opacity="0.16"/>
            <path d="M399.59,974.61c-.14-.34-.21-1,.34-3.26l1,.24c-.52,2.14-.41,2.58-.39,2.64Z" fill="#fff" opacity="0.16"/>
          </g></g></g><g class="part right-lowerleg" transform="translate(189.74368286132812, 243.12379455566406) rotate(108.00000000000001)"><g class="offset" transform="translate(0 0) rotate(0 142.0413303375244 1.4605522155761719) scale(1 1)"><g id="right-lowerleg-3" transform="translate(-418.08 -957.07) rotate(-92.91414502284901 418.08 957.07) scale(1 1)" data-centerX="142.0413303375244" data-centerY="1.4605522155761719">
        <path d="M449.79,949.87c5.07,7.61,9.38,22.47,9.38,28.79,0,8.59-8.95,26.4-9.31,33.58-.39,7.8-1.94,20-1.94,29.28s-19.76,195.57-20.07,201.92c-.24,4.85-4.05,21.4-24.76,21.4-17.61,0-25.12-12.14-25.3-21.4-.1-5.6-3.48-89-5.6-146.89-1.11-30.47-12.56-44.17-12.56-68.82s8.6-39.56,13.81-47.08c2.94-4.25,7.4-12.59,12.18-17.64,0,0-.56-24.89,28.85-29.63C439.13,929.4,449.79,949.87,449.79,949.87Z" fill="#E2B08B" stroke="#000" stroke-miterlimit="10" class="color-skin"/>
        <path d="M439.4,956a77.54,77.54,0,0,1,1.36,16.14,103.5,103.5,0,0,1-2.52,16.46s9.41-11.93,9.41-19.52S439.4,956,439.4,956Z" opacity="0.25"/>
      </g></g></g><g class="part patch-right-knee" transform="translate(37.998958587646484, 0.2814737558364868) rotate(58.00000000000001)"><g class="offset" transform="translate(0 0) rotate(0 260.6227035522461 -3.3153457641601562) scale(1 1)"><path id="patch-right-knee" d="M450.76,937.89c0,2,.92,13.9-4.68,16.65-3.66,1.8-6.39-2.08-16.19-4.16a45.92,45.92,0,0,0-20-.06c-10.11,2.45-12.46,7.61-17,6.16-5.64-1.81-8.23-11.52-7.9-18.59.62-13.62,12.75-32.37,32.91-32.37C436,905.52,450.76,920,450.76,937.89Z" fill="#E2B08B" transform="translate(-379.4 -673.34) rotate(-82.23690661794124 379.4 673.34) scale(1 1)" data-centerX="260.6227035522461" data-centerY="-3.3153457641601562" class="color-skin"/></g></g><g class="part right-foot" transform="translate(100.02819061279297, 519.2396850585938) rotate(91)"><g class="offset" transform="translate(0 0) rotate(0 24.61397933959961 -47.237884521484375) scale(1 1)"><g id="right-foot3" transform="translate(-403.32 -1247.02) rotate(-88.8308606720926 403.32 1247.02) scale(1 1)" data-centerX="24.61397933959961" data-centerY="-47.237884521484375">
        <path id="_Path_4" d="M379.42,1250c-2.12,4-13.05,44.6-13.05,44.6s0,11.91,7.45,15.88,20.21,4,31.92,4,34.77-3,38.3-3c3.19,0,41.5,4,47.88,4a50.54,50.54,0,0,0,12.83-2s2.82,2,10.84,1c2.56-.32,6.06-1.72,9.84-2.13a15.41,15.41,0,0,0,8-3.83c2.46-2.7,2.5-5.28,2.13-8.7-.54-5-5.32-6-11.71-6s-11.25-.07-17-2c-5.52-1.84-41.5-14.12-50-18.09s-22.76-19.53-27.84-23.66c0,0-.84-24.22-24.61-24.22C378.51,1225.84,379.42,1250,379.42,1250Z" fill="#E2B08B" stroke="#000" stroke-miterlimit="10" class="color-skin"/>
        <path d="M514.62,1314.23s3.41.15,3.53-4.39c.1-4.09-6.91-4.09-6.91-4.09h-3.67" fill="none" stroke="#000" stroke-miterlimit="10"/>
        <path d="M518,1313.38s5,.9,5-6.62c0-3.08-5-3.58-5-3.58h-7.38" fill="none" stroke="#000" stroke-miterlimit="10"/>
        <path d="M521.65,1312.7s5,.88,5-7.62c0-3.47-5-4-5-4h-8.9" fill="none" stroke="#000" stroke-miterlimit="10"/>
        <path d="M525.43,1312.29s5.05-.12,5-8.63c0-3.48-5-4-5-4h-9.15" fill="none" stroke="#000" stroke-miterlimit="10"/>
      </g></g></g><g class="part patch-right-ankle" transform="translate(189.74368286132812, 243.12379455566406) rotate(108.00000000000001)"><g class="offset" transform="translate(0 0) rotate(0 283.17225646972656 1.1050872802734375) scale(1 1)"><circle id="patch-right-ankle" cx="402.58" cy="1239.82" r="24.16" fill="#E2B08B" transform="translate(-418.08 -957.07) rotate(-92.91414502284901 418.08 957.07) scale(1 1)" data-centerX="283.17225646972656" data-centerY="1.1050872802734375" class="color-skin"/></g></g><g class="part sock-right-lowerleg" transform="translate(189.74368286132812, 243.12379455566406) rotate(108.00000000000001)"/><g class="part sock-right-foot" transform="translate(100.02819061279297, 519.2396850585938) rotate(91)"/><g class="part sock-patch-right-ankle" transform="translate(189.74368286132812, 243.12379455566406) rotate(108.00000000000001)"/><g class="part bottom-right-lowerleg" transform="translate(189.74368286132812, 243.12379455566406) rotate(108.00000000000001)"><g class="offset" transform="translate(0 0) rotate(0 135.90587997436523 1.6577720642089844) scale(1 1)"><g id="bottom-right-lowerleg-pants2-3" transform="translate(-418.08 -957.07) rotate(-92.91414502284901 418.08 957.07) scale(1 1)" data-centerX="135.90587997436523" data-centerY="1.6577720642089844">
            <path d="M446.36,938.31c5.84,8.54,15.74,31.77,15.74,41,0,11.68-8.45,31.34-8.45,41s-5.85,220.19-7.47,226.59-37.72,11.61-45,11.61-42-1.07-41-9.61c.71-5.77,6.11-85.8,4-146-1.12-31.67-7.25-52.5-7.25-78.12s5.77-39.77,11.46-47.24c3.74-4.91,8.75-13.77,13.54-19,0,0,7.27-28.15,31.13-31.79C437.5,922.92,446.36,938.31,446.36,938.31Z" fill="#595f5e" stroke="#000" stroke-miterlimit="10" class="color-bottom"/>
            <path d="M376.42,1255.37l-1,0c.05-1.34,5.24-133.71,4.26-152.47-1-19.5-1.1-82.8-.11-99.61.54-9.18,5.93-22.61,16-39.93l.86.5c-10,17.19-15.36,30.47-15.89,39.49-1,16.79-.92,80,.1,99.5C381.66,1121.61,376.47,1254,376.42,1255.37Z" fill="#fff" opacity="0.16"/>
            <path d="M402.13,969.7l-.9-.44c.54-1.1,1-2,1.42-2.68l.86.5C403.13,967.74,402.66,968.62,402.13,969.7Z" fill="#fff" opacity="0.16"/>
            <path d="M383.75,1249.79l-1,0,.23-5.9,1,0Zm.45-11.79-1,0,.22-5.89,1,0Zm.43-11.79-1,0,.21-5.89,1,0Zm.42-11.78-1,0,.21-5.89,1,0Zm.42-11.78-1,0,.2-5.89,1,0Zm.4-11.78-1,0,.19-5.89,1,0Zm.38-11.79-1,0,.19-5.89,1,0Zm.37-11.78-1,0,.18-5.89,1,0Zm.35-11.78-1,0,.16-5.89,1,0Zm.32-11.79-1,0c0-2,.09-4,.14-5.89l1,0C387.38,1139.75,387.34,1141.72,387.29,1143.73Zm.27-11.79-1,0c0-2,.08-4,.11-5.89l1,0C387.64,1127.93,387.6,1129.9,387.56,1131.94Zm.2-11.79-1,0c0-2.13,0-4.11,0-5.89h1C387.8,1116,387.78,1118,387.76,1120.15Zm-1-11.78c0-1-.05-1.82-.08-2.51-.06-1-.11-2.14-.15-3.37l1,0c0,1.21.09,2.33.14,3.35,0,.69.07,1.54.09,2.53Zm-.4-11.77c0-1.84-.08-3.81-.11-5.89h1c0,2.07.07,4,.11,5.88Zm-.17-11.78c0-1.9,0-3.87,0-5.88h1c0,2,0,4,0,5.89Zm.95-11.77h-1v-.24c0-1.86,0-3.75,0-5.65h1c0,1.89,0,3.78,0,5.64Zm0-11.77h-1c0-2,0-3.93,0-5.89h1C387.21,1057.35,387.19,1059.31,387.18,1061.28Zm.1-11.77-1,0c0-2,.05-4,.08-5.88h1C387.33,1045.55,387.31,1047.52,387.28,1049.51Zm.18-11.77-1,0q0-3,.11-5.89l1,0Q387.51,1034.7,387.46,1037.74Zm.25-11.77-1,0c.06-2.11.12-4.08.19-5.89l1,0C387.83,1021.89,387.77,1023.86,387.71,1026Zm.43-11.76-1-.05.08-1.46a43,43,0,0,1,.53-4.45l1,.16a41.39,41.39,0,0,0-.52,4.35Zm1.81-11.52-1-.24c.44-1.79,1-3.7,1.57-5.7l1,.29C390.91,999,390.39,1000.92,390,1002.69Zm3.35-11.24-.94-.32c.61-1.81,1.28-3.68,2-5.56l.94.35C394.58,987.79,393.92,989.65,393.3,991.45Zm4.1-11-.93-.38c.76-1.88,1.53-3.71,2.29-5.44l.91.4C398.92,976.74,398.16,978.56,397.4,980.44Z" fill="#fff" opacity="0.16"/>
            <rect x="381.48" y="1256.35" width="3" height="1" transform="matrix(0.04, -1, 1, 0.04, -887.86, 1590.48)" fill="#fff" opacity="0.16"/>
            <path d="M438.4,955a77.54,77.54,0,0,1,1.36,16.14,103.5,103.5,0,0,1-2.52,16.46s9.41-11.93,9.41-19.52S438.4,955,438.4,955Z" opacity="0.25"/>
          </g></g></g><g class="part bottom-boot-right-lowerleg" transform="translate(189.74368286132812, 243.12379455566406) rotate(108.00000000000001)"/><g class="part bottom-patch-right-knee" transform="translate(37.998958587646484, 0.2814737558364868) rotate(58.00000000000001)"><g class="offset" transform="translate(0 0) rotate(0 260.7360610961914 -3.2327041625976562) scale(1 1)"><path id="bottom-patch-right-knee" d="M451.43,938.3c0,.67,1.39,14.09-4.79,17.32-4.06,2.12-7.4-2.21-18.68-4a49.2,49.2,0,0,0-19.13.42c-10.06,2.39-12.3,7-16.64,5.57-5.73-1.85-8.42-12-8.08-19.33.63-14.13,13-33.66,33.66-33.66A33.66,33.66,0,0,1,451.43,938.3Z" fill="#595f5e" transform="translate(-379.4 -673.34) rotate(-82.23690661794124 379.4 673.34) scale(1 1)" data-centerX="260.7360610961914" data-centerY="-3.2327041625976562" class="color-bottom"/></g></g><g class="part bottom-right-knee" transform="translate(37.998958587646484, 0.2814737558364868) rotate(58.00000000000001)"/><g class="part shoe-right-foot" transform="translate(100.02819061279297, 519.2396850585938) rotate(91)"><g class="offset" transform="translate(0 0) rotate(0 37.865517139434814 -51.348052978515625) scale(1 1)"><g id="shoe-right-foot3-3" transform="translate(-403.32 -1247.02) rotate(-88.8308606720926 403.32 1247.02) scale(1 1)" data-centerX="37.865517139434814" data-centerY="-51.348052978515625">
            <path d="M359.18,1262.52a62.66,62.66,0,0,0-4,21.5c0,7.75,4.91,24.2,4.91,24.2v13.55h56l3.93-10.64s12.77,0,18.66,1.93l26.54,8.71h28s20-2.26,36-7.27c14.07-4.41,23.56-11.38,24-14.56,1-7.27,1-9.35-8.41-15.92-9.6-6.7-40.35-.37-54.59-2.79s-33.82-20.44-33.82-20.44l-2.95-16.46a60.38,60.38,0,0,0-13.23,2.6c-6,2.08-13.29,7.08-13.29,7.08s-17.71,2.28-29.71,2.28-32-6.24-32-6.24S362.18,1254.21,359.18,1262.52Z" fill="#6f4c35" stroke="#000" stroke-miterlimit="10" class="color-shoe"/>
            <path d="M420.63,1310.41l-60.95-2.67-.95,15.59h58.55l2.29-8.31h14.11c6,0,28,8.31,31,8.31h29c25,0,50-7.27,62-19.75v-7.27s-25,21.83-63,22.86c-10,.28-23,0-28,0s-25-8.31-30-8.31-14.05-.45-14.05-.45"/>
            <path d="M454.68,1263a4.56,4.56,0,0,1-3,4.16c-3,1-13,4.16-13,4.16h13a11.46,11.46,0,0,0,9-4.16Z" fill="#fff" opacity="0.8"/>
            <path d="M533.68,1283.83l7,1s-4,4.16-7,5.2a55.9,55.9,0,0,1-17,3.12c-7,0-17,1-17,1s18-4.16,24-6.24A82.3,82.3,0,0,0,533.68,1283.83Z" fill="#fff" opacity="0.8"/>
            <path d="M359.26,1262.52a62.9,62.9,0,0,0-4,21.5c0,7.75,4.92,24.2,4.92,24.2l59.92,2.91s14.61-18.62,17.08-20.54c8-6.24,41-14.55,39-15.59-12.91-6.71-20-14.56-20-14.56l-8-11.43L427,1254s-17.71,2.28-29.71,2.28-32-6.24-32-6.24S362.26,1254.21,359.26,1262.52Z" fill="#6f4c35" stroke="#000" stroke-miterlimit="10" class="color-shoe"/>
            <ellipse cx="450.1" cy="1257.47" rx="1.3" ry="1.53" transform="translate(-681.45 547.94) rotate(-38.22)"/>
            <path d="M450.32,1259.42a2.07,2.07,0,0,1-1.48-.66,2,2,0,0,1-.17-2.73,1.66,1.66,0,0,1,1.2-.5h0a2.1,2.1,0,0,1,1.48.65,2,2,0,0,1,.16,2.74,1.64,1.64,0,0,1-1.2.5Zm-.44-2.89h0a.63.63,0,0,0-.48.19,1,1,0,0,0,.15,1.35,1.12,1.12,0,0,0,.77.35h0a.65.65,0,0,0,.48-.19,1,1,0,0,0-.16-1.35A1.06,1.06,0,0,0,449.88,1256.53Z" fill="#494949"/>
            <ellipse cx="453.35" cy="1262.91" rx="1.3" ry="1.53" transform="translate(-684.12 551.12) rotate(-38.22)"/>
            <path d="M453.57,1264.86a2.07,2.07,0,0,1-1.48-.66,2,2,0,0,1-.17-2.73,1.69,1.69,0,0,1,1.21-.51h0a2.07,2.07,0,0,1,1.48.66h0a2,2,0,0,1,.16,2.74,1.64,1.64,0,0,1-1.2.5Zm-.44-2.9h0a.65.65,0,0,0-.48.2,1,1,0,0,0,.16,1.35,1.08,1.08,0,0,0,.76.35h0a.63.63,0,0,0,.48-.19,1,1,0,0,0-.16-1.35A1.05,1.05,0,0,0,453.13,1262Z" fill="#494949"/>
            <ellipse cx="457.6" cy="1267.31" rx="1.3" ry="1.53" transform="translate(-685.93 554.7) rotate(-38.22)"/>
            <path d="M457.82,1269.26a2.1,2.1,0,0,1-1.48-.66,2,2,0,0,1-.16-2.73,1.65,1.65,0,0,1,1.2-.51h0a2.07,2.07,0,0,1,1.48.66h0a2,2,0,0,1,.17,2.74,1.66,1.66,0,0,1-1.2.5Zm-.44-2.9h0a.66.66,0,0,0-.48.2,1,1,0,0,0,.16,1.35,1.1,1.1,0,0,0,.76.35h0a.63.63,0,0,0,.47-.19,1,1,0,0,0-.15-1.35h0A1.09,1.09,0,0,0,457.38,1266.36Z" fill="#494949"/>
            <ellipse cx="463.56" cy="1271.41" rx="1.3" ry="1.53" transform="translate(-687.18 559.26) rotate(-38.22)"/>
            <path d="M463.78,1273.36a2.1,2.1,0,0,1-1.48-.66,2,2,0,0,1-.16-2.74,1.66,1.66,0,0,1,1.2-.5h0a2.11,2.11,0,0,1,1.49.66,2,2,0,0,1,.16,2.73,1.67,1.67,0,0,1-1.2.51Zm-.44-2.9h0a.66.66,0,0,0-.48.19A1,1,0,0,0,463,1272a1.09,1.09,0,0,0,.76.36h0a.68.68,0,0,0,.48-.2,1,1,0,0,0-.16-1.35A1.12,1.12,0,0,0,463.34,1270.46Z" fill="#494949"/>
            <path d="M451.79,1261.24c-4.12,0-4.12-3.83-4.12-5.89,0-3.5,1.63-5.28,4.84-5.28,3.43,0,5.55,2,5.55,5.28A6.09,6.09,0,0,1,451.79,1261.24Zm.72-10.17c-2.65,0-3.84,1.32-3.84,4.28,0,3.17.5,4.89,3.12,4.89a5.09,5.09,0,0,0,5.27-4.89C457.06,1252.63,455.4,1251.07,452.51,1251.07Z" fill="#727272"/>
            <path d="M449.12,1268.36l-.45-.89s3.42-1.73,4.07-4.46c.75-3.07,4.3-7.21,4.45-7.38l.75.65s-3.54,4.13-4.22,7C453,1266.43,449.28,1268.29,449.12,1268.36Z" fill="#727272"/>
            <ellipse cx="457.2" cy="1255.65" rx="1.81" ry="2.09" fill="#727272"/>
            <polygon points="457.35 1257.79 455.92 1254.12 456.15 1254.03 457.58 1257.7 457.35 1257.79" opacity="0.24"/>
            <polygon points="456.87 1256.31 456.63 1256.24 457.34 1253.7 457.58 1253.77 456.87 1256.31" opacity="0.24"/>
            <rect x="457.85" y="1254.03" width="0.25" height="2.06" transform="translate(-875.97 1329.26) rotate(-73.14)" opacity="0.24"/>
            <rect x="450.5" y="1256.31" width="6.35" height="1" transform="translate(-387.04 218.26) rotate(-19.14)" fill="#727272"/>
            <rect x="453.14" y="1260.98" width="5.07" height="1" transform="translate(-679.35 546.85) rotate(-37.94)" fill="#727272"/>
            <rect x="456.61" y="1264.62" width="5.13" height="1" transform="translate(-835.11 896.08) rotate(-54.14)" fill="#727272"/>
            <rect x="462.61" y="1268.78" width="5.13" height="1" transform="translate(-836 902.66) rotate(-54.14)" fill="#727272"/>
            <path d="M488.68,1282.79a51.89,51.89,0,0,0,8,1h8s-4,4.16-8,4.16S488.68,1282.79,488.68,1282.79Z" opacity="0.25"/>
          </g></g></g><g class="part shoe-right-lowerleg" transform="translate(189.74368286132812, 243.12379455566406) rotate(108.00000000000001)"/><g class="part glasses-front" transform="translate(16.702132146376137 -465.58622559360003) rotate(-80.09586640290678 0 0) scale(1 1)"/><g class="part beard-front" transform="translate(16.702132146376137 -465.58622559360003) rotate(-80.09586640290678 0 0) scale(1 1)"/><g class="part hat-front" transform="translate(16.702132146376137 -465.58622559360003) rotate(-80.09586640290678 0 0) scale(1 1)"/><g class="part bang" transform="translate(16.702132146376137 -465.58622559360003) rotate(-80.09586640290678 0 0) scale(1 1)"/><g class="part mask" transform="translate(16.702132146376137 -465.58622559360003) rotate(-80.09586640290678 0 0) scale(1 1)"/><g class="part earring-left" transform="translate(16.702132146376137 -465.58622559360003) rotate(-80.09586640290678 0 0) scale(1 1)"/><g class="part left-ear" transform="translate(16.702132146376137 -465.58622559360003) rotate(-80.09586640290678 0 0) scale(1 1)"/><g class="part piercing-left-ear" transform="translate(16.702132146376137 -465.58622559360003) rotate(-80.09586640290678 0 0) scale(1 1)"/><g class="part left-whites" transform="translate(16.702132146376137 -465.58622559360003) rotate(-80.09586640290678 0 0) scale(1 1)"/><g class="part left-iris" transform="translate(16.702132146376137 -465.58622559360003) rotate(-80.09586640290678 0 0) scale(1 1)"/><g class="part left-eye" transform="translate(16.702132146376137 -465.58622559360003) rotate(-80.09586640290678 0 0) scale(1 1)"/><g class="part left-brow" transform="translate(16.702132146376137 -465.58622559360003) rotate(-80.09586640290678 0 0) scale(1 1)"/><g class="part piercing-left-brow" transform="translate(16.702132146376137 -465.58622559360003) rotate(-80.09586640290678 0 0) scale(1 1)"/><g class="part nose" transform="translate(16.702132146376137 -465.58622559360003) rotate(-80.09586640290678 0 0) scale(1 1)"/><g class="part piercing-nose" transform="translate(16.702132146376137 -465.58622559360003) rotate(-80.09586640290678 0 0) scale(1 1)"/><g class="part mouth" transform="translate(16.702132146376137 -465.58622559360003) rotate(-80.09586640290678 0 0) scale(1 1)"/><g class="part piercing-mouth" transform="translate(16.702132146376137 -465.58622559360003) rotate(-80.09586640290678 0 0) scale(1 1)"/><g class="part right-whites" transform="translate(16.702132146376137 -465.58622559360003) rotate(-80.09586640290678 0 0) scale(1 1)"/><g class="part right-iris" transform="translate(16.702132146376137 -465.58622559360003) rotate(-80.09586640290678 0 0) scale(1 1)"/><g class="part right-eye" transform="translate(16.702132146376137 -465.58622559360003) rotate(-80.09586640290678 0 0) scale(1 1)"/><g class="part chin" transform="translate(16.702132146376137 -465.58622559360003) rotate(-80.09586640290678 0 0) scale(1 1)"/><g class="part head" transform="translate(16.702132146376137 -465.58622559360003) rotate(-80.09586640290678 0 0) scale(1 1)"><g class="offset" transform="translate(0 0) rotate(0 58.554718017578125 13.574203491210938) scale(1 1)"><g id="head3-1-2" transform="translate(-346.58 -275) rotate(89.34406284288659 346.58 275) scale(1 1)" data-centerX="58.554718017578125" data-centerY="13.574203491210938">
          <path id="_Path_5" d="M278.85,205.81c.11-5,.41-38.06,7.95-52.31,9-17,28-33,43-39,17.62-7,50.68-3.11,66,2,18,6,35.73,29.32,40.1,40.58,3.4,8.76,3.9,30.42,3.9,30.42s3,15.87,3,20c0,5-6,15-6,15s4,12,4,19c0,9-9,34-15,45-3.86,7.07-9.94,25.06-13,28s-11,8.16-19,8-20-1-25-4c-3.62-2.18-21-16-27-21-3.31-2.76-18-12-21-15-9.05-9.06-13-29-16.87-32.15-2.19-1.78-14.83-8.32-18.69-15.4S278.75,210.81,278.85,205.81Z" fill="#E2B08B" stroke="#000" stroke-miterlimit="10" class="color-skin"/>
          <path d="M397.42,320.81a9.39,9.39,0,0,0,6-4.76c1.78-3.39-5.29-6.34-7.67-9.91s-1.17-8.52-1.17-8.52H368.75s-16,1.27-15.78,3.76c.42,4.95,7.86,7.83,7.86,7.83s6.72,7.43,13.1,9.22S397.42,320.81,397.42,320.81Z" opacity="0.25"/>
          <path d="M394.54,297.62a13.09,13.09,0,0,0,.85,7.2,8.58,8.58,0,0,0,2.21,2.78c.91.81,1.88,1.58,2.86,2.37a16.5,16.5,0,0,1,2.74,2.68,4.11,4.11,0,0,1,.83,1.89,2.93,2.93,0,0,1-.56,2,9.16,9.16,0,0,1-6.05,4.28,9.65,9.65,0,0,0,5.49-4.6,2.4,2.4,0,0,0-.43-3,18.48,18.48,0,0,0-2.66-2.47c-.94-.8-1.94-1.57-2.85-2.47a11.77,11.77,0,0,1-1.27-1.45,8.47,8.47,0,0,1-.94-1.72A11.84,11.84,0,0,1,394.54,297.62Z"/>
        </g></g></g><g class="part right-brow" transform="translate(16.702132146376137 -465.58622559360003) rotate(-80.09586640290678 0 0) scale(1 1)"><g class="offset" transform="translate(0 0) rotate(0 84.0503158569336 87.71524429321289) scale(1 1)"><path id="right-brow7-fear-3" d="M440.73,187.71c-3.8.18-9.05,1-10,2.38-.63.87-3.14,6.12-3.14,6.12s6.3-3.93,13.18-3.25C444.36,193.32,442.8,187.61,440.73,187.71Z" fill="#4F1413" stroke="#000" stroke-miterlimit="10" transform="translate(-346.58 -275) rotate(89.34406284288659 346.58 275) scale(1 1)" data-centerX="84.0503158569336" data-centerY="87.71524429321289" class="color-brow"/></g></g><g class="part piercing-right-brow" transform="translate(16.702132146376137 -465.58622559360003) rotate(-80.09586640290678 0 0) scale(1 1)"/><g class="part freckle" transform="translate(16.702132146376137 -465.58622559360003) rotate(-80.09586640290678 0 0) scale(1 1)"/><g class="part wrinkle-forehead" transform="translate(16.702132146376137 -465.58622559360003) rotate(-80.09586640290678 0 0) scale(1 1)"/><g class="part wrinkle-eyes" transform="translate(16.702132146376137 -465.58622559360003) rotate(-80.09586640290678 0 0) scale(1 1)"/><g class="part wrinkle-mouth" transform="translate(16.702132146376137 -465.58622559360003) rotate(-80.09586640290678 0 0) scale(1 1)"/><g class="part mustache" transform="translate(16.702132146376137 -465.58622559360003) rotate(-80.09586640290678 0 0) scale(1 1)"/><g class="part beard-side" transform="translate(16.702132146376137 -465.58622559360003) rotate(-80.09586640290678 0 0) scale(1 1)"/><g class="part glasses-side" transform="translate(16.702132146376137 -465.58622559360003) rotate(-80.09586640290678 0 0) scale(1 1)"/><g class="part bottom-patch-hips" transform="rotate(-90)"/><g class="part skirt-hips" transform="rotate(-90)"/><g class="part torso" transform="translate(4.1637991171010006e-15 -68) rotate(-85.09586640290678 0 0) scale(1 1)"><g class="offset" transform="translate(0 0) rotate(0 192.4834861755371 -11.707901000976562) scale(1 1)"><g id="torso-6" transform="translate(-341.4 -605.34) rotate(90.36493633573066 341.4 605.34) scale(1 1)" data-centerX="192.4834861755371" data-centerY="-11.707901000976562">
        <path d="M383.45,289.39c-5.06-1.68-13.87-5.33-13.87-10.66s5.33-14.86,5.33-24.51c0-4.77-.24-40.24-1.34-47.37-1-6.5-9.49-34.85-49-34.85-32.88,0-38.66,23.53-37,31.37,2.85,13.46,5.18,25.53,5.18,41.52,0,10.66-4.26,30.65-8.53,36s-28.81,11.72-41.62,17.05-37.35,2.13-47,24.52-4.71,62.68,2.93,75.41c6.41,10.66,34.67,53.21,40,66s9.87,65.15,12,79c1.8,11.64-8.35,64.27-6,68,12.64,20,62.38,43,120,43s74.43-23.34,85-34c0,0-5-43.74-5-64,0-39.44,5.58-93,5.58-93s4.15-7.42,8.42-17,9.07-25,8-41c-.85-12.85-2.16-35.11-5.36-47.9s-7.64-27.1-11.74-33c-4.43-6.37-8.9-13.12-17.9-18.12a91.67,91.67,0,0,0-25.71-10.06A201.35,201.35,0,0,1,383.45,289.39Z" fill="#E2B08B" class="color-skin"/>
        <path d="M287.56,203.37c3.39,10.53,5.18,25.53,5.18,41.52,0,10.66-4.26,30.65-8.53,36s-28.81,11.72-41.62,17.05-37.35,2.13-47,24.52-4.71,62.68,2.93,75.41c6.41,10.66,34.67,53.21,40,66s9.87,65.15,12,79c1.8,11.64-8.35,64.27-6,68,12.64,20,62.38,43,120,43s74.43-23.34,85-34c0,0-5-43.74-5-64,0-39.44,5.58-93,5.58-93s4.15-7.42,8.42-17,9.07-25,8-41c-.85-12.85-2.16-35.11-5.36-47.9s-7.64-27.1-11.74-33c-4.43-6.37-8.9-13.12-17.9-18.12a91.67,91.67,0,0,0-25.71-10.06,201.35,201.35,0,0,1-22.41-6.4c-5.06-1.68-13.87-5.33-13.87-10.66s5.33-14.86,5.33-24.51c0-4.77-.24-40.24-1.34-47.37" fill="none" stroke="#000" stroke-miterlimit="10"/>
        <path d="M426.46,575.85c.24-4.54.6-9.08.9-13.62l1.13-13.61c.77-9.07,1.71-18.12,2.73-27.17.55-4.52,1.09-9,1.76-13.55a79.14,79.14,0,0,1,3.1-13.4A59.55,59.55,0,0,1,441.73,482a34.17,34.17,0,0,1,4.19-5.45,18.09,18.09,0,0,1,5.48-4.08,19.31,19.31,0,0,0-5.13,4.39,34.11,34.11,0,0,0-3.8,5.58,59.27,59.27,0,0,0-5.1,12.49,88.63,88.63,0,0,0-2.74,13.24c-.63,4.48-1.14,9-1.67,13.52l-3.13,27.1-1.62,13.55C427.62,566.82,427.09,571.34,426.46,575.85Z" opacity="0.3"/>
        <path d="M444.84,521.48a9.65,9.65,0,0,1-2.76,2.68,6.72,6.72,0,0,1-3.95,1.19,8.44,8.44,0,0,1-3.79-1.32,10.41,10.41,0,0,1-2.87-2.55c1.27.3,2.43.69,3.56,1a16.92,16.92,0,0,0,3.23.78,8,8,0,0,0,3.13-.55C442.5,522.39,443.62,521.92,444.84,521.48Z" opacity="0.3"/>
        <path d="M444.47,568.09a9.1,9.1,0,0,1-2.37,3,7.26,7.26,0,0,1-1.72,1,4.78,4.78,0,0,1-2.13.39,9,9,0,0,1-3.76-1.14,11.06,11.06,0,0,1-3-2.29c1.26.25,2.42.6,3.57.91a18.71,18.71,0,0,0,3.3.69,5.89,5.89,0,0,0,3-.78C442.37,569.4,443.39,568.75,444.47,568.09Z" opacity="0.3"/>
        <path d="M285.18,322.73a47.19,47.19,0,0,0-4.3,6.1,59,59,0,0,0-3.47,6.58,57.74,57.74,0,0,0-4.36,14.12,54.74,54.74,0,0,0-.57,14.68,88.91,88.91,0,0,0,2.71,14.51,272.63,272.63,0,0,0,9.67,28.15c3.59,9.29,7.34,18.55,10.59,28.05a127,127,0,0,1,4.09,14.55q1.59,7.38,2.66,14.83c1.4,9.92,2.41,19.88,2.95,29.88.27,5,.46,10,.5,15s-.12,10-.4,15-.81,10-1.53,14.93a86.78,86.78,0,0,1-3.21,14.63,67.65,67.65,0,0,0,1.45-7.32c.38-2.47.68-4.94.92-7.41.49-4.95.72-9.93.82-14.9.2-9.94-.17-19.88-.93-29.79s-1.84-19.81-3.39-29.62c-.75-4.91-1.63-9.79-2.7-14.61a122.6,122.6,0,0,0-4.07-14.23c-6.32-18.79-14.86-37-19.68-56.58q-.9-3.68-1.53-7.41a70.28,70.28,0,0,1-.88-7.53,55.89,55.89,0,0,1,1.09-15.11,58.75,58.75,0,0,1,5.08-14.19A52.44,52.44,0,0,1,285.18,322.73Z" opacity="0.3"/>
      </g></g></g><g class="part undershirt-torso" transform="translate(4.1637991171010006e-15 -68) rotate(-85.09586640290678 0 0) scale(1 1)"/><g class="part shirt-torso" transform="translate(4.1637991171010006e-15 -68) rotate(-85.09586640290678 0 0) scale(1 1)"><g class="offset" transform="translate(0 0) rotate(0 142.39221954345703 -12.385757446289062) scale(1 1)"><g id="shirt-torso6-3" transform="translate(-341.4 -605.34) rotate(90.36493633573066 341.4 605.34) scale(1 1)" data-centerX="142.39221954345703" data-centerY="-12.385757446289062">
          <path d="M346.1,671.83c-51-1-100-28.63-111-46-2.48-3.91,12.82-58.86,10.94-71.09-2.25-14.55-7-69.55-12.64-83S198,413.62,191.29,402.42c-8-13.38-13.2-55.71-3.09-79.22s29.42-21.77,42.9-27.37,40.66-17.11,41-17c.53.17,4-23,7-24s17.15-1.35,53,3.88c14.14,2.06,51,10.12,51,13.12s5.71,15.9,7,15.61c.17,0,9.31,5.52,19.42,7.76a96.87,96.87,0,0,1,27.08,10.57c9.47,5.25,14.17,12.34,18.84,19,4.32,6.18,9,21.21,12.36,34.65s4.74,36.82,5.64,50.32c1.13,16.8-3.93,33-8.42,43.07s-8.87,17.88-8.87,17.88-5.87,56.25-5.87,97.68c0,21.28,12.82,66.43,12.82,66.43-2.44,9.2-23,26-49,34Z" fill="#ffffff" stroke="#000" stroke-miterlimit="10" class="color-shirt"/>
          <path d="M272.6,279.33a42.31,42.31,0,0,0,6.53,3.09c2.24.86,4.51,1.65,6.81,2.33a134.29,134.29,0,0,0,14,3.36c4.72.86,9.47,1.68,14.26,2.11,1.2.1,2.39.25,3.59.32l3.61.22c2.4.17,4.81.18,7.22.27s4.82,0,7.23.07l7.24-.14c4.83-.15,9.65-.35,14.48-.68,9.64-.58,19.27-1.5,28.88-2.66-4.77.82-9.56,1.5-14.37,2.1s-9.61,1.15-14.44,1.58c-9.64.85-19.33,1.42-29,1.35-2.43-.06-4.86,0-7.29-.18l-3.64-.18c-1.21-.06-2.42-.2-3.64-.29a125.86,125.86,0,0,1-14.46-1.95,89.77,89.77,0,0,1-14.1-3.88A45.7,45.7,0,0,1,272.6,279.33Z" opacity="0.6"/>
          <path d="M309,472.44c-2.88-5-5.4-10.14-7.82-15.36-1.18-2.61-2.35-5.24-3.46-7.9s-2.14-5.33-3.15-8c-4-10.81-7.32-21.93-8.85-33.51-.38-2.9-.56-5.84-.7-8.7s-.21-5.76-.26-8.65,0-5.76,0-8.64.22-5.76.42-8.63q.54-8.62,1.86-17.16A130.2,130.2,0,0,1,290.67,339a258.93,258.93,0,0,0-2.54,34.13c-.1,5.69,0,11.38.22,17.06l.2,4.26.28,4.25c.16,2.86.37,5.63.77,8.41a154.17,154.17,0,0,0,3.34,16.59c1.38,5.49,3,11,4.69,16.38C301.06,451,304.93,461.69,309,472.44Z" opacity="0.25"/>
          <path d="M304.68,291.87a402.09,402.09,0,0,0-14.15,45.35c-3.78,15.36-6.74,31-7.23,46.85-.86,15.91,3.84,31.36,8.75,46.33,2.55,7.49,5.5,14.84,8.76,22.05,1.63,3.61,3.32,7.18,5,10.76s3.47,7.13,4.83,10.89a23.47,23.47,0,0,1,.86,2.89c.2,1,.26,2,.4,3,.11,2,.28,4,.32,5.95.16,4,.22,7.93.28,11.89.11,7.93.09,15.85.06,23.78q-.12,23.77-.71,47.54l-.2,5.94c0,1-.07,2-.14,3a29.26,29.26,0,0,1-.28,3c-.56,3.94-1.28,7.83-2,11.73-1.46,7.79-3,15.56-4.57,23.33q-4.77,23.29-9.76,46.53,4.8-23.28,9.4-46.6c1.54-7.77,3.06-15.55,4.5-23.34.71-3.89,1.42-7.79,2-11.7a29.13,29.13,0,0,0,.27-3c.06-1,.1-2,.13-3l.18-5.94c.38-15.83.54-31.68.59-47.52,0-7.93,0-15.85-.13-23.77-.07-4-.14-7.92-.31-11.87-.05-2-.21-3.94-.33-5.91-.14-1-.21-1.95-.4-2.9a25.6,25.6,0,0,0-.83-2.8c-1.33-3.69-3.1-7.25-4.78-10.84s-3.39-7.16-5-10.78c-3.24-7.23-6.18-14.61-8.72-22.13A230.25,230.25,0,0,1,285,407.71c-.5-1.91-.83-3.88-1.21-5.83s-.57-3.94-.68-5.92a107.57,107.57,0,0,1-.28-11.91c.54-15.88,3.54-31.55,7.38-46.92A401.14,401.14,0,0,1,304.68,291.87Z" opacity="0.6"/>
        </g></g></g><g class="part jacket-torso" transform="translate(4.1637991171010006e-15 -68) rotate(-85.09586640290678 0 0) scale(1 1)"><g class="offset" transform="translate(0 0) rotate(0 123.85285949707031 -12.612380981445312) scale(1 1)"><g id="jacket-torso2-3" transform="translate(-341.4 -605.34) rotate(90.36493633573066 341.4 605.34) scale(1 1)" data-centerX="123.85285949707031" data-centerY="-12.612380981445312">
          <path d="M370.23,692.94c-22.14-3.14-49.63-7.85-79.1-15-14.93-3.59-30.37-7.8-47.9-18A149.76,149.76,0,0,1,227,649c.8-7.44,1.91-18.24,3.1-31.27,2.51-27.5,4.2-46,4.6-62.07.69-27,3.28-54.55-8.69-83-5.66-13.44-30.6-56.13-37.4-67.33-8.11-13.38-11.51-58.6-1.33-82.11s30.91-24.65,44.74-29.64c11.08-4,17-8.84,20.06-10.84s16.12-12,16.12-12c11.08,1.5,22.46,9.9,59.34,12.39s58.31-2.94,58.37-2.89l6.05,4s8,7.5,16.52,9.87c10.05,2.8,15.06,4.4,24.26,8.57,10.63,4.82,19,13.43,24.35,22.4,6.21,10.36,8.75,18.51,12.35,33.69,2.68,11.35,3.53,24.57,5.22,51,.5,7.76,1,16.61-2.27,26.66-.25.78-.11,1.87-2.95,8.19a154.52,154.52,0,0,0-7.05,19c-1.9,78-1.31,106.24-1.31,106.24.27,13.38.8,28.37,1.88,45.54.76,12,1.61,22.13,2.29,29.59a98.46,98.46,0,0,1-32.34,32.43C409.29,691.89,370.23,692.94,370.23,692.94Z" fill="#2C2A2F" stroke="#000" stroke-miterlimit="10" class="color-jacket"/>
          <path d="M396.05,287.56l-10.16-7.34c-.06-.05-17.19,5.38-65.75,1.77-31.91-2.38-40.88-9.77-52-11.27,0,0-8.4,6.36-11.42,8.61,0,0,4,18.72,52.21,24.35C372.23,311.08,396.05,287.56,396.05,287.56Z" fill="#fff" opacity="0.25"/>
          <path d="M332.38,305.61a201.08,201.08,0,0,1-23.47-1.43c-48-5.62-52.47-24-52.64-24.74l-.06-.32.25-.19c3-2.25,11.42-8.61,11.42-8.61l.16-.12.21,0a63.17,63.17,0,0,1,11.68,3.17c8.13,2.75,19.28,6.53,40.25,8.09,42.27,3.15,60.74-.51,65.39-1.71.27-.06.44-.11.64.05l10.61,7.68-.42.41C396.19,288.12,377.88,305.61,332.38,305.61Zm-75-26.08c.8,2.39,7.82,18.53,51.68,23.66,57.74,6.75,82.69-12.53,86.23-15.58l-9.46-6.85c-4.75,1.22-23.36,4.88-65.69,1.72-21.09-1.57-32.31-5.36-40.49-8.13a62.1,62.1,0,0,0-11.29-3.1C267.17,272.12,260.29,277.32,257.34,279.53Z" opacity="0.25"/>
          <path d="M297.38,681l-1,0c0-.25.59-24.37,1.56-41.38.53-9.37,4.29-29.41,7.91-48.79,3.07-16.37,6-31.84,6.79-40.07,1.82-18.3-5.43-89.59-7-101.55-.52-3.82-2.42-10.89-4.82-19.84-5.79-21.51-14.53-54-13.36-77.12,1.64-32.31,12.51-50.2,12.62-50.38l.85.53c-.11.18-10.85,17.87-12.47,49.9-1.16,22.95,7.56,55.36,13.32,76.81,2.42,9,4.33,16.08,4.85,20,1.6,12,8.87,83.4,7,101.78-.82,8.27-3.72,23.76-6.79,40.16-3.63,19.34-7.37,39.35-7.9,48.66C298,656.61,297.38,680.72,297.38,681Z" opacity="0.8"/>
        </g></g></g><g class="part right-ear" transform="translate(16.702132146376137 -465.58622559360003) rotate(-80.09586640290678 0 0) scale(1 1)"><g class="offset" transform="translate(0 0) rotate(0 39.232075691223145 61.801334381103516) scale(1 1)"><g id="right-ear4-3" transform="translate(-346.58 -275) rotate(89.34406284288659 346.58 275) scale(1 1)" data-centerX="39.232075691223145" data-centerY="61.801334381103516">
          <path d="M400.69,225.5s3.22-7,5.15-10,7.09-6,11-3,3.22,14,2.58,18a112.15,112.15,0,0,1-3.22,14,68.2,68.2,0,0,1-5.8,13c-1.29,2-3.22,5-6.44,4s-3.86-5-4.51-8-1.63-6.5-1.63-6.5" fill="#E2B08B" stroke="#000" stroke-miterlimit="10" class="color-skin"/>
          <path d="M410,248.64l-1-.28s.89-3.09,2.23-6.39c2.34-5.75,2.46-8.12,2.63-11.39,0-.7.07-1.43.14-2.24a55.73,55.73,0,0,0-.69-10.82l1-.17a54.37,54.37,0,0,1,.7,11.07c-.06.8-.09,1.52-.13,2.21-.17,3.25-.3,5.81-2.71,11.72C410.84,245.59,410,248.61,410,248.64Z" opacity="0.6"/>
          <path d="M399.9,229.29a47.49,47.49,0,0,0-2,7.21c-.56,3.4.5,14.5.5,14.5s7.58-8.27,9.4-15.43c2.93-11.57-3.2-15.43-3.2-15.43Z" opacity="0.25"/>
        </g></g></g><g class="part earring-right" transform="translate(16.702132146376137 -465.58622559360003) rotate(-80.09586640290678 0 0) scale(1 1)"/><g class="part piercing-right-ear" transform="translate(16.702132146376137 -465.58622559360003) rotate(-80.09586640290678 0 0) scale(1 1)"/><g class="part jewelry-neck" transform="translate(4.1637991171010006e-15 -68) rotate(-85.09586640290678 0 0) scale(1 1)"/><g class="part veil-torso" transform="translate(4.1637991171010006e-15 -68) rotate(-85.09586640290678 0 0) scale(1 1)"/><g class="part hair" transform="translate(16.702132146376137 -465.58622559360003) rotate(-80.09586640290678 0 0) scale(1 1)"><g class="offset" transform="translate(0 0) rotate(0 87.78481698036194 4.0836639404296875) scale(1 1)"><g id="hair28-3" transform="translate(-346.58 -275) rotate(89.34406284288659 346.58 275) scale(1 1)" data-centerX="87.78481698036194" data-centerY="4.0836639404296875">
          <path d="M394.23,97.6c-12.6.89-55.2,5.48-82,13.93-25.37,8-41.84,22.83-42.32,27a53.69,53.69,0,0,0,0,14.14s-6.41,12.84-6.71,18c-.5,8.64,5.32,33,5.32,33s1.69,31.26,14.57,47.21c25.28,31.32,50.33,25.86,52.05,25.72,13.67-1.11,30.3-4.63,40.5-12.53,6.56-5.08,12.17-21.48,16.33-27.59,10.77-15.82,20-28.17,23.77-29.4,9-2.89,5.24,28.41,5.59,29.4,0,0,2.43-17,3.36-32.29.51-8.29-7.41-46-6-57.92.18-1.54,2.67-2.38,7.22-.58a15.31,15.31,0,0,1,5.74,4.4C447.18,149.68,445.14,94,394.23,97.6Z" fill="#000002" stroke="#000" stroke-miterlimit="10" class="color-hair"/>
          <path d="M296.4,129.73c6,1.94,36.52-1,48.44-1,16.59,0,44.85-15.65,70.93-14.35,12.45.63,1.54-16.78-7.94-16.78-15.87,0-86.31,10.31-103.59,17.07C286.35,121.66,290.4,127.79,296.4,129.73Z" fill="#fff" opacity="0.14"/>
          <path d="M315.26,165.23s15.16,6.48,20.29,7.51c12.38,2.49,26.26-.61,32-3a59.39,59.39,0,0,0,22.14-16.63s-24.65,9.36-43.63,10.82C329.1,165.23,315.26,165.23,315.26,165.23Z" fill="#fff" opacity="0.14"/>
          <path d="M277.77,234.57a42.74,42.74,0,0,0,17.35,28.68c17.21,12.16,26.33,15.81,44.52,12.91,20.36-3.24,28.65-6.54,36-12.08,8.76-6.58,16.59-30.18,22.1-38.52,7.23-11,11.76-15.5,11.76-15.5s-45.89,17-53.2,22.65S344.14,247,344.14,247s.68-8.32,2.54-10.51a46.57,46.57,0,0,0,5-7.1s-27.43,8.2-45,7.1S277.77,234.57,277.77,234.57Z" opacity="0.25"/>
        </g></g></g><g class="part back-hair" transform="translate(29.912248684275525 -541.2445524390644) rotate(-85.09586640290678 0 0) scale(1 1)"/><g class="part veil-head" transform="translate(16.702132146376137 -465.58622559360003) rotate(-80.09586640290678 0 0) scale(1 1)"/><g class="part hat-back" transform="translate(16.702132146376137 -465.58622559360003) rotate(-80.09586640290678 0 0) scale(1 1)"/><g class="part right-upper-arm" transform="translate(118.21014196874727 -316.2835446334063) rotate(52.25528296699434 0 0) scale(1 1)"><g class="offset" transform="translate(0 0) rotate(0 90.24496078491211 7.2490997314453125) scale(1 1)"><g id="right-upper-arm-3" transform="translate(-436.31 -347.25) rotate(-83.75754083224581 436.31 347.25) scale(1 1)" data-centerX="90.24496078491211" data-centerY="7.2490997314453125">
        <path d="M431,557.22c-3.6-9.12-23.57-62.6-26.58-80.37-3.07-18.18,1-52.94-1.09-61.09s-9.26-30.24-12.7-44.5-3.94-33.11,4.55-47.19a55.9,55.9,0,0,1,39.77-26c12.8-1.82,33,8.69,38.17,15.86,4.79,6.61,8.81,23.36,8.38,36.54S476,390.74,476,399.87s13.84,58.19,13.53,70.36-2,73.35-5.34,85.48c-1.22,4.49-4.92,20.81-21.16,21.81C437.35,579.1,433.65,563.93,431,557.22Z" fill="#E2B08B" stroke="#000" stroke-miterlimit="10" class="color-skin"/>
        <path d="M453.65,432.92c.1,6.67.18,13.29.39,19.9s.54,13.22,1.34,19.67c.45,3.23,1.1,6.45,1.74,9.68.35,1.61.69,3.23,1.08,4.83s.73,3.22,1.13,4.83c1.56,6.43,3.26,12.84,4.92,19.3a170.54,170.54,0,0,1-7.07-18.7,129.93,129.93,0,0,1-4.73-19.53,124,124,0,0,1-.87-20.08A131.39,131.39,0,0,1,453.65,432.92Z" opacity="0.3"/>
      </g></g></g><g class="part shirt-right-upper-arm" transform="translate(118.21014196874727 -316.2835446334063) rotate(52.25528296699434 0 0) scale(1 1)"/><g class="part jacket-right-upper-arm" transform="translate(118.21014196874727 -316.2835446334063) rotate(52.25528296699434 0 0) scale(1 1)"><g class="offset" transform="translate(0 0) rotate(0 92.88727569580078 8.18429183959961) scale(1 1)"><path id="jacket-right-upper-arm2" d="M425.11,568.65c-3.91-5.89-4.57-16.45-6.4-22.37-5.91-19.13-14.51-54.63-17.37-66.45s-.91-54.58-2.77-63.54-7.78-34.65-12-47.11c-6.13-18,1-38.54,5.11-46.87,4.49-9.05,19.23-21.83,34.43-25.46,20.83-5,32.13,1.31,44.76,11.84s15.29,51.32,14.27,66.64S481.7,394.18,481,403s8.24,44.77,10.31,61.31c2.79,22.43-.72,88-1.67,92.37s-7.17,20.58-27.55,27.25C445.67,589.28,434.75,583.19,425.11,568.65Z" fill="#2C2A2F" stroke="#000" stroke-miterlimit="10" transform="translate(-436.31 -347.25) rotate(-83.75754083224581 436.31 347.25) scale(1 1)" data-centerX="92.88727569580078" data-centerY="8.18429183959961" class="color-jacket"/></g></g><g class="part right-forearm" transform="translate(248.19844251598516 -148.3693465415208) rotate(-97.74471703300566 0 0) scale(1 1)"><g class="offset" transform="translate(0 0) rotate(0 87.50112533569336 1.946533203125) scale(1 1)"><path id="right-forearm" d="M504.84,583.1c3,8.23,18.48,100,21,111,1.31,5.67,5.39,34.66,5.77,38.78s-9.19,15.72-19.77,17.33c-13.62,2.07-26-5.93-27.63-9.23S479,711.6,475.79,698.9s-37.66-107.71-40-113.17-7.87-12.06-6.75-15.9a17.2,17.2,0,0,1,5.33-8.65s.22-23.95,24.38-25c27.76-1.23,28.85,23.48,28.85,23.48C495.65,563,501.74,574.73,504.84,583.1Z" fill="#E2B08B" stroke="#000" stroke-miterlimit="10" transform="translate(-459.4 -558.34) rotate(-74.93952834709832 459.4 558.34) scale(1 1)" data-centerX="87.50112533569336" data-centerY="1.946533203125" class="color-skin"/></g></g><g class="part patch-right-elbow" transform="translate(118.21014196874727 -316.2835446334063) rotate(52.25528296699434 0 0) scale(1 1)"><g class="offset" transform="translate(0 0) rotate(0 203.68201446533203 1.0638999938964844) scale(1 1)"><circle id="patch-right-elbow" cx="457.4" cy="549.84" r="26.09" fill="#E2B08B" transform="translate(-436.31 -347.25) rotate(-83.75754083224581 436.31 347.25) scale(1 1)" data-centerX="203.68201446533203" data-centerY="1.0638999938964844" class="color-skin"/></g></g><g class="part right-hand" transform="translate(222.80120787552704 -335.1135605686695) rotate(-76.49285405643445 0 0) scale(1 1)"><g class="offset" transform="translate(0 0) rotate(0 34.440372467041016 -3.9786415100097656) scale(1 1)"><g id="right-hand-fist-back-3" transform="translate(-508.37 -740.33) rotate(-74.33134329079763 508.37 740.33) scale(1 1)" data-centerX="34.440372467041016" data-centerY="-3.9786415100097656">
          <path d="M552.94,795.07s3.41,7.84-3.38,12.19-13.11-4.14-13.11-4.14,4.33,8.6-3.56,11-12.5-9.37-12.34-6.37,2.46,8.88-6.48,10.35-11.45-8.43-11.45-8.43,3.41,7.84-4.58,8.25-9.35-6.53-10.6-11.47c-1-3.87-1.52-9.93-2.77-14.87-1.11-4.37-3.72-23.31-4.44-30.7s6-19.58,10.66-23.8,15-9.24,21.3-10.12,13.52-.35,18.58,3c4.74,3.1,11.3,8.78,14.55,14.47S555,756.92,555,756.92s7.66,12.62,7.82,15.61C563.15,779.52,552.94,795.07,552.94,795.07Z" fill="#E2B08B" stroke="#000" stroke-miterlimit="10" class="color-skin"/>
          <polyline points="544.61 769.47 550.32 783.19 552.94 795.07" fill="none" stroke="#000" stroke-miterlimit="10"/>
          <path d="M544.08,769a47.18,47.18,0,0,0,6.25,4.69,77.85,77.85,0,0,0,7.2,3.63s-9,.47-10-.48S544.08,769,544.08,769Z" opacity="0.22"/>
          <path d="M548,777.55a48.18,48.18,0,0,0,7.09.39" fill="none" stroke="#000" stroke-miterlimit="10"/>
          <path d="M539.27,792.27a18.8,18.8,0,0,0,2.31,5.89,20,20,0,0,0,2.68,3.37s-4.57-1.27-5.15-2.74S539.27,792.27,539.27,792.27Z" opacity="0.22"/>
          <path d="M525.6,799a18.69,18.69,0,0,0,2.31,5.88,20,20,0,0,0,2.68,3.37S526,807,525.44,805.5,525.6,799,525.6,799Z" opacity="0.22"/>
          <path d="M507.78,802.91a17.81,17.81,0,0,0,5,9.25s-4.58-1.26-5.15-2.73S507.78,802.91,507.78,802.91Z" opacity="0.22"/>
          <path d="M493.9,805.63a11.52,11.52,0,0,0,2.23,4.31,16,16,0,0,0,2.63,2.45s-4.55-.87-5.11-1.95S493.9,805.63,493.9,805.63Z" opacity="0.22"/>
        </g></g></g><g class="part patch-right-wrist" transform="translate(248.19844251598516 -148.3693465415208) rotate(-97.74471703300566 0 0) scale(1 1)"><g class="offset" transform="translate(0 0) rotate(0 177.54759216308594 -0.95928955078125) scale(1 1)"><ellipse id="patch-right-wrist" cx="506.46" cy="729.54" rx="23.31" ry="20.07" transform="translate(-459.4 -558.34) rotate(-74.93952834709832 459.4 558.34) scale(1 1)" fill="#E2B08B" data-centerX="177.54759216308594" data-centerY="-0.95928955078125" class="color-skin"/></g></g><g class="part shirt-right-forearm" transform="translate(248.19844251598516 -148.3693465415208) rotate(-97.74471703300566 0 0) scale(1 1)"/><g class="part shirt-patch-right-elbow" transform="translate(118.21014196874727 -316.2835446334063) rotate(52.25528296699434 0 0) scale(1 1)"/><g class="part shirt-right-elbow" transform="translate(118.21014196874727 -316.2835446334063) rotate(52.25528296699434 0 0) scale(1 1)"/><g class="part jacket-right-forearm" transform="translate(248.19844251598516 -148.3693465415208) rotate(-97.74471703300566 0 0) scale(1 1)"><g class="offset" transform="translate(0 0) rotate(0 87.25162506103516 -1.7825927734375) scale(1 1)"><g id="jacket-right-forearm2-3" transform="translate(-459.4 -558.34) rotate(-74.93952834709832 459.4 558.34) scale(1 1)" data-centerX="87.25162506103516" data-centerY="-1.7825927734375">
            <path id="_Path_41" d="M512.82,584.15c2.81,15.7,16.64,98.46,19.46,108.87s10.94,35.76,10.92,39.53-24.74,19.16-31.07,18.84-33.38.57-34.77-5.87c-.72-3.31-10.78-36.89-13-49s-27-90.54-29-95.94-9-19.28-10.24-22.63c-2.61-7.12,2.46-18.59,3.92-19.74,0,0,2.26-23.73,24.3-25.18,35.53-2.35,39,21.65,39,21.65C500.92,559.57,511.31,575.69,512.82,584.15Z" fill="#2C2A2F" stroke="#000" stroke-miterlimit="10" class="color-jacket"/>
            <ellipse cx="527.62" cy="709.47" rx="4.34" ry="4" transform="translate(-219.38 1182.47) rotate(-85.7)" stroke="#000" stroke-miterlimit="10"/>
            <ellipse cx="533.25" cy="725.5" rx="4.34" ry="4" transform="translate(-230.15 1202.91) rotate(-85.7)" stroke="#000" stroke-miterlimit="10"/>
          </g></g></g><g class="part jacket-patch-right-elbow" transform="translate(118.21014196874727 -316.2835446334063) rotate(52.25528296699434 0 0) scale(1 1)"><g class="offset" transform="translate(0 0) rotate(0 203.3836441040039 3.5159950256347656) scale(1 1)"><circle id="jacket-patch-right-elbow" cx="454.93" cy="549.81" r="32.53" fill="#2C2A2F" transform="translate(-436.31 -347.25) rotate(-83.75754083224581 436.31 347.25) scale(1 1)" data-centerX="203.3836441040039" data-centerY="3.5159950256347656" class="color-jacket"/></g></g><g class="part jacket-right-elbow" transform="translate(118.21014196874727 -316.2835446334063) rotate(52.25528296699434 0 0) scale(1 1)"/></g></svg>